<svg height="700" version="1.1" width="650" xmlns="http://www.w3.org/2000/svg" style="overflow: hidden; position: relative; left: -0.390625px;"><desc style="-webkit-tap-highlight-color: rgba(0, 0, 0, 0);">Created with Raphaël 2.1.2</desc><defs style="-webkit-tap-highlight-color: rgba(0, 0, 0, 0);"></defs><path fill="#888888" stroke="#888888" d="M47.5,45L52.5,50L47.5,55ZM52.5,70L47.5,75L52.5,80ZM547.5,45L552.5,50L547.5,55ZM552.5,70L547.5,75L552.5,80ZM50,50L300,50M50,75L300,75M450,50L550,50M450,75L550,75M200,75L225,50M325,62.5L425,62.5M300,50L325,62.5M300,75L325,62.5M425,62.5L450,50M425,62.5L450,75" style=""></path><text x="100" y="17.5" text-anchor="middle" font="10px &quot;Arial&quot;" stroke="none" fill="#000000" style="" font-size="8px" class="sig8"><tspan dy="2.5" style="">Stonegate</tspan></text><rect x="75" y="35.5" width="50" height="3" r="0" rx="0" ry="0" fill="#cccccc" stroke="#cccccc" style=""></rect><text x="100" y="33.5" text-anchor="middle" font="10px &quot;Arial&quot;" stroke="none" fill="#000000" style="" font-size="7px" class="sig7"><tspan dy="2" style="">2</tspan></text><text x="100" y="41.5" text-anchor="middle" font="10px &quot;Arial&quot;" stroke="none" fill="#000000" style="" font-size="7px" class="sig7"><tspan dy="41.5" style=""></tspan></text><rect x="75" y="85.5" width="50" height="3" r="0" rx="0" ry="0" fill="#cccccc" stroke="#cccccc" style=""></rect><text x="100" y="83.5" text-anchor="middle" font="10px &quot;Arial&quot;" stroke="none" fill="#000000" style="" font-size="7px" class="sig7"><tspan dy="83.5" style=""></tspan></text><text x="100" y="91.5" text-anchor="middle" font="10px &quot;Arial&quot;" stroke="none" fill="#000000" style="" font-size="7px" class="sig7"><tspan dy="2" style="">1</tspan></text><path fill="#ffffff" stroke="#000000" d="M80,42L120,42L120,58L80,58Z" id="b_H427" class="berth"></path><text x="100" y="50" text-anchor="middle" font="10px &quot;Arial&quot;" stroke="none" fill="#999999" font-size="10px" id="t_H427" def="H427" class="berth sig10"><tspan dy="3.5" style="-webkit-tap-highlight-color: rgba(0, 0, 0, 0);">H427</tspan></text><text x="175" y="17.5" text-anchor="middle" font="10px &quot;Arial&quot;" stroke="none" fill="#000000" style="" font-size="8px" class="sig8"><tspan dy="2.5" style="">Etchingham</tspan></text><rect x="150" y="35.5" width="50" height="3" r="0" rx="0" ry="0" fill="#cccccc" stroke="#cccccc" style=""></rect><text x="175" y="33.5" text-anchor="middle" font="10px &quot;Arial&quot;" stroke="none" fill="#000000" style="" font-size="7px" class="sig7"><tspan dy="2" style="">2</tspan></text><text x="175" y="41.5" text-anchor="middle" font="10px &quot;Arial&quot;" stroke="none" fill="#000000" style="" font-size="7px" class="sig7"><tspan dy="41.5" style=""></tspan></text><rect x="150" y="85.5" width="50" height="3" r="0" rx="0" ry="0" fill="#cccccc" stroke="#cccccc" style=""></rect><text x="175" y="83.5" text-anchor="middle" font="10px &quot;Arial&quot;" stroke="none" fill="#000000" style="" font-size="7px" class="sig7"><tspan dy="83.5" style=""></tspan></text><text x="175" y="91.5" text-anchor="middle" font="10px &quot;Arial&quot;" stroke="none" fill="#000000" style="" font-size="7px" class="sig7"><tspan dy="2" style="">1</tspan></text><path fill="#ffffff" stroke="#000000" d="M155,42L195,42L195,58L155,58Z" id="b_H429" class="berth"></path><text x="175" y="50" text-anchor="middle" font="10px &quot;Arial&quot;" stroke="none" fill="#999999" font-size="10px" id="t_H429" def="H429" class="berth sig10"><tspan dy="3.5" style="-webkit-tap-highlight-color: rgba(0, 0, 0, 0);">H429</tspan></text><path fill="#ffffff" stroke="#000000" d="M155,67L195,67L195,83L155,83Z" id="b_H434" class="berth"></path><text x="175" y="75" text-anchor="middle" font="10px &quot;Arial&quot;" stroke="none" fill="#999999" font-size="10px" id="t_H434" def="H434" class="berth sig10"><tspan dy="3.5" style="-webkit-tap-highlight-color: rgba(0, 0, 0, 0);">H434</tspan></text><text x="250" y="17.5" text-anchor="middle" font="10px &quot;Arial&quot;" stroke="none" fill="#000000" style="" font-size="8px" class="sig8"><tspan dy="2.5" style="">Robertsbridge</tspan></text><rect x="225" y="35.5" width="50" height="3" r="0" rx="0" ry="0" fill="#cccccc" stroke="#cccccc" style=""></rect><text x="250" y="33.5" text-anchor="middle" font="10px &quot;Arial&quot;" stroke="none" fill="#000000" style="" font-size="7px" class="sig7"><tspan dy="2" style="">2</tspan></text><text x="250" y="41.5" text-anchor="middle" font="10px &quot;Arial&quot;" stroke="none" fill="#000000" style="" font-size="7px" class="sig7"><tspan dy="41.5" style=""></tspan></text><rect x="225" y="85.5" width="50" height="3" r="0" rx="0" ry="0" fill="#cccccc" stroke="#cccccc" style=""></rect><text x="250" y="83.5" text-anchor="middle" font="10px &quot;Arial&quot;" stroke="none" fill="#000000" style="" font-size="7px" class="sig7"><tspan dy="83.5" style=""></tspan></text><text x="250" y="91.5" text-anchor="middle" font="10px &quot;Arial&quot;" stroke="none" fill="#000000" style="" font-size="7px" class="sig7"><tspan dy="2" style="">1</tspan></text><path fill="#ffffff" stroke="#000000" d="M230,42L270,42L270,58L230,58Z" id="b_H018" class="berth"></path><text x="250" y="50" text-anchor="middle" font="10px &quot;Arial&quot;" stroke="none" fill="#999999" font-size="10px" id="t_H018" def="H018" class="berth sig10"><tspan dy="3.5" style="-webkit-tap-highlight-color: rgba(0, 0, 0, 0);">H018</tspan></text><path fill="#ffffff" stroke="#000000" d="M230,67L270,67L270,83L230,83Z" id="b_H436" class="berth"></path><text x="250" y="75" text-anchor="middle" font="10px &quot;Arial&quot;" stroke="none" fill="#999999" font-size="10px" id="t_H436" def="H436" class="berth sig10"><tspan dy="3.5" style="-webkit-tap-highlight-color: rgba(0, 0, 0, 0);">H436</tspan></text><text x="375" y="17.5" text-anchor="middle" font="10px &quot;Arial&quot;" stroke="none" fill="#000000" style="" font-size="8px" class="sig8"><tspan dy="2.5" style="">Mountfield Tunnel</tspan></text><path fill="#ffffff" stroke="#000000" d="M330,42L370,42L370,58L330,58Z" id="b_H017" class="berth"></path><text x="350" y="50" text-anchor="middle" font="10px &quot;Arial&quot;" stroke="none" fill="#999999" font-size="10px" id="t_H017" def="H017" class="berth sig10"><tspan dy="3.5" style="-webkit-tap-highlight-color: rgba(0, 0, 0, 0);">H017</tspan></text><path fill="#ffffff" stroke="#000000" d="M380,42L420,42L420,58L380,58Z" id="b_H016" class="berth"></path><text x="400" y="50" text-anchor="middle" font="10px &quot;Arial&quot;" stroke="none" fill="#999999" font-size="10px" id="t_H016" def="H016" class="berth sig10"><tspan dy="3.5" style="-webkit-tap-highlight-color: rgba(0, 0, 0, 0);">H016</tspan></text><path fill="#ffffff" stroke="#000000" d="M330,67L370,67L370,83L330,83Z" id="b_H002" class="berth"></path><text x="350" y="75" text-anchor="middle" font="10px &quot;Arial&quot;" stroke="none" fill="#999999" font-size="10px" id="t_H002" def="H002" class="berth sig10"><tspan dy="3.5" style="-webkit-tap-highlight-color: rgba(0, 0, 0, 0);">H002</tspan></text><path fill="#ffffff" stroke="#000000" d="M380,67L420,67L420,83L380,83Z" id="b_H006" class="berth"></path><text x="400" y="75" text-anchor="middle" font="10px &quot;Arial&quot;" stroke="none" fill="#999999" font-size="10px" id="t_H006" def="H006" class="berth sig10"><tspan dy="3.5" style="-webkit-tap-highlight-color: rgba(0, 0, 0, 0);">H006</tspan></text><path fill="#ffffff" stroke="#000000" d="M480,42L520,42L520,58L480,58Z" id="b_P437" class="berth"></path><text x="500" y="50" text-anchor="middle" font="10px &quot;Arial&quot;" stroke="none" fill="#999999" font-size="10px" id="t_P437" def="P437" class="berth sig10"><tspan dy="3.5" style="-webkit-tap-highlight-color: rgba(0, 0, 0, 0);">P437</tspan></text><path fill="#ffffff" stroke="#000000" d="M480,67L520,67L520,83L480,83Z" id="b_P005" class="berth"></path><text x="500" y="75" text-anchor="middle" font="10px &quot;Arial&quot;" stroke="none" fill="#999999" font-size="10px" id="t_P005" def="P005" class="berth sig10"><tspan dy="3.5" style="-webkit-tap-highlight-color: rgba(0, 0, 0, 0);">P005</tspan></text><text x="550" y="61.25" text-anchor="middle" font="10px &quot;Arial&quot;" stroke="none" fill="#000000" style="" font-size="8px" class="sig8"><tspan dy="2.5" style="">A</tspan></text><path fill="#888888" stroke="#888888" d="M47.5,145L52.5,150L47.5,155ZM52.5,170L47.5,175L52.5,180ZM97.5,220L102.5,225L97.5,230ZM102.5,245L97.5,250L102.5,255ZM547.5,220L552.5,225L547.5,230ZM552.5,245L547.5,250L552.5,255ZM50,150L362.5,150M50,175L350,175M362.5,150L387.5,225M350,175L375,250M325,200L337.5,225M337.5,225L350,250M100,225L550,225M100,250L550,250M150,200L212.5,200M187.5,200L200,225" style=""></path><text x="275" y="267.5" text-anchor="middle" font="10px &quot;Arial&quot;" stroke="none" fill="#000000" style="" font-size="8px" class="sig8"><tspan dy="2.5" style="">BoPeep Junction</tspan></text><text x="50" y="161.25" text-anchor="middle" font="10px &quot;Arial&quot;" stroke="none" fill="#000000" style="" font-size="8px" class="sig8"><tspan dy="2.5" style="">A</tspan></text><text x="100" y="117.5" text-anchor="middle" font="10px &quot;Arial&quot;" stroke="none" fill="#000000" style="" font-size="8px" class="sig8"><tspan dy="2.5" style="">Battle</tspan></text><rect x="75" y="135.5" width="50" height="3" r="0" rx="0" ry="0" fill="#cccccc" stroke="#cccccc" style=""></rect><text x="100" y="133.5" text-anchor="middle" font="10px &quot;Arial&quot;" stroke="none" fill="#000000" style="" font-size="7px" class="sig7"><tspan dy="2" style="">2</tspan></text><text x="100" y="141.5" text-anchor="middle" font="10px &quot;Arial&quot;" stroke="none" fill="#000000" style="" font-size="7px" class="sig7"><tspan dy="141.5" style=""></tspan></text><path fill="#ffff00" stroke="#000000" d="M80,142L120,142L120,158L80,158Z" id="b_P441" class="berth"></path><text x="100" y="150" text-anchor="middle" font="10px &quot;Arial&quot;" stroke="none" fill="#000000" font-size="10px" id="t_P441" def="P441" class="berth sig10"><tspan dy="3.5" style="-webkit-tap-highlight-color: rgba(0, 0, 0, 0);">1H34</tspan></text><path fill="#ffffff" stroke="#000000" d="M80,167L120,167L120,183L80,183Z" id="b_P444" class="berth"></path><text x="100" y="175" text-anchor="middle" font="10px &quot;Arial&quot;" stroke="none" fill="#999999" font-size="10px" id="t_P444" def="P444" class="berth sig10"><tspan dy="3.5" style="-webkit-tap-highlight-color: rgba(0, 0, 0, 0);">P444</tspan></text><rect x="75" y="185.5" width="50" height="3" r="0" rx="0" ry="0" fill="#cccccc" stroke="#cccccc" style=""></rect><text x="100" y="183.5" text-anchor="middle" font="10px &quot;Arial&quot;" stroke="none" fill="#000000" style="" font-size="7px" class="sig7"><tspan dy="183.5" style=""></tspan></text><text x="100" y="191.5" text-anchor="middle" font="10px &quot;Arial&quot;" stroke="none" fill="#000000" style="" font-size="7px" class="sig7"><tspan dy="2" style="">1</tspan></text><text x="200" y="117.5" text-anchor="middle" font="10px &quot;Arial&quot;" stroke="none" fill="#000000" style="" font-size="8px" class="sig8"><tspan dy="2.5" style="">Crowhurst</tspan></text><rect x="175" y="135.5" width="50" height="3" r="0" rx="0" ry="0" fill="#cccccc" stroke="#cccccc" style=""></rect><text x="200" y="133.5" text-anchor="middle" font="10px &quot;Arial&quot;" stroke="none" fill="#000000" style="" font-size="7px" class="sig7"><tspan dy="2" style="">2</tspan></text><text x="200" y="141.5" text-anchor="middle" font="10px &quot;Arial&quot;" stroke="none" fill="#000000" style="" font-size="7px" class="sig7"><tspan dy="141.5" style=""></tspan></text><path fill="#ffffff" stroke="#000000" d="M180,142L220,142L220,158L180,158Z" id="b_P443" class="berth"></path><text x="200" y="150" text-anchor="middle" font="10px &quot;Arial&quot;" stroke="none" fill="#999999" font-size="10px" id="t_P443" def="P443" class="berth sig10"><tspan dy="3.5" style="-webkit-tap-highlight-color: rgba(0, 0, 0, 0);">P443</tspan></text><path fill="#ffffff" stroke="#000000" d="M180,167L220,167L220,183L180,183Z" id="b_P446" class="berth"></path><text x="200" y="175" text-anchor="middle" font="10px &quot;Arial&quot;" stroke="none" fill="#999999" font-size="10px" id="t_P446" def="P446" class="berth sig10"><tspan dy="3.5" style="-webkit-tap-highlight-color: rgba(0, 0, 0, 0);">P446</tspan></text><rect x="175" y="185.5" width="50" height="3" r="0" rx="0" ry="0" fill="#cccccc" stroke="#cccccc" style=""></rect><text x="200" y="183.5" text-anchor="middle" font="10px &quot;Arial&quot;" stroke="none" fill="#000000" style="" font-size="7px" class="sig7"><tspan dy="183.5" style=""></tspan></text><text x="200" y="191.5" text-anchor="middle" font="10px &quot;Arial&quot;" stroke="none" fill="#000000" style="" font-size="7px" class="sig7"><tspan dy="2" style="">1</tspan></text><text x="50" y="237.5" text-anchor="middle" font="10px &quot;Arial&quot;" stroke="none" fill="#000000" style="" font-size="8px" class="sig8"><tspan dy="2.5" style="">to Bexhill</tspan></text><text x="90" y="237.5" text-anchor="middle" font="10px &quot;Arial&quot;" stroke="none" fill="#000000" style="" font-size="8px" class="sig8"><tspan dy="2.5" style="">ZE</tspan></text><text x="275" y="205" text-anchor="middle" font="10px &quot;Arial&quot;" stroke="none" fill="#000000" style="" font-size="8px" class="sig8"><tspan dy="2.5" style="">St Leonards Depot</tspan></text><text x="300" y="117.5" text-anchor="middle" font="10px &quot;Arial&quot;" stroke="none" fill="#000000" style="" font-size="8px" class="sig8"><tspan dy="2.5" style="">West St Leonards</tspan></text><rect x="275" y="135.5" width="50" height="3" r="0" rx="0" ry="0" fill="#cccccc" stroke="#cccccc" style=""></rect><text x="300" y="133.5" text-anchor="middle" font="10px &quot;Arial&quot;" stroke="none" fill="#000000" style="" font-size="7px" class="sig7"><tspan dy="2" style="">2</tspan></text><text x="300" y="141.5" text-anchor="middle" font="10px &quot;Arial&quot;" stroke="none" fill="#000000" style="" font-size="7px" class="sig7"><tspan dy="141.5" style=""></tspan></text><rect x="275" y="185.5" width="50" height="3" r="0" rx="0" ry="0" fill="#cccccc" stroke="#cccccc" style=""></rect><text x="300" y="183.5" text-anchor="middle" font="10px &quot;Arial&quot;" stroke="none" fill="#000000" style="" font-size="7px" class="sig7"><tspan dy="183.5" style=""></tspan></text><text x="300" y="191.5" text-anchor="middle" font="10px &quot;Arial&quot;" stroke="none" fill="#000000" style="" font-size="7px" class="sig7"><tspan dy="2" style="">1</tspan></text><path fill="#ffffff" stroke="#000000" d="M280,142L320,142L320,158L280,158Z" id="b_P006" class="berth"></path><text x="300" y="150" text-anchor="middle" font="10px &quot;Arial&quot;" stroke="none" fill="#999999" font-size="10px" id="t_P006" def="P006" class="berth sig10"><tspan dy="3.5" style="-webkit-tap-highlight-color: rgba(0, 0, 0, 0);">P006</tspan></text><path fill="#ffffff" stroke="#000000" d="M280,167L320,167L320,183L280,183Z" id="b_P448" class="berth"></path><text x="300" y="175" text-anchor="middle" font="10px &quot;Arial&quot;" stroke="none" fill="#999999" font-size="10px" id="t_P448" def="P448" class="berth sig10"><tspan dy="3.5" style="-webkit-tap-highlight-color: rgba(0, 0, 0, 0);">P448</tspan></text><path fill="#ffffff" stroke="#000000" d="M417.5,192L457.5,192L457.5,208L417.5,208Z" id="b_PTA1" class="berth"></path><text x="437.5" y="200" text-anchor="middle" font="10px &quot;Arial&quot;" stroke="none" fill="#999999" font-size="10px" id="t_PTA1" def="PTA1" class="berth sig10"><tspan dy="3.5" style="-webkit-tap-highlight-color: rgba(0, 0, 0, 0);">PTA1</tspan></text><path fill="#ffffff" stroke="#000000" d="M417.5,217L457.5,217L457.5,233L417.5,233Z" id="b_N101" class="berth"></path><text x="437.5" y="225" text-anchor="middle" font="10px &quot;Arial&quot;" stroke="none" fill="#999999" font-size="10px" id="t_N101" def="N101" class="berth sig10"><tspan dy="3.5" style="-webkit-tap-highlight-color: rgba(0, 0, 0, 0);">N101</tspan></text><path fill="#ffff00" stroke="#000000" d="M417.5,242L457.5,242L457.5,258L417.5,258Z" id="b_P018" class="berth"></path><text x="437.5" y="250" text-anchor="middle" font="10px &quot;Arial&quot;" stroke="none" fill="#000000" font-size="10px" id="t_P018" def="P018" class="berth sig10"><tspan dy="3.5" style="-webkit-tap-highlight-color: rgba(0, 0, 0, 0);">2D66</tspan></text><text x="500" y="192.5" text-anchor="middle" font="10px &quot;Arial&quot;" stroke="none" fill="#000000" style="" font-size="8px" class="sig8"><tspan dy="-2.296875" style="">St Leonards</tspan><tspan dy="9.6" x="500" style="">Warrior Square</tspan></text><rect x="475" y="210.5" width="50" height="3" r="0" rx="0" ry="0" fill="#cccccc" stroke="#cccccc" style=""></rect><text x="500" y="208.5" text-anchor="middle" font="10px &quot;Arial&quot;" stroke="none" fill="#000000" style="" font-size="7px" class="sig7"><tspan dy="2" style="">2</tspan></text><text x="500" y="216.5" text-anchor="middle" font="10px &quot;Arial&quot;" stroke="none" fill="#000000" style="" font-size="7px" class="sig7"><tspan dy="216.5" style=""></tspan></text><path fill="#ffffff" stroke="#000000" d="M480,217L520,217L520,233L480,233Z" id="b_N004" class="berth"></path><text x="500" y="225" text-anchor="middle" font="10px &quot;Arial&quot;" stroke="none" fill="#999999" font-size="10px" id="t_N004" def="N004" class="berth sig10"><tspan dy="3.5" style="-webkit-tap-highlight-color: rgba(0, 0, 0, 0);">N004</tspan></text><path fill="#ffffff" stroke="#000000" d="M480,242L520,242L520,258L480,258Z" id="b_N074" class="berth"></path><text x="500" y="250" text-anchor="middle" font="10px &quot;Arial&quot;" stroke="none" fill="#999999" font-size="10px" id="t_N074" def="N074" class="berth sig10"><tspan dy="3.5" style="-webkit-tap-highlight-color: rgba(0, 0, 0, 0);">N074</tspan></text><path fill="#ffff00" stroke="#000000" d="M480,267L520,267L520,283L480,283Z" id="b_NTA2" class="berth"></path><text x="500" y="275" text-anchor="middle" font="10px &quot;Arial&quot;" stroke="none" fill="#000000" font-size="10px" id="t_NTA2" def="NTA2" class="berth sig10"><tspan dy="3.5" style="-webkit-tap-highlight-color: rgba(0, 0, 0, 0);">1H54</tspan></text><rect x="475" y="260.5" width="50" height="3" r="0" rx="0" ry="0" fill="#cccccc" stroke="#cccccc" style=""></rect><text x="500" y="258.5" text-anchor="middle" font="10px &quot;Arial&quot;" stroke="none" fill="#000000" style="" font-size="7px" class="sig7"><tspan dy="258.5" style=""></tspan></text><text x="500" y="266.5" text-anchor="middle" font="10px &quot;Arial&quot;" stroke="none" fill="#000000" style="" font-size="7px" class="sig7"><tspan dy="2" style="">1</tspan></text><path fill="#ffffff" stroke="#000000" d="M130,192L170,192L170,208L130,208Z" id="b_P061" class="berth"></path><text x="150" y="200" text-anchor="middle" font="10px &quot;Arial&quot;" stroke="none" fill="#999999" font-size="10px" id="t_P061" def="P061" class="berth sig10"><tspan dy="3.5" style="-webkit-tap-highlight-color: rgba(0, 0, 0, 0);">P061</tspan></text><path fill="#ffffff" stroke="#000000" d="M130,217L170,217L170,233L130,233Z" id="b_P041" class="berth"></path><text x="150" y="225" text-anchor="middle" font="10px &quot;Arial&quot;" stroke="none" fill="#999999" font-size="10px" id="t_P041" def="P041" class="berth sig10"><tspan dy="3.5" style="-webkit-tap-highlight-color: rgba(0, 0, 0, 0);">P041</tspan></text><path fill="#ffffff" stroke="#000000" d="M230,217L270,217L270,233L230,233Z" id="b_P010" class="berth"></path><text x="250" y="225" text-anchor="middle" font="10px &quot;Arial&quot;" stroke="none" fill="#999999" font-size="10px" id="t_P010" def="P010" class="berth sig10"><tspan dy="3.5" style="-webkit-tap-highlight-color: rgba(0, 0, 0, 0);">P010</tspan></text><path fill="#ffffff" stroke="#000000" d="M230,242L270,242L270,258L230,258Z" id="b_P042" class="berth"></path><text x="250" y="250" text-anchor="middle" font="10px &quot;Arial&quot;" stroke="none" fill="#999999" font-size="10px" id="t_P042" def="P042" class="berth sig10"><tspan dy="3.5" style="-webkit-tap-highlight-color: rgba(0, 0, 0, 0);">P042</tspan></text><text x="550" y="236.25" text-anchor="middle" font="10px &quot;Arial&quot;" stroke="none" fill="#000000" style="" font-size="8px" class="sig8"><tspan dy="2.5" style="">B</tspan></text><path fill="#888888" stroke="#888888" d="M47.5,370L52.5,375L47.5,380ZM52.5,395L47.5,400L52.5,405ZM547.5,370L552.5,375L547.5,380ZM552.5,395L547.5,400L552.5,405ZM50,375L550,375M50,400L550,400M450,350L525,350M475,325L525,325M425,375L450,350M450,350L475,325M526,320L526,330L524,330L524,320ZM526,345L526,355L524,355L524,345ZM200,350L350,350M201,345L201,355L199,355L199,345ZM351,345L351,355L349,355L349,345ZM125,375L137.5,400M150,400L162.5,375M200,375L225,350M325,350L350,375M200,425L350,425M201,420L201,430L199,430L199,420ZM351,420L351,430L349,430L349,420ZM325,425L350,400M200,450L350,450M201,445L201,455L199,455L199,445ZM350,450L375,425M375,425L400,400M200,475L325,475M201,470L201,480L199,480L199,470ZM325,475L350,450M400,400L425,375" style=""></path><text x="50" y="386.25" text-anchor="middle" font="10px &quot;Arial&quot;" stroke="none" fill="#000000" style="" font-size="8px" class="sig8"><tspan dy="2.5" style="">B</tspan></text><rect x="225" y="360.5" width="100" height="3" r="0" rx="0" ry="0" fill="#cccccc" stroke="#cccccc" style=""></rect><text x="275" y="358.5" text-anchor="middle" font="10px &quot;Arial&quot;" stroke="none" fill="#000000" style="" font-size="7px" class="sig7"><tspan dy="2" style="">4</tspan></text><text x="275" y="366.5" text-anchor="middle" font="10px &quot;Arial&quot;" stroke="none" fill="#000000" style="" font-size="7px" class="sig7"><tspan dy="2" style="">3</tspan></text><rect x="225" y="410.5" width="100" height="3" r="0" rx="0" ry="0" fill="#cccccc" stroke="#cccccc" style=""></rect><text x="275" y="408.5" text-anchor="middle" font="10px &quot;Arial&quot;" stroke="none" fill="#000000" style="" font-size="7px" class="sig7"><tspan dy="2" style="">2</tspan></text><text x="275" y="416.5" text-anchor="middle" font="10px &quot;Arial&quot;" stroke="none" fill="#000000" style="" font-size="7px" class="sig7"><tspan dy="2" style="">1</tspan></text><text x="275" y="330" text-anchor="middle" font="10px &quot;Arial&quot;" stroke="none" fill="#000000" style="" font-size="8px" class="sig8"><tspan dy="2.5" style="">Hastings</tspan></text><path fill="#ffffff" stroke="#000000" d="M230,417L270,417L270,433L230,433Z" id="b_N007" class="berth"></path><text x="250" y="425" text-anchor="middle" font="10px &quot;Arial&quot;" stroke="none" fill="#999999" font-size="10px" id="t_N007" def="N007" class="berth sig10"><tspan dy="3.5" style="-webkit-tap-highlight-color: rgba(0, 0, 0, 0);">N007</tspan></text><path fill="#ffffff" stroke="#000000" d="M230,392L270,392L270,408L230,408Z" id="b_N076" class="berth"></path><text x="250" y="400" text-anchor="middle" font="10px &quot;Arial&quot;" stroke="none" fill="#999999" font-size="10px" id="t_N076" def="N076" class="berth sig10"><tspan dy="3.5" style="-webkit-tap-highlight-color: rgba(0, 0, 0, 0);">N076</tspan></text><path fill="#ffffff" stroke="#000000" d="M280,392L320,392L320,408L280,408Z" id="b_N006" class="berth"></path><text x="300" y="400" text-anchor="middle" font="10px &quot;Arial&quot;" stroke="none" fill="#999999" font-size="10px" id="t_N006" def="N006" class="berth sig10"><tspan dy="3.5" style="-webkit-tap-highlight-color: rgba(0, 0, 0, 0);">N006</tspan></text><path fill="#ffff00" stroke="#000000" d="M230,367L270,367L270,383L230,383Z" id="b_N080" class="berth"></path><text x="250" y="375" text-anchor="middle" font="10px &quot;Arial&quot;" stroke="none" fill="#000000" font-size="10px" id="t_N080" def="N080" class="berth sig10"><tspan dy="3.5" style="-webkit-tap-highlight-color: rgba(0, 0, 0, 0);">1H56</tspan></text><path fill="#ffffff" stroke="#000000" d="M280,367L320,367L320,383L280,383Z" id="b_N010" class="berth"></path><text x="300" y="375" text-anchor="middle" font="10px &quot;Arial&quot;" stroke="none" fill="#999999" font-size="10px" id="t_N010" def="N010" class="berth sig10"><tspan dy="3.5" style="-webkit-tap-highlight-color: rgba(0, 0, 0, 0);">N010</tspan></text><path fill="#ffff00" stroke="#000000" d="M230,342L270,342L270,358L230,358Z" id="b_N079" class="berth"></path><text x="250" y="350" text-anchor="middle" font="10px &quot;Arial&quot;" stroke="none" fill="#000000" font-size="10px" id="t_N079" def="N079" class="berth sig10"><tspan dy="3.5" style="-webkit-tap-highlight-color: rgba(0, 0, 0, 0);">1H54</tspan></text><path fill="#ffffff" stroke="#000000" d="M280,342L320,342L320,358L280,358Z" id="b_N005" class="berth"></path><text x="300" y="350" text-anchor="middle" font="10px &quot;Arial&quot;" stroke="none" fill="#999999" font-size="10px" id="t_N005" def="N005" class="berth sig10"><tspan dy="3.5" style="-webkit-tap-highlight-color: rgba(0, 0, 0, 0);">N005</tspan></text><path fill="#ffffff" stroke="#000000" d="M430,392L470,392L470,408L430,408Z" id="b_N077" class="berth"></path><text x="450" y="400" text-anchor="middle" font="10px &quot;Arial&quot;" stroke="none" fill="#999999" font-size="10px" id="t_N077" def="N077" class="berth sig10"><tspan dy="3.5" style="-webkit-tap-highlight-color: rgba(0, 0, 0, 0);">N077</tspan></text><path fill="#ffff00" stroke="#000000" d="M467.5,342L507.5,342L507.5,358L467.5,358Z" id="b_N069" class="berth"></path><text x="487.5" y="350" text-anchor="middle" font="10px &quot;Arial&quot;" stroke="none" fill="#000000" font-size="10px" id="t_N069" def="N069" class="berth sig10"><tspan dy="3.5" style="-webkit-tap-highlight-color: rgba(0, 0, 0, 0);">5G52</tspan></text><path fill="#ffffff" stroke="#000000" d="M480,367L520,367L520,383L480,383Z" id="b_N011" class="berth"></path><text x="500" y="375" text-anchor="middle" font="10px &quot;Arial&quot;" stroke="none" fill="#999999" font-size="10px" id="t_N011" def="N011" class="berth sig10"><tspan dy="3.5" style="-webkit-tap-highlight-color: rgba(0, 0, 0, 0);">N011</tspan></text><path fill="#ffffff" stroke="#000000" d="M480,392L520,392L520,408L480,408Z" id="b_N083" class="berth"></path><text x="500" y="400" text-anchor="middle" font="10px &quot;Arial&quot;" stroke="none" fill="#999999" font-size="10px" id="t_N083" def="N083" class="berth sig10"><tspan dy="3.5" style="-webkit-tap-highlight-color: rgba(0, 0, 0, 0);">N083</tspan></text><text x="525" y="305" text-anchor="middle" font="10px &quot;Arial&quot;" stroke="none" fill="#000000" style="" font-size="8px" class="sig8"><tspan dy="2.5" style="">Park Sidings</tspan></text><text x="550" y="386.25" text-anchor="middle" font="10px &quot;Arial&quot;" stroke="none" fill="#000000" style="" font-size="8px" class="sig8"><tspan dy="2.5" style="">C</tspan></text><path fill="#888888" stroke="#888888" d="M47.5,520L52.5,525L47.5,530ZM52.5,545L47.5,550L52.5,555ZM442.5,545L437.5,550L442.5,555ZM447.5,545L452.5,550L447.5,555ZM50,525L400,525M50,550L450,550M275,550L300,525M401,520L401,530L399,530L399,520ZM300,525L325,550" style=""></path><text x="50" y="536.25" text-anchor="middle" font="10px &quot;Arial&quot;" stroke="none" fill="#000000" style="" font-size="8px" class="sig8"><tspan dy="2.5" style="">C</tspan></text><text x="175" y="505" text-anchor="middle" font="10px &quot;Arial&quot;" stroke="none" fill="#000000" style="" font-size="8px" class="sig8"><tspan dy="2.5" style="">Ore</tspan></text><rect x="75" y="510.5" width="150" height="3" r="0" rx="0" ry="0" fill="#cccccc" stroke="#cccccc" style=""></rect><text x="150" y="508.5" text-anchor="middle" font="10px &quot;Arial&quot;" stroke="none" fill="#000000" style="" font-size="7px" class="sig7"><tspan dy="2" style="">2</tspan></text><text x="150" y="516.5" text-anchor="middle" font="10px &quot;Arial&quot;" stroke="none" fill="#000000" style="" font-size="7px" class="sig7"><tspan dy="516.5" style=""></tspan></text><rect x="75" y="560.5" width="150" height="3" r="0" rx="0" ry="0" fill="#cccccc" stroke="#cccccc" style=""></rect><text x="150" y="558.5" text-anchor="middle" font="10px &quot;Arial&quot;" stroke="none" fill="#000000" style="" font-size="7px" class="sig7"><tspan dy="558.5" style=""></tspan></text><text x="150" y="566.5" text-anchor="middle" font="10px &quot;Arial&quot;" stroke="none" fill="#000000" style="" font-size="7px" class="sig7"><tspan dy="2" style="">1</tspan></text><path fill="#ffffff" stroke="#000000" d="M180,517L220,517L220,533L180,533Z" id="b_N012" class="berth"></path><text x="200" y="525" text-anchor="middle" font="10px &quot;Arial&quot;" stroke="none" fill="#999999" font-size="10px" id="t_N012" def="N012" class="berth sig10"><tspan dy="3.5" style="-webkit-tap-highlight-color: rgba(0, 0, 0, 0);">N012</tspan></text><path fill="#ffffff" stroke="#000000" d="M80,542L120,542L120,558L80,558Z" id="b_N084" class="berth"></path><text x="100" y="550" text-anchor="middle" font="10px &quot;Arial&quot;" stroke="none" fill="#999999" font-size="10px" id="t_N084" def="N084" class="berth sig10"><tspan dy="3.5" style="-webkit-tap-highlight-color: rgba(0, 0, 0, 0);">N084</tspan></text><path fill="#ffffff" stroke="#000000" d="M130,542L170,542L170,558L130,558Z" id="b_N055" class="berth"></path><text x="150" y="550" text-anchor="middle" font="10px &quot;Arial&quot;" stroke="none" fill="#999999" font-size="10px" id="t_N055" def="N055" class="berth sig10"><tspan dy="3.5" style="-webkit-tap-highlight-color: rgba(0, 0, 0, 0);">N055</tspan></text><path fill="#ffffff" stroke="#000000" d="M180,542L220,542L220,558L180,558Z" id="b_N014" class="berth"></path><text x="200" y="550" text-anchor="middle" font="10px &quot;Arial&quot;" stroke="none" fill="#999999" font-size="10px" id="t_N014" def="N014" class="berth sig10"><tspan dy="3.5" style="-webkit-tap-highlight-color: rgba(0, 0, 0, 0);">N014</tspan></text><path fill="#ffffff" stroke="#000000" d="M430,517L470,517L470,533L430,533Z" id="b_NTA1" class="berth"></path><text x="450" y="525" text-anchor="middle" font="10px &quot;Arial&quot;" stroke="none" fill="#999999" font-size="10px" id="t_NTA1" def="NTA1" class="berth sig10"><tspan dy="3.5" style="-webkit-tap-highlight-color: rgba(0, 0, 0, 0);">NTA1</tspan></text><text x="459.99999999999994" y="550" text-anchor="middle" font="10px &quot;Arial&quot;" stroke="none" fill="#000000" style="" font-size="8px" class="sig8"><tspan dy="2.5" style="">D</tspan></text><path fill="#888888" stroke="#888888" d="M60,645L65,650L60,655ZM52.5,645L47.5,650L52.5,655ZM590,645L585,650L590,655ZM597.5,645L602.5,650L597.5,655ZM50,650L200,650M200,650L225,625M225,625L500,625M501,620L501,630L499,630L499,620ZM400,625L425,650M475,625L500,650M401,645L401,655L399,655L399,645ZM400,650L600,650" style=""></path><text x="40" y="650" text-anchor="middle" font="10px &quot;Arial&quot;" stroke="none" fill="#000000" style="" font-size="8px" class="sig8"><tspan dy="2.5" style="">D</tspan></text><path fill="#ffffff" stroke="#000000" d="M80,642L120,642L120,658L80,658Z" id="b_RY02" class="berth"></path><text x="100" y="650" text-anchor="middle" font="10px &quot;Arial&quot;" stroke="none" fill="#999999" font-size="10px" id="t_RY02" def="RY02" class="berth sig10"><tspan dy="3.5" style="-webkit-tap-highlight-color: rgba(0, 0, 0, 0);">RY02</tspan></text><text x="150" y="680" text-anchor="middle" font="10px &quot;Arial&quot;" stroke="none" fill="#000000" style="" font-size="8px" class="sig8"><tspan dy="2.5" style="">Three Oaks</tspan></text><rect x="125" y="660.5" width="50" height="3" r="0" rx="0" ry="0" fill="#cccccc" stroke="#cccccc" style=""></rect><text x="150" y="658.5" text-anchor="middle" font="10px &quot;Arial&quot;" stroke="none" fill="#000000" style="" font-size="7px" class="sig7"><tspan dy="658.5" style=""></tspan></text><text x="150" y="666.5" text-anchor="middle" font="10px &quot;Arial&quot;" stroke="none" fill="#000000" style="" font-size="7px" class="sig7"><tspan dy="2" style="">1</tspan></text><text x="250" y="592.5" text-anchor="middle" font="10px &quot;Arial&quot;" stroke="none" fill="#000000" style="" font-size="8px" class="sig8"><tspan dy="2.5" style="">Doleham</tspan></text><rect x="225" y="610.5" width="50" height="3" r="0" rx="0" ry="0" fill="#cccccc" stroke="#cccccc" style=""></rect><text x="250" y="608.5" text-anchor="middle" font="10px &quot;Arial&quot;" stroke="none" fill="#000000" style="" font-size="7px" class="sig7"><tspan dy="2" style="">1</tspan></text><text x="250" y="616.5" text-anchor="middle" font="10px &quot;Arial&quot;" stroke="none" fill="#000000" style="" font-size="7px" class="sig7"><tspan dy="616.5" style=""></tspan></text><text x="325" y="592.5" text-anchor="middle" font="10px &quot;Arial&quot;" stroke="none" fill="#000000" style="" font-size="8px" class="sig8"><tspan dy="2.5" style="">Winchelsea</tspan></text><rect x="300" y="610.5" width="50" height="3" r="0" rx="0" ry="0" fill="#cccccc" stroke="#cccccc" style=""></rect><text x="325" y="608.5" text-anchor="middle" font="10px &quot;Arial&quot;" stroke="none" fill="#000000" style="" font-size="7px" class="sig7"><tspan dy="2" style="">1</tspan></text><text x="325" y="616.5" text-anchor="middle" font="10px &quot;Arial&quot;" stroke="none" fill="#000000" style="" font-size="7px" class="sig7"><tspan dy="616.5" style=""></tspan></text><text x="450" y="592.5" text-anchor="middle" font="10px &quot;Arial&quot;" stroke="none" fill="#000000" style="" font-size="8px" class="sig8"><tspan dy="2.5" style="">Rye</tspan></text><rect x="425" y="610.5" width="50" height="3" r="0" rx="0" ry="0" fill="#cccccc" stroke="#cccccc" style=""></rect><text x="450" y="608.5" text-anchor="middle" font="10px &quot;Arial&quot;" stroke="none" fill="#000000" style="" font-size="7px" class="sig7"><tspan dy="2" style="">1</tspan></text><text x="450" y="616.5" text-anchor="middle" font="10px &quot;Arial&quot;" stroke="none" fill="#000000" style="" font-size="7px" class="sig7"><tspan dy="616.5" style=""></tspan></text><rect x="425" y="660.5" width="50" height="3" r="0" rx="0" ry="0" fill="#cccccc" stroke="#cccccc" style=""></rect><text x="450" y="658.5" text-anchor="middle" font="10px &quot;Arial&quot;" stroke="none" fill="#000000" style="" font-size="7px" class="sig7"><tspan dy="658.5" style=""></tspan></text><text x="450" y="666.5" text-anchor="middle" font="10px &quot;Arial&quot;" stroke="none" fill="#000000" style="" font-size="7px" class="sig7"><tspan dy="2" style="">2</tspan></text><path fill="#ffff00" stroke="#000000" d="M355,617L395,617L395,633L355,633Z" id="b_RY27" class="berth"></path><text x="375" y="625" text-anchor="middle" font="10px &quot;Arial&quot;" stroke="none" fill="#000000" font-size="10px" id="t_RY27" def="RY27" class="berth sig10"><tspan dy="3.5" style="-webkit-tap-highlight-color: rgba(0, 0, 0, 0);">1G49</tspan></text><path fill="#ffffff" stroke="#000000" d="M430,617L470,617L470,633L430,633Z" id="b_RY25" class="berth"></path><text x="450" y="625" text-anchor="middle" font="10px &quot;Arial&quot;" stroke="none" fill="#999999" font-size="10px" id="t_RY25" def="RY25" class="berth sig10"><tspan dy="3.5" style="-webkit-tap-highlight-color: rgba(0, 0, 0, 0);">RY25</tspan></text><path fill="#ffffff" stroke="#000000" d="M430,642L470,642L470,658L430,658Z" id="b_RY05" class="berth"></path><text x="450" y="650" text-anchor="middle" font="10px &quot;Arial&quot;" stroke="none" fill="#999999" font-size="10px" id="t_RY05" def="RY05" class="berth sig10"><tspan dy="3.5" style="-webkit-tap-highlight-color: rgba(0, 0, 0, 0);">RY05</tspan></text><path fill="#ffffff" stroke="#000000" d="M530,642L570,642L570,658L530,658Z" id="b_RY04" class="berth"></path><text x="550" y="650" text-anchor="middle" font="10px &quot;Arial&quot;" stroke="none" fill="#999999" font-size="10px" id="t_RY04" def="RY04" class="berth sig10"><tspan dy="3.5" style="-webkit-tap-highlight-color: rgba(0, 0, 0, 0);">RY04</tspan></text><text x="600" y="636.25" text-anchor="middle" font="10px &quot;Arial&quot;" stroke="none" fill="#000000" style="" font-size="8px" class="sig8"><tspan dy="2.5" style="">to Ashford</tspan></text><text x="600" y="661.25" text-anchor="middle" font="10px &quot;Arial&quot;" stroke="none" fill="#000000" style="" font-size="8px" class="sig8"><tspan dy="2.5" style="">AD</tspan></text></svg>