<svg height="325" version="1.1" width="850" xmlns="http://www.w3.org/2000/svg" style="overflow: hidden; position: relative; left: -0.390625px;"><desc style="-webkit-tap-highlight-color: rgba(0, 0, 0, 0);">Created with Raphaël 2.1.2</desc><defs style="-webkit-tap-highlight-color: rgba(0, 0, 0, 0);"></defs><path fill="#888888" stroke="#888888" d="M50,75L800,75M50,100L800,100M481.25,75L493.75,100M500,100L512.5,75M525,75L537.5,50M537.5,50L656.25,50M593.75,50L606.25,75M656.25,50L666.25,75M512.5,100L525,125M525,125L650,125M650,125L662.5,100" style=""></path><text x="40" y="87.5" text-anchor="middle" font="10px &quot;Arial&quot;" stroke="none" fill="#000000" style="" font-size="8px" class="sig8"><tspan dy="2.5" style="">MO</tspan></text><path fill="#ffffff" stroke="#000000" d="M80,67L120,67L124,75L120,83L80,83Z" id="b_M187" class="berth"></path><text x="100" y="75" text-anchor="middle" font="10px &quot;Arial&quot;" stroke="none" fill="#999999" font-size="10px" id="t_M187" def="M187" class="berth sig10"><tspan dy="3.5" style="-webkit-tap-highlight-color: rgba(0, 0, 0, 0);">M187</tspan></text><path fill="#ffffff" stroke="#000000" d="M80,92L120,92L124,100L120,108L80,108Z" id="b_M185" class="berth"></path><text x="100" y="100" text-anchor="middle" font="10px &quot;Arial&quot;" stroke="none" fill="#999999" font-size="10px" id="t_M185" def="M185" class="berth sig10"><tspan dy="3.5" style="-webkit-tap-highlight-color: rgba(0, 0, 0, 0);">M185</tspan></text><path fill="#ffffff" stroke="#000000" d="M130,67L170,67L174,75L170,83L130,83Z" id="b_A105" class="berth"></path><text x="150" y="75" text-anchor="middle" font="10px &quot;Arial&quot;" stroke="none" fill="#999999" font-size="10px" id="t_A105" def="A105" class="berth sig10"><tspan dy="3.5" style="-webkit-tap-highlight-color: rgba(0, 0, 0, 0);">A105</tspan></text><path fill="#ffff00" stroke="#000000" d="M130,92L170,92L170,108L130,108L126,100Z" id="b_M190" class="berth"></path><text x="150" y="100" text-anchor="middle" font="10px &quot;Arial&quot;" stroke="none" fill="#000000" font-size="10px" id="t_M190" def="M190" class="berth sig10"><tspan dy="3.5" style="-webkit-tap-highlight-color: rgba(0, 0, 0, 0);">1V70</tspan></text><path fill="#ffff00" stroke="#000000" d="M180,92L220,92L220,108L180,108L176,100Z" id="b_A106" class="berth"></path><text x="200" y="100" text-anchor="middle" font="10px &quot;Arial&quot;" stroke="none" fill="#000000" font-size="10px" id="t_A106" def="A106" class="berth sig10"><tspan dy="3.5" style="-webkit-tap-highlight-color: rgba(0, 0, 0, 0);">1E23</tspan></text><path fill="#ffffff" stroke="#000000" d="M230,67L270,67L274,75L270,83L230,83Z" id="b_A109" class="berth"></path><text x="250" y="75" text-anchor="middle" font="10px &quot;Arial&quot;" stroke="none" fill="#999999" font-size="10px" id="t_A109" def="A109" class="berth sig10"><tspan dy="3.5" style="-webkit-tap-highlight-color: rgba(0, 0, 0, 0);">A109</tspan></text><path fill="#ffffff" stroke="#000000" d="M230,92L270,92L274,100L270,108L230,108Z" id="b_A111" class="berth"></path><text x="250" y="100" text-anchor="middle" font="10px &quot;Arial&quot;" stroke="none" fill="#999999" font-size="10px" id="t_A111" def="A111" class="berth sig10"><tspan dy="3.5" style="-webkit-tap-highlight-color: rgba(0, 0, 0, 0);">A111</tspan></text><path fill="#ffffff" stroke="#000000" d="M280,92L320,92L320,108L280,108L276,100Z" id="b_A108" class="berth"></path><text x="300" y="100" text-anchor="middle" font="10px &quot;Arial&quot;" stroke="none" fill="#999999" font-size="10px" id="t_A108" def="A108" class="berth sig10"><tspan dy="3.5" style="-webkit-tap-highlight-color: rgba(0, 0, 0, 0);">A108</tspan></text><path fill="#ffffff" stroke="#000000" d="M330,67L370,67L374,75L370,83L330,83Z" id="b_A113" class="berth"></path><text x="350" y="75" text-anchor="middle" font="10px &quot;Arial&quot;" stroke="none" fill="#999999" font-size="10px" id="t_A113" def="A113" class="berth sig10"><tspan dy="3.5" style="-webkit-tap-highlight-color: rgba(0, 0, 0, 0);">A113</tspan></text><path fill="#ffffff" stroke="#000000" d="M330,92L370,92L374,100L370,108L330,108Z" id="b_A115" class="berth"></path><text x="350" y="100" text-anchor="middle" font="10px &quot;Arial&quot;" stroke="none" fill="#999999" font-size="10px" id="t_A115" def="A115" class="berth sig10"><tspan dy="3.5" style="-webkit-tap-highlight-color: rgba(0, 0, 0, 0);">A115</tspan></text><path fill="#ffffff" stroke="#000000" d="M380,67L420,67L420,83L380,83L376,75Z" id="b_A114" class="berth"></path><text x="400" y="75" text-anchor="middle" font="10px &quot;Arial&quot;" stroke="none" fill="#999999" font-size="10px" id="t_A114" def="A114" class="berth sig10"><tspan dy="3.5" style="-webkit-tap-highlight-color: rgba(0, 0, 0, 0);">A114</tspan></text><path fill="#ffffff" stroke="#000000" d="M380,92L420,92L420,108L380,108L376,100Z" id="b_A112" class="berth"></path><text x="400" y="100" text-anchor="middle" font="10px &quot;Arial&quot;" stroke="none" fill="#999999" font-size="10px" id="t_A112" def="A112" class="berth sig10"><tspan dy="3.5" style="-webkit-tap-highlight-color: rgba(0, 0, 0, 0);">A112</tspan></text><path fill="#ffffff" stroke="#000000" d="M430,67L470,67L474,75L470,83L430,83Z" id="b_A117" class="berth"></path><text x="450" y="75" text-anchor="middle" font="10px &quot;Arial&quot;" stroke="none" fill="#999999" font-size="10px" id="t_A117" def="A117" class="berth sig10"><tspan dy="3.5" style="-webkit-tap-highlight-color: rgba(0, 0, 0, 0);">A117</tspan></text><path fill="#ffffff" stroke="#000000" d="M430,92L470,92L474,100L470,108L430,108Z" id="b_A119" class="berth"></path><text x="450" y="100" text-anchor="middle" font="10px &quot;Arial&quot;" stroke="none" fill="#999999" font-size="10px" id="t_A119" def="A119" class="berth sig10"><tspan dy="3.5" style="-webkit-tap-highlight-color: rgba(0, 0, 0, 0);">A119</tspan></text><path fill="#ffffff" stroke="#000000" d="M542.5,42L582.5,42L586.5,50L582.5,58L542.5,58Z" id="b_A121" class="berth"></path><text x="562.5" y="50" text-anchor="middle" font="10px &quot;Arial&quot;" stroke="none" fill="#999999" font-size="10px" id="t_A121" def="A121" class="berth sig10"><tspan dy="3.5" style="-webkit-tap-highlight-color: rgba(0, 0, 0, 0);">A121</tspan></text><path fill="#ffffff" stroke="#000000" d="M542.5,92L582.5,92L582.5,108L542.5,108L538.5,100Z" id="b_A118" class="berth"></path><text x="562.5" y="100" text-anchor="middle" font="10px &quot;Arial&quot;" stroke="none" fill="#999999" font-size="10px" id="t_A118" def="A118" class="berth sig10"><tspan dy="3.5" style="-webkit-tap-highlight-color: rgba(0, 0, 0, 0);">A118</tspan></text><path fill="#ffffff" stroke="#000000" d="M542.5,117L582.5,117L582.5,133L542.5,133L538.5,125Z" id="b_A116" class="berth"></path><text x="562.5" y="125" text-anchor="middle" font="10px &quot;Arial&quot;" stroke="none" fill="#999999" font-size="10px" id="t_A116" def="A116" class="berth sig10"><tspan dy="3.5" style="-webkit-tap-highlight-color: rgba(0, 0, 0, 0);">A116</tspan></text><path fill="#ffffff" stroke="#000000" d="M605,42L645,42L649,50L645,58L605,58Z" id="b_A301" class="berth"></path><text x="625" y="50" text-anchor="middle" font="10px &quot;Arial&quot;" stroke="none" fill="#999999" font-size="10px" id="t_A301" def="A301" class="berth sig10"><tspan dy="3.5" style="-webkit-tap-highlight-color: rgba(0, 0, 0, 0);">A301</tspan></text><path fill="#ffffff" stroke="#000000" d="M592.5,92L632.5,92L636.5,100L632.5,108L592.5,108Z" id="b_A131" class="berth"></path><text x="612.5" y="100" text-anchor="middle" font="10px &quot;Arial&quot;" stroke="none" fill="#999999" font-size="10px" id="t_A131" def="A131" class="berth sig10"><tspan dy="3.5" style="-webkit-tap-highlight-color: rgba(0, 0, 0, 0);">A131</tspan></text><path fill="#ffffff" stroke="#000000" d="M592.5,117L632.5,117L636.5,125L632.5,133L592.5,133Z" id="b_A123" class="berth"></path><text x="612.5" y="125" text-anchor="middle" font="10px &quot;Arial&quot;" stroke="none" fill="#999999" font-size="10px" id="t_A123" def="A123" class="berth sig10"><tspan dy="3.5" style="-webkit-tap-highlight-color: rgba(0, 0, 0, 0);">A123</tspan></text><text x="700" y="42.5" text-anchor="middle" font="10px &quot;Arial&quot;" stroke="none" fill="#000000" style="" font-size="8px" class="sig8"><tspan dy="2.5" style="">Alnmouth</tspan></text><rect x="675" y="60.5" width="50" height="3" r="0" rx="0" ry="0" fill="#cccccc" stroke="#cccccc" style=""></rect><text x="700" y="58.5" text-anchor="middle" font="10px &quot;Arial&quot;" stroke="none" fill="#000000" style="" font-size="7px" class="sig7"><tspan dy="58.5" style=""></tspan></text><text x="700" y="66.5" text-anchor="middle" font="10px &quot;Arial&quot;" stroke="none" fill="#000000" style="" font-size="7px" class="sig7"><tspan dy="2" style="">2</tspan></text><rect x="675" y="110.5" width="50" height="3" r="0" rx="0" ry="0" fill="#cccccc" stroke="#cccccc" style=""></rect><text x="700" y="108.5" text-anchor="middle" font="10px &quot;Arial&quot;" stroke="none" fill="#000000" style="" font-size="7px" class="sig7"><tspan dy="2" style="">1</tspan></text><text x="700" y="116.5" text-anchor="middle" font="10px &quot;Arial&quot;" stroke="none" fill="#000000" style="" font-size="7px" class="sig7"><tspan dy="116.5" style=""></tspan></text><path fill="#ffffff" stroke="#000000" d="M680,67L720,67L720,83L680,83L676,75Z" id="b_A126" class="berth"></path><text x="700" y="75" text-anchor="middle" font="10px &quot;Arial&quot;" stroke="none" fill="#999999" font-size="10px" id="t_A126" def="A126" class="berth sig10"><tspan dy="3.5" style="-webkit-tap-highlight-color: rgba(0, 0, 0, 0);">A126</tspan></text><path fill="#ffffff" stroke="#000000" d="M680,92L720,92L720,108L680,108L676,100Z" id="b_A124" class="berth"></path><text x="700" y="100" text-anchor="middle" font="10px &quot;Arial&quot;" stroke="none" fill="#999999" font-size="10px" id="t_A124" def="A124" class="berth sig10"><tspan dy="3.5" style="-webkit-tap-highlight-color: rgba(0, 0, 0, 0);">A124</tspan></text><path fill="#ffffff" stroke="#000000" d="M730,67L770,67L774,75L770,83L730,83Z" id="b_A125" class="berth"></path><text x="750" y="75" text-anchor="middle" font="10px &quot;Arial&quot;" stroke="none" fill="#999999" font-size="10px" id="t_A125" def="A125" class="berth sig10"><tspan dy="3.5" style="-webkit-tap-highlight-color: rgba(0, 0, 0, 0);">A125</tspan></text><text x="810" y="87.5" text-anchor="middle" font="10px &quot;Arial&quot;" stroke="none" fill="#000000" style="" font-size="8px" class="sig8"><tspan dy="2.5" style="">A</tspan></text><path fill="#888888" stroke="#888888" d="M50,175L800,175M50,200L800,200M331.25,175L343.75,200M350,200L362.5,175" style=""></path><text x="40" y="187.5" text-anchor="middle" font="10px &quot;Arial&quot;" stroke="none" fill="#000000" style="" font-size="8px" class="sig8"><tspan dy="2.5" style="">A</tspan></text><path fill="#ffffff" stroke="#000000" d="M105,167L145,167L145,183L105,183L101,175Z" id="b_A130" class="berth"></path><text x="125" y="175" text-anchor="middle" font="10px &quot;Arial&quot;" stroke="none" fill="#999999" font-size="10px" id="t_A130" def="A130" class="berth sig10"><tspan dy="3.5" style="-webkit-tap-highlight-color: rgba(0, 0, 0, 0);">A130</tspan></text><path fill="#ffffff" stroke="#000000" d="M80,192L120,192L120,208L80,208L76,200Z" id="b_A128" class="berth"></path><text x="100" y="200" text-anchor="middle" font="10px &quot;Arial&quot;" stroke="none" fill="#999999" font-size="10px" id="t_A128" def="A128" class="berth sig10"><tspan dy="3.5" style="-webkit-tap-highlight-color: rgba(0, 0, 0, 0);">A128</tspan></text><path fill="#ffffff" stroke="#000000" d="M155,167L195,167L199,175L195,183L155,183Z" id="b_A129" class="berth"></path><text x="175" y="175" text-anchor="middle" font="10px &quot;Arial&quot;" stroke="none" fill="#999999" font-size="10px" id="t_A129" def="A129" class="berth sig10"><tspan dy="3.5" style="-webkit-tap-highlight-color: rgba(0, 0, 0, 0);">A129</tspan></text><path fill="#ffffff" stroke="#000000" d="M180,192L220,192L220,208L180,208L176,200Z" id="b_A132" class="berth"></path><text x="200" y="200" text-anchor="middle" font="10px &quot;Arial&quot;" stroke="none" fill="#999999" font-size="10px" id="t_A132" def="A132" class="berth sig10"><tspan dy="3.5" style="-webkit-tap-highlight-color: rgba(0, 0, 0, 0);">A132</tspan></text><path fill="#ffffff" stroke="#000000" d="M205,167L245,167L249,175L245,183L205,183Z" id="b_A133" class="berth"></path><text x="225" y="175" text-anchor="middle" font="10px &quot;Arial&quot;" stroke="none" fill="#999999" font-size="10px" id="t_A133" def="A133" class="berth sig10"><tspan dy="3.5" style="-webkit-tap-highlight-color: rgba(0, 0, 0, 0);">A133</tspan></text><path fill="#ffffff" stroke="#000000" d="M255,167L295,167L299,175L295,183L255,183Z" id="b_A137" class="berth"></path><text x="275" y="175" text-anchor="middle" font="10px &quot;Arial&quot;" stroke="none" fill="#999999" font-size="10px" id="t_A137" def="A137" class="berth sig10"><tspan dy="3.5" style="-webkit-tap-highlight-color: rgba(0, 0, 0, 0);">A137</tspan></text><path fill="#ffffff" stroke="#000000" d="M255,192L295,192L299,200L295,208L255,208Z" id="b_A139" class="berth"></path><text x="275" y="200" text-anchor="middle" font="10px &quot;Arial&quot;" stroke="none" fill="#999999" font-size="10px" id="t_A139" def="A139" class="berth sig10"><tspan dy="3.5" style="-webkit-tap-highlight-color: rgba(0, 0, 0, 0);">A139</tspan></text><path fill="#ffffff" stroke="#000000" d="M405,167L445,167L449,175L445,183L405,183Z" id="b_A141" class="berth"></path><text x="425" y="175" text-anchor="middle" font="10px &quot;Arial&quot;" stroke="none" fill="#999999" font-size="10px" id="t_A141" def="A141" class="berth sig10"><tspan dy="3.5" style="-webkit-tap-highlight-color: rgba(0, 0, 0, 0);">A141</tspan></text><path fill="#ffffff" stroke="#000000" d="M380,192L420,192L420,208L380,208L376,200Z" id="b_A134" class="berth"></path><text x="400" y="200" text-anchor="middle" font="10px &quot;Arial&quot;" stroke="none" fill="#999999" font-size="10px" id="t_A134" def="A134" class="berth sig10"><tspan dy="3.5" style="-webkit-tap-highlight-color: rgba(0, 0, 0, 0);">A134</tspan></text><path fill="#ffffff" stroke="#000000" d="M430,192L470,192L474,200L470,208L430,208Z" id="b_A143" class="berth"></path><text x="450" y="200" text-anchor="middle" font="10px &quot;Arial&quot;" stroke="none" fill="#999999" font-size="10px" id="t_A143" def="A143" class="berth sig10"><tspan dy="3.5" style="-webkit-tap-highlight-color: rgba(0, 0, 0, 0);">A143</tspan></text><path fill="#ffffff" stroke="#000000" d="M480,167L520,167L524,175L520,183L480,183Z" id="b_A145" class="berth"></path><text x="500" y="175" text-anchor="middle" font="10px &quot;Arial&quot;" stroke="none" fill="#999999" font-size="10px" id="t_A145" def="A145" class="berth sig10"><tspan dy="3.5" style="-webkit-tap-highlight-color: rgba(0, 0, 0, 0);">A145</tspan></text><path fill="#ffffff" stroke="#000000" d="M480,192L520,192L520,208L480,208L476,200Z" id="b_A138" class="berth"></path><text x="500" y="200" text-anchor="middle" font="10px &quot;Arial&quot;" stroke="none" fill="#999999" font-size="10px" id="t_A138" def="A138" class="berth sig10"><tspan dy="3.5" style="-webkit-tap-highlight-color: rgba(0, 0, 0, 0);">A138</tspan></text><path fill="#ffffff" stroke="#000000" d="M555,167L595,167L599,175L595,183L555,183Z" id="b_A149" class="berth"></path><text x="575" y="175" text-anchor="middle" font="10px &quot;Arial&quot;" stroke="none" fill="#999999" font-size="10px" id="t_A149" def="A149" class="berth sig10"><tspan dy="3.5" style="-webkit-tap-highlight-color: rgba(0, 0, 0, 0);">A149</tspan></text><path fill="#ffffff" stroke="#000000" d="M530,192L570,192L570,208L530,208L526,200Z" id="b_A142" class="berth"></path><text x="550" y="200" text-anchor="middle" font="10px &quot;Arial&quot;" stroke="none" fill="#999999" font-size="10px" id="t_A142" def="A142" class="berth sig10"><tspan dy="3.5" style="-webkit-tap-highlight-color: rgba(0, 0, 0, 0);">A142</tspan></text><path fill="#ffffff" stroke="#000000" d="M580,192L620,192L624,200L620,208L580,208Z" id="b_A151" class="berth"></path><text x="600" y="200" text-anchor="middle" font="10px &quot;Arial&quot;" stroke="none" fill="#999999" font-size="10px" id="t_A151" def="A151" class="berth sig10"><tspan dy="3.5" style="-webkit-tap-highlight-color: rgba(0, 0, 0, 0);">A151</tspan></text><path fill="#ffffff" stroke="#000000" d="M630,167L670,167L674,175L670,183L630,183Z" id="b_A153" class="berth"></path><text x="650" y="175" text-anchor="middle" font="10px &quot;Arial&quot;" stroke="none" fill="#999999" font-size="10px" id="t_A153" def="A153" class="berth sig10"><tspan dy="3.5" style="-webkit-tap-highlight-color: rgba(0, 0, 0, 0);">A153</tspan></text><path fill="#ffffff" stroke="#000000" d="M630,192L670,192L670,208L630,208L626,200Z" id="b_A146" class="berth"></path><text x="650" y="200" text-anchor="middle" font="10px &quot;Arial&quot;" stroke="none" fill="#999999" font-size="10px" id="t_A146" def="A146" class="berth sig10"><tspan dy="3.5" style="-webkit-tap-highlight-color: rgba(0, 0, 0, 0);">A146</tspan></text><text x="810" y="187.5" text-anchor="middle" font="10px &quot;Arial&quot;" stroke="none" fill="#000000" style="" font-size="8px" class="sig8"><tspan dy="2.5" style="">B</tspan></text><path fill="#888888" stroke="#888888" d="M50,275L450,275M50,300L450,300M181.25,275L193.75,300M200,300L212.5,275" style=""></path><text x="40" y="287.5" text-anchor="middle" font="10px &quot;Arial&quot;" stroke="none" fill="#000000" style="" font-size="8px" class="sig8"><tspan dy="2.5" style="">B</tspan></text><path fill="#ffffff" stroke="#000000" d="M80,292L120,292L120,308L80,308L76,300Z" id="b_A150" class="berth"></path><text x="100" y="300" text-anchor="middle" font="10px &quot;Arial&quot;" stroke="none" fill="#999999" font-size="10px" id="t_A150" def="A150" class="berth sig10"><tspan dy="3.5" style="-webkit-tap-highlight-color: rgba(0, 0, 0, 0);">A150</tspan></text><path fill="#ffffff" stroke="#000000" d="M130,267L170,267L174,275L170,283L130,283Z" id="b_A157" class="berth"></path><text x="150" y="275" text-anchor="middle" font="10px &quot;Arial&quot;" stroke="none" fill="#999999" font-size="10px" id="t_A157" def="A157" class="berth sig10"><tspan dy="3.5" style="-webkit-tap-highlight-color: rgba(0, 0, 0, 0);">A157</tspan></text><path fill="#ffffff" stroke="#000000" d="M130,292L170,292L170,308L130,308L126,300Z" id="b_A159" class="berth"></path><text x="150" y="300" text-anchor="middle" font="10px &quot;Arial&quot;" stroke="none" fill="#999999" font-size="10px" id="t_A159" def="A159" class="berth sig10"><tspan dy="3.5" style="-webkit-tap-highlight-color: rgba(0, 0, 0, 0);">A159</tspan></text><text x="275" y="242.5" text-anchor="middle" font="10px &quot;Arial&quot;" stroke="none" fill="#000000" style="" font-size="8px" class="sig8"><tspan dy="2.5" style="">Chathill</tspan></text><rect x="225" y="260.5" width="100" height="3" r="0" rx="0" ry="0" fill="#cccccc" stroke="#cccccc" style=""></rect><text x="275" y="258.5" text-anchor="middle" font="10px &quot;Arial&quot;" stroke="none" fill="#000000" style="" font-size="7px" class="sig7"><tspan dy="258.5" style=""></tspan></text><text x="275" y="266.5" text-anchor="middle" font="10px &quot;Arial&quot;" stroke="none" fill="#000000" style="" font-size="7px" class="sig7"><tspan dy="2" style="">2</tspan></text><rect x="225" y="310.5" width="100" height="3" r="0" rx="0" ry="0" fill="#cccccc" stroke="#cccccc" style=""></rect><text x="275" y="308.5" text-anchor="middle" font="10px &quot;Arial&quot;" stroke="none" fill="#000000" style="" font-size="7px" class="sig7"><tspan dy="2" style="">1</tspan></text><text x="275" y="316.5" text-anchor="middle" font="10px &quot;Arial&quot;" stroke="none" fill="#000000" style="" font-size="7px" class="sig7"><tspan dy="316.5" style=""></tspan></text><path fill="#ffffff" stroke="#000000" d="M230,292L270,292L270,308L230,308L226,300Z" id="b_A154" class="berth"></path><text x="250" y="300" text-anchor="middle" font="10px &quot;Arial&quot;" stroke="none" fill="#999999" font-size="10px" id="t_A154" def="A154" class="berth sig10"><tspan dy="3.5" style="-webkit-tap-highlight-color: rgba(0, 0, 0, 0);">A154</tspan></text><path fill="#ffffff" stroke="#000000" d="M280,267L320,267L324,275L320,283L280,283Z" id="b_A161" class="berth"></path><text x="300" y="275" text-anchor="middle" font="10px &quot;Arial&quot;" stroke="none" fill="#999999" font-size="10px" id="t_A161" def="A161" class="berth sig10"><tspan dy="3.5" style="-webkit-tap-highlight-color: rgba(0, 0, 0, 0);">A161</tspan></text><path fill="#ffffff" stroke="#000000" d="M280,292L320,292L320,308L280,308L276,300Z" id="b_A163" class="berth"></path><text x="300" y="300" text-anchor="middle" font="10px &quot;Arial&quot;" stroke="none" fill="#999999" font-size="10px" id="t_A163" def="A163" class="berth sig10"><tspan dy="3.5" style="-webkit-tap-highlight-color: rgba(0, 0, 0, 0);">A163</tspan></text><path fill="#ffffff" stroke="#000000" d="M330,292L370,292L370,308L330,308L326,300Z" id="b_A158" class="berth"></path><text x="350" y="300" text-anchor="middle" font="10px &quot;Arial&quot;" stroke="none" fill="#999999" font-size="10px" id="t_A158" def="A158" class="berth sig10"><tspan dy="3.5" style="-webkit-tap-highlight-color: rgba(0, 0, 0, 0);">A158</tspan></text><path fill="#ffff00" stroke="#000000" d="M380,267L420,267L424,275L420,283L380,283Z" id="b_T101" class="berth"></path><text x="400" y="275" text-anchor="middle" font="10px &quot;Arial&quot;" stroke="none" fill="#000000" font-size="10px" id="t_T101" def="T101" class="berth sig10"><tspan dy="3.5" style="-webkit-tap-highlight-color: rgba(0, 0, 0, 0);">1S45</tspan></text><path fill="#ffffff" stroke="#000000" d="M380,292L420,292L420,308L380,308L376,300Z" id="b_T103" class="berth"></path><text x="400" y="300" text-anchor="middle" font="10px &quot;Arial&quot;" stroke="none" fill="#999999" font-size="10px" id="t_T103" def="T103" class="berth sig10"><tspan dy="3.5" style="-webkit-tap-highlight-color: rgba(0, 0, 0, 0);">T103</tspan></text><text x="459.99999999999994" y="287.5" text-anchor="middle" font="10px &quot;Arial&quot;" stroke="none" fill="#000000" style="" font-size="8px" class="sig8"><tspan dy="2.5" style="">TW</tspan></text></svg>