<svg height="325" version="1.1" width="700" xmlns="http://www.w3.org/2000/svg" style="overflow: hidden; position: relative; left: -0.390625px;"><desc style="-webkit-tap-highlight-color: rgba(0, 0, 0, 0);">Created with Raphaël 2.1.2</desc><defs style="-webkit-tap-highlight-color: rgba(0, 0, 0, 0);"></defs><path fill="#888888" stroke="#888888" d="M50,75L650,75M50,100L650,100M187.5,100L200,75M237.5,75L275,150M212.5,100L250,175M275,150L650,150M250,175L650,175M381.25,112.5L406.25,75M381.25,112.5L381.25,137.5M381.25,137.5L406.25,175M416.25,112.5L425,100M416.25,112.5L416.25,137.5M416.25,137.5L425,150" style=""></path><text x="40" y="87.5" text-anchor="middle" font="10px &quot;Arial&quot;" stroke="none" fill="#000000" style="" font-size="8px" class="sig8"><tspan dy="2.5" style="">to Bottesford</tspan></text><path fill="#ffffff" stroke="#000000" d="M80,92L120,92L124,100L120,108L80,108Z" style="" id="b_BDLS" class="berth"></path><text x="100" y="100" text-anchor="middle" font="10px &quot;Arial&quot;" stroke="none" fill="#999999" style="" font-size="10px" id="t_BDLS" def="BDLS" class="berth sig10"><tspan dy="3.5" style="">BDLS</tspan></text><text x="100" y="130" text-anchor="middle" font="10px &quot;Arial&quot;" stroke="none" fill="#000000" style="" font-size="8px" class="sig8"><tspan dy="2.5" style="">Last Sent</tspan></text><path fill="#ffffff" stroke="#000000" d="M130,67L170,67L174,75L170,83L130,83Z" id="b_3426" class="berth"></path><text x="150" y="75" text-anchor="middle" font="10px &quot;Arial&quot;" stroke="none" fill="#999999" font-size="10px" id="t_3426" def="3426" class="berth sig10"><tspan dy="3.5" style="-webkit-tap-highlight-color: rgba(0, 0, 0, 0);">3426</tspan></text><path fill="#ffffff" stroke="#000000" d="M130,92L170,92L170,108L130,108Z" id="b_3429" class="berth"></path><text x="150" y="100" text-anchor="middle" font="10px &quot;Arial&quot;" stroke="none" fill="#999999" font-size="10px" id="t_3429" def="3429" class="berth sig10"><tspan dy="3.5" style="-webkit-tap-highlight-color: rgba(0, 0, 0, 0);">3429</tspan></text><text x="225" y="55" text-anchor="middle" font="10px &quot;Arial&quot;" stroke="none" fill="#000000" style="" font-size="8px" class="sig8"><tspan dy="2.5" style="">Allington West Jn</tspan></text><path fill="#ffffff" stroke="#000000" d="M292.5,67L332.5,67L336.5,75L332.5,83L292.5,83Z" id="b_3432" class="berth"></path><text x="312.5" y="75" text-anchor="middle" font="10px &quot;Arial&quot;" stroke="none" fill="#999999" font-size="10px" id="t_3432" def="3432" class="berth sig10"><tspan dy="3.5" style="-webkit-tap-highlight-color: rgba(0, 0, 0, 0);">3432</tspan></text><path fill="#ffffff" stroke="#000000" d="M330,92L370,92L370,108L330,108L326,100Z" id="b_3431" class="berth"></path><text x="350" y="100" text-anchor="middle" font="10px &quot;Arial&quot;" stroke="none" fill="#999999" font-size="10px" id="t_3431" def="3431" class="berth sig10"><tspan dy="3.5" style="-webkit-tap-highlight-color: rgba(0, 0, 0, 0);">3431</tspan></text><path fill="#ffffff" stroke="#000000" d="M292.5,142L332.5,142L336.5,150L332.5,158L292.5,158Z" id="b_3424" class="berth"></path><text x="312.5" y="150" text-anchor="middle" font="10px &quot;Arial&quot;" stroke="none" fill="#999999" font-size="10px" id="t_3424" def="3424" class="berth sig10"><tspan dy="3.5" style="-webkit-tap-highlight-color: rgba(0, 0, 0, 0);">3424</tspan></text><path fill="#ffffff" stroke="#000000" d="M330,167L370,167L370,183L330,183L326,175Z" id="b_3427" class="berth"></path><text x="350" y="175" text-anchor="middle" font="10px &quot;Arial&quot;" stroke="none" fill="#999999" font-size="10px" id="t_3427" def="3427" class="berth sig10"><tspan dy="3.5" style="-webkit-tap-highlight-color: rgba(0, 0, 0, 0);">3427</tspan></text><text x="425" y="55" text-anchor="middle" font="10px &quot;Arial&quot;" stroke="none" fill="#000000" style="" font-size="8px" class="sig8"><tspan dy="2.5" style="">Allington North Jn</tspan></text><text x="425" y="192.5" text-anchor="middle" font="10px &quot;Arial&quot;" stroke="none" fill="#000000" style="" font-size="8px" class="sig8"><tspan dy="2.5" style="">Allington East Jn</tspan></text><path fill="#ffffff" stroke="#000000" d="M480,67L520,67L524,75L520,83L480,83Z" id="b_3433" class="berth"></path><text x="500" y="75" text-anchor="middle" font="10px &quot;Arial&quot;" stroke="none" fill="#999999" font-size="10px" id="t_3433" def="3433" class="berth sig10"><tspan dy="3.5" style="-webkit-tap-highlight-color: rgba(0, 0, 0, 0);">3433</tspan></text><path fill="#ffffff" stroke="#000000" d="M480,92L520,92L520,108L480,108L476,100Z" id="b_3434" class="berth"></path><text x="500" y="100" text-anchor="middle" font="10px &quot;Arial&quot;" stroke="none" fill="#999999" font-size="10px" id="t_3434" def="3434" class="berth sig10"><tspan dy="3.5" style="-webkit-tap-highlight-color: rgba(0, 0, 0, 0);">3434</tspan></text><text x="550" y="125" text-anchor="middle" font="10px &quot;Arial&quot;" stroke="none" fill="#000000" style="" font-size="8px" class="sig8"><tspan dy="2.5" style="">Approaching</tspan></text><path fill="#ffffff" stroke="#000000" d="M480,117L520,117L520,133L480,133Z" id="b_D050" class="berth"></path><text x="500" y="125" text-anchor="middle" font="10px &quot;Arial&quot;" stroke="none" fill="#999999" font-size="10px" id="t_D050" def="D050" class="berth sig10"><tspan dy="3.5" style="-webkit-tap-highlight-color: rgba(0, 0, 0, 0);">D050</tspan></text><path fill="#ffffff" stroke="#000000" d="M480,142L520,142L524,150L520,158L480,158Z" id="b_3422" class="berth"></path><text x="500" y="150" text-anchor="middle" font="10px &quot;Arial&quot;" stroke="none" fill="#999999" font-size="10px" id="t_3422" def="3422" class="berth sig10"><tspan dy="3.5" style="-webkit-tap-highlight-color: rgba(0, 0, 0, 0);">3422</tspan></text><path fill="#ffffff" stroke="#000000" d="M480,167L520,167L520,183L480,183L476,175Z" id="b_3425" class="berth"></path><text x="500" y="175" text-anchor="middle" font="10px &quot;Arial&quot;" stroke="none" fill="#999999" font-size="10px" id="t_3425" def="3425" class="berth sig10"><tspan dy="3.5" style="-webkit-tap-highlight-color: rgba(0, 0, 0, 0);">3425</tspan></text><path fill="#ffffff" stroke="#000000" d="M530,67L570,67L574,75L570,83L530,83Z" id="b_3435" class="berth"></path><text x="550" y="75" text-anchor="middle" font="10px &quot;Arial&quot;" stroke="none" fill="#999999" font-size="10px" id="t_3435" def="3435" class="berth sig10"><tspan dy="3.5" style="-webkit-tap-highlight-color: rgba(0, 0, 0, 0);">3435</tspan></text><path fill="#ffffff" stroke="#000000" d="M530,167L570,167L570,183L530,183L526,175Z" id="b_3423" class="berth"></path><text x="550" y="175" text-anchor="middle" font="10px &quot;Arial&quot;" stroke="none" fill="#999999" font-size="10px" id="t_3423" def="3423" class="berth sig10"><tspan dy="3.5" style="-webkit-tap-highlight-color: rgba(0, 0, 0, 0);">3423</tspan></text><path fill="#ffffff" stroke="#000000" d="M580,92L620,92L620,108L580,108L576,100Z" id="b_3438" class="berth"></path><text x="600" y="100" text-anchor="middle" font="10px &quot;Arial&quot;" stroke="none" fill="#999999" font-size="10px" id="t_3438" def="3438" class="berth sig10"><tspan dy="3.5" style="-webkit-tap-highlight-color: rgba(0, 0, 0, 0);">3438</tspan></text><path fill="#ffffff" stroke="#000000" d="M580,167L620,167L620,183L580,183L576,175Z" id="b_3421" class="berth"></path><text x="600" y="175" text-anchor="middle" font="10px &quot;Arial&quot;" stroke="none" fill="#999999" font-size="10px" id="t_3421" def="3421" class="berth sig10"><tspan dy="3.5" style="-webkit-tap-highlight-color: rgba(0, 0, 0, 0);">3421</tspan></text><text x="660" y="87.5" text-anchor="middle" font="10px &quot;Arial&quot;" stroke="none" fill="#000000" style="" font-size="8px" class="sig8"><tspan dy="2.5" style="">to Ancaster</tspan></text><text x="660" y="162.5" text-anchor="middle" font="10px &quot;Arial&quot;" stroke="none" fill="#000000" style="" font-size="8px" class="sig8"><tspan dy="2.5" style="">to Grantham</tspan></text><path fill="#ffffff" stroke="#000000" d="M580,192L620,192L620,208L580,208Z" id="b_BDLS" class="berth"></path><text x="600" y="200" text-anchor="middle" font="10px &quot;Arial&quot;" stroke="none" fill="#999999" font-size="10px" id="t_BDLS" def="BDLS" class="berth sig10"><tspan dy="3.5" style="-webkit-tap-highlight-color: rgba(0, 0, 0, 0);">BDLS</tspan></text><text x="650" y="200" text-anchor="middle" font="10px &quot;Arial&quot;" stroke="none" fill="#000000" style="" font-size="8px" class="sig8"><tspan dy="2.5" style="">Last Sent</tspan></text></svg>