<svg height="550" version="1.1" width="750" xmlns="http://www.w3.org/2000/svg" style="overflow: hidden; position: relative; left: -0.390625px;"><desc style="-webkit-tap-highlight-color: rgba(0, 0, 0, 0);">Created with Raphaël 2.1.2</desc><defs style="-webkit-tap-highlight-color: rgba(0, 0, 0, 0);"></defs><path fill="#888888" stroke="#888888" d="M50,75L700,75M150,75L162.5,100M162.5,100L700,100M250,100L262.5,125M262.5,125L287.5,125M450,75L462.5,100M537.5,50L550,75M450,50L550,50M551,45L551,55L549,55L549,45ZM618.75,100L631.25,75" style=""></path><text x="40" y="55" text-anchor="middle" font="10px &quot;Arial&quot;" stroke="none" fill="#000000" style="" font-size="8px" class="sig8"><tspan dy="2.5" style="">to Dorchester</tspan></text><text x="40" y="75" text-anchor="middle" font="10px &quot;Arial&quot;" stroke="none" fill="#000000" style="" font-size="8px" class="sig8"><tspan dy="2.5" style="">ZB</tspan></text><path fill="#ffffff" stroke="#000000" d="M80,67L120,67L120,83L80,83Z" id="b_DR64" class="berth"></path><text x="100" y="75" text-anchor="middle" font="10px &quot;Arial&quot;" stroke="none" fill="#999999" font-size="10px" id="t_DR64" def="DR64" class="berth sig10"><tspan dy="3.5" style="-webkit-tap-highlight-color: rgba(0, 0, 0, 0);">DR64</tspan></text><text x="100" y="112.5" text-anchor="middle" font="10px &quot;Arial&quot;" stroke="none" fill="#000000" style="" font-size="8px" class="sig8"><tspan dy="2.5" style="">Last sent</tspan></text><path fill="#ffffff" stroke="#000000" d="M80,92L120,92L120,108L80,108Z" id="b_LSDR" class="berth"></path><text x="100" y="100" text-anchor="middle" font="10px &quot;Arial&quot;" stroke="none" fill="#999999" font-size="10px" id="t_LSDR" def="LSDR" class="berth sig10"><tspan dy="3.5" style="-webkit-tap-highlight-color: rgba(0, 0, 0, 0);">LSDR</tspan></text><text x="200" y="55" text-anchor="middle" font="10px &quot;Arial&quot;" stroke="none" fill="#000000" style="" font-size="8px" class="sig8"><tspan dy="2.5" style="">Moreton</tspan></text><rect x="175" y="60.5" width="50" height="3" r="0" rx="0" ry="0" fill="#cccccc" stroke="#cccccc" style=""></rect><text x="200" y="58.5" text-anchor="middle" font="10px &quot;Arial&quot;" stroke="none" fill="#000000" style="" font-size="7px" class="sig7"><tspan dy="58.5" style=""></tspan></text><text x="200" y="66.5" text-anchor="middle" font="10px &quot;Arial&quot;" stroke="none" fill="#000000" style="" font-size="7px" class="sig7"><tspan dy="66.5" style=""></tspan></text><rect x="175" y="110.5" width="50" height="3" r="0" rx="0" ry="0" fill="#cccccc" stroke="#cccccc" style=""></rect><text x="200" y="108.5" text-anchor="middle" font="10px &quot;Arial&quot;" stroke="none" fill="#000000" style="" font-size="7px" class="sig7"><tspan dy="108.5" style=""></tspan></text><text x="200" y="116.5" text-anchor="middle" font="10px &quot;Arial&quot;" stroke="none" fill="#000000" style="" font-size="7px" class="sig7"><tspan dy="116.5" style=""></tspan></text><path fill="#ffffff" stroke="#000000" d="M180,67L220,67L220,83L180,83Z" id="b_DR62" class="berth"></path><text x="200" y="75" text-anchor="middle" font="10px &quot;Arial&quot;" stroke="none" fill="#999999" font-size="10px" id="t_DR62" def="DR62" class="berth sig10"><tspan dy="3.5" style="-webkit-tap-highlight-color: rgba(0, 0, 0, 0);">DR62</tspan></text><path fill="#ffffff" stroke="#000000" d="M180,92L220,92L220,108L180,108Z" id="b_DR63" class="berth"></path><text x="200" y="100" text-anchor="middle" font="10px &quot;Arial&quot;" stroke="none" fill="#999999" font-size="10px" id="t_DR63" def="DR63" class="berth sig10"><tspan dy="3.5" style="-webkit-tap-highlight-color: rgba(0, 0, 0, 0);">DR63</tspan></text><path fill="#ffffff" stroke="#000000" d="M280,67L320,67L320,83L280,83Z" id="b_5268" class="berth"></path><text x="300" y="75" text-anchor="middle" font="10px &quot;Arial&quot;" stroke="none" fill="#999999" font-size="10px" id="t_5268" def="5268" class="berth sig10"><tspan dy="3.5" style="-webkit-tap-highlight-color: rgba(0, 0, 0, 0);">5268</tspan></text><path fill="#ffffff" stroke="#000000" d="M280,92L320,92L320,108L280,108Z" id="b_5271" class="berth"></path><text x="300" y="100" text-anchor="middle" font="10px &quot;Arial&quot;" stroke="none" fill="#999999" font-size="10px" id="t_5271" def="5271" class="berth sig10"><tspan dy="3.5" style="-webkit-tap-highlight-color: rgba(0, 0, 0, 0);">5271</tspan></text><path fill="#ffffff" stroke="#000000" d="M330,67L370,67L370,83L330,83Z" id="b_5264" class="berth"></path><text x="350" y="75" text-anchor="middle" font="10px &quot;Arial&quot;" stroke="none" fill="#999999" font-size="10px" id="t_5264" def="5264" class="berth sig10"><tspan dy="3.5" style="-webkit-tap-highlight-color: rgba(0, 0, 0, 0);">5264</tspan></text><path fill="#ffffff" stroke="#000000" d="M330,92L370,92L370,108L330,108Z" id="b_5269" class="berth"></path><text x="350" y="100" text-anchor="middle" font="10px &quot;Arial&quot;" stroke="none" fill="#999999" font-size="10px" id="t_5269" def="5269" class="berth sig10"><tspan dy="3.5" style="-webkit-tap-highlight-color: rgba(0, 0, 0, 0);">5269</tspan></text><path fill="#ffffff" stroke="#000000" d="M380,92L420,92L420,108L380,108Z" id="b_5267" class="berth"></path><text x="400" y="100" text-anchor="middle" font="10px &quot;Arial&quot;" stroke="none" fill="#999999" font-size="10px" id="t_5267" def="5267" class="berth sig10"><tspan dy="3.5" style="-webkit-tap-highlight-color: rgba(0, 0, 0, 0);">5267</tspan></text><text x="500" y="30" text-anchor="middle" font="10px &quot;Arial&quot;" stroke="none" fill="#000000" style="" font-size="8px" class="sig8"><tspan dy="2.5" style="">Wool</tspan></text><rect x="475" y="60.5" width="50" height="3" r="0" rx="0" ry="0" fill="#cccccc" stroke="#cccccc" style=""></rect><text x="500" y="58.5" text-anchor="middle" font="10px &quot;Arial&quot;" stroke="none" fill="#000000" style="" font-size="7px" class="sig7"><tspan dy="58.5" style=""></tspan></text><text x="500" y="66.5" text-anchor="middle" font="10px &quot;Arial&quot;" stroke="none" fill="#000000" style="" font-size="7px" class="sig7"><tspan dy="66.5" style=""></tspan></text><rect x="475" y="110.5" width="50" height="3" r="0" rx="0" ry="0" fill="#cccccc" stroke="#cccccc" style=""></rect><text x="500" y="108.5" text-anchor="middle" font="10px &quot;Arial&quot;" stroke="none" fill="#000000" style="" font-size="7px" class="sig7"><tspan dy="108.5" style=""></tspan></text><text x="500" y="116.5" text-anchor="middle" font="10px &quot;Arial&quot;" stroke="none" fill="#000000" style="" font-size="7px" class="sig7"><tspan dy="116.5" style=""></tspan></text><path fill="#ffffff" stroke="#000000" d="M480,67L520,67L520,83L480,83Z" style="" id="b_5263" class="berth"></path><text x="500" y="75" text-anchor="middle" font="10px &quot;Arial&quot;" stroke="none" fill="#999999" style="" font-size="10px" id="t_5263" def="5263" class="berth sig10"><tspan dy="3.5" style="">5263</tspan></text><path fill="#ffffff" stroke="#000000" d="M480,92L520,92L520,108L480,108Z" style="" id="b_5261" class="berth"></path><text x="500" y="100" text-anchor="middle" font="10px &quot;Arial&quot;" stroke="none" fill="#999999" style="" font-size="10px" id="t_5261" def="5261" class="berth sig10"><tspan dy="3.5" style="">5261</tspan></text><path fill="#ffffff" stroke="#000000" d="M567.5,67L607.5,67L607.5,83L567.5,83Z" id="b_5256" class="berth"></path><text x="587.5" y="75" text-anchor="middle" font="10px &quot;Arial&quot;" stroke="none" fill="#999999" font-size="10px" id="t_5256" def="5256" class="berth sig10"><tspan dy="3.5" style="-webkit-tap-highlight-color: rgba(0, 0, 0, 0);">5256</tspan></text><path fill="#ffffff" stroke="#000000" d="M567.5,92L607.5,92L607.5,108L567.5,108Z" id="b_5258" class="berth"></path><text x="587.5" y="100" text-anchor="middle" font="10px &quot;Arial&quot;" stroke="none" fill="#999999" font-size="10px" id="t_5258" def="5258" class="berth sig10"><tspan dy="3.5" style="-webkit-tap-highlight-color: rgba(0, 0, 0, 0);">5258</tspan></text><path fill="#ffffff" stroke="#000000" d="M642.5,67L682.5,67L682.5,83L642.5,83Z" id="b_5252" class="berth"></path><text x="662.5" y="75" text-anchor="middle" font="10px &quot;Arial&quot;" stroke="none" fill="#999999" font-size="10px" id="t_5252" def="5252" class="berth sig10"><tspan dy="3.5" style="-webkit-tap-highlight-color: rgba(0, 0, 0, 0);">5252</tspan></text><path fill="#ffffff" stroke="#000000" d="M642.5,92L682.5,92L682.5,108L642.5,108Z" id="b_5253" class="berth"></path><text x="662.5" y="100" text-anchor="middle" font="10px &quot;Arial&quot;" stroke="none" fill="#999999" font-size="10px" id="t_5253" def="5253" class="berth sig10"><tspan dy="3.5" style="-webkit-tap-highlight-color: rgba(0, 0, 0, 0);">5253</tspan></text><text x="710" y="87.5" text-anchor="middle" font="10px &quot;Arial&quot;" stroke="none" fill="#000000" style="" font-size="8px" class="sig8"><tspan dy="2.5" style="">A</tspan></text><path fill="#888888" stroke="#888888" d="M50,200L700,200M50,225L700,225M100,275L112.5,250M112.5,250L200,250M200,250L212.5,225M337.5,225L350,200M487.5,225L500,200M400,175L500,175M500,175L512.5,200M500,225L512.5,250M512.5,250L550,250M550,175L637.5,175M637.5,175L650,200" style=""></path><text x="40" y="180" text-anchor="middle" font="10px &quot;Arial&quot;" stroke="none" fill="#000000" style="" font-size="8px" class="sig8"><tspan dy="2.5" style="">to Dorchester</tspan></text><text x="40" y="212.5" text-anchor="middle" font="10px &quot;Arial&quot;" stroke="none" fill="#000000" style="" font-size="8px" class="sig8"><tspan dy="2.5" style="">A</tspan></text><path fill="#ffffff" stroke="#000000" d="M80,192L120,192L120,208L80,208Z" id="b_5250" class="berth"></path><text x="100" y="200" text-anchor="middle" font="10px &quot;Arial&quot;" stroke="none" fill="#999999" font-size="10px" id="t_5250" def="5250" class="berth sig10"><tspan dy="3.5" style="-webkit-tap-highlight-color: rgba(0, 0, 0, 0);">5250</tspan></text><path fill="#ffffff" stroke="#000000" d="M105,217L145,217L145,233L105,233Z" id="b_5251" class="berth"></path><text x="125" y="225" text-anchor="middle" font="10px &quot;Arial&quot;" stroke="none" fill="#999999" font-size="10px" id="t_5251" def="5251" class="berth sig10"><tspan dy="3.5" style="-webkit-tap-highlight-color: rgba(0, 0, 0, 0);">5251</tspan></text><path fill="#ffffff" stroke="#000000" d="M130,192L170,192L170,208L130,208Z" id="b_5248" class="berth"></path><text x="150" y="200" text-anchor="middle" font="10px &quot;Arial&quot;" stroke="none" fill="#999999" font-size="10px" id="t_5248" def="5248" class="berth sig10"><tspan dy="3.5" style="-webkit-tap-highlight-color: rgba(0, 0, 0, 0);">5248</tspan></text><path fill="#ffffff" stroke="#000000" d="M155,217L195,217L195,233L155,233Z" id="b_5249" class="berth"></path><text x="175" y="225" text-anchor="middle" font="10px &quot;Arial&quot;" stroke="none" fill="#999999" font-size="10px" id="t_5249" def="5249" class="berth sig10"><tspan dy="3.5" style="-webkit-tap-highlight-color: rgba(0, 0, 0, 0);">5249</tspan></text><path fill="#ffffff" stroke="#000000" d="M130,242L170,242L170,258L130,258Z" id="b_5750" class="berth"></path><text x="150" y="250" text-anchor="middle" font="10px &quot;Arial&quot;" stroke="none" fill="#999999" font-size="10px" id="t_5750" def="5750" class="berth sig10"><tspan dy="3.5" style="-webkit-tap-highlight-color: rgba(0, 0, 0, 0);">5750</tspan></text><text x="100" y="280" text-anchor="middle" font="10px &quot;Arial&quot;" stroke="none" fill="#000000" style="" font-size="8px" class="sig8"><tspan dy="2.5" style="">to Corfe Castle</tspan></text><path fill="#ffffff" stroke="#000000" d="M80,292L120,292L120,308L80,308Z" id="b_LSCE" class="berth"></path><text x="100" y="300" text-anchor="middle" font="10px &quot;Arial&quot;" stroke="none" fill="#999999" font-size="10px" id="t_LSCE" def="LSCE" class="berth sig10"><tspan dy="3.5" style="-webkit-tap-highlight-color: rgba(0, 0, 0, 0);">LSCE</tspan></text><text x="150" y="305" text-anchor="middle" font="10px &quot;Arial&quot;" stroke="none" fill="#000000" style="" font-size="8px" class="sig8"><tspan dy="2.5" style="">Last sent</tspan></text><path fill="#ffffff" stroke="#000000" d="M230,217L270,217L270,233L230,233Z" id="b_5247" class="berth"></path><text x="250" y="225" text-anchor="middle" font="10px &quot;Arial&quot;" stroke="none" fill="#999999" font-size="10px" id="t_5247" def="5247" class="berth sig10"><tspan dy="3.5" style="-webkit-tap-highlight-color: rgba(0, 0, 0, 0);">5247</tspan></text><path fill="#ffffff" stroke="#000000" d="M280,192L320,192L320,208L280,208Z" id="b_5244" class="berth"></path><text x="300" y="200" text-anchor="middle" font="10px &quot;Arial&quot;" stroke="none" fill="#999999" font-size="10px" id="t_5244" def="5244" class="berth sig10"><tspan dy="3.5" style="-webkit-tap-highlight-color: rgba(0, 0, 0, 0);">5244</tspan></text><path fill="#ffffff" stroke="#000000" d="M280,217L320,217L320,233L280,233Z" id="b_5246" class="berth"></path><text x="300" y="225" text-anchor="middle" font="10px &quot;Arial&quot;" stroke="none" fill="#999999" font-size="10px" id="t_5246" def="5246" class="berth sig10"><tspan dy="3.5" style="-webkit-tap-highlight-color: rgba(0, 0, 0, 0);">5246</tspan></text><text x="425" y="155" text-anchor="middle" font="10px &quot;Arial&quot;" stroke="none" fill="#000000" style="" font-size="8px" class="sig8"><tspan dy="2.5" style="">Wareham</tspan></text><rect x="375" y="185.5" width="100" height="3" r="0" rx="0" ry="0" fill="#cccccc" stroke="#cccccc" style=""></rect><text x="425" y="183.5" text-anchor="middle" font="10px &quot;Arial&quot;" stroke="none" fill="#000000" style="" font-size="7px" class="sig7"><tspan dy="183.5" style=""></tspan></text><text x="425" y="191.5" text-anchor="middle" font="10px &quot;Arial&quot;" stroke="none" fill="#000000" style="" font-size="7px" class="sig7"><tspan dy="191.5" style=""></tspan></text><rect x="375" y="235.5" width="100" height="3" r="0" rx="0" ry="0" fill="#cccccc" stroke="#cccccc" style=""></rect><text x="425" y="233.5" text-anchor="middle" font="10px &quot;Arial&quot;" stroke="none" fill="#000000" style="" font-size="7px" class="sig7"><tspan dy="233.5" style=""></tspan></text><text x="425" y="241.5" text-anchor="middle" font="10px &quot;Arial&quot;" stroke="none" fill="#000000" style="" font-size="7px" class="sig7"><tspan dy="241.5" style=""></tspan></text><path fill="#ffffff" stroke="#000000" d="M380,192L420,192L420,208L380,208L376,200Z" style="" id="b_5263" class="berth"></path><text x="400" y="200" text-anchor="middle" font="10px &quot;Arial&quot;" stroke="none" fill="#999999" style="" font-size="10px" id="t_5263" def="5263" class="berth sig10"><tspan dy="3.5" style="">5263</tspan></text><path fill="#ffffff" stroke="#000000" d="M380,217L420,217L420,233L380,233L376,225Z" style="" id="b_5261" class="berth"></path><text x="400" y="225" text-anchor="middle" font="10px &quot;Arial&quot;" stroke="none" fill="#999999" style="" font-size="10px" id="t_5261" def="5261" class="berth sig10"><tspan dy="3.5" style="">5261</tspan></text><path fill="#ffffff" stroke="#000000" d="M430,192L470,192L474,200L470,208L430,208Z" id="b_5236" class="berth"></path><text x="450" y="200" text-anchor="middle" font="10px &quot;Arial&quot;" stroke="none" fill="#999999" font-size="10px" id="t_5236" def="5236" class="berth sig10"><tspan dy="3.5" style="-webkit-tap-highlight-color: rgba(0, 0, 0, 0);">5236</tspan></text><path fill="#ffffff" stroke="#000000" d="M430,217L470,217L474,225L470,233L430,233Z" id="b_5238" class="berth"></path><text x="450" y="225" text-anchor="middle" font="10px &quot;Arial&quot;" stroke="none" fill="#999999" font-size="10px" id="t_5238" def="5238" class="berth sig10"><tspan dy="3.5" style="-webkit-tap-highlight-color: rgba(0, 0, 0, 0);">5238</tspan></text><path fill="#ffffff" stroke="#000000" d="M530,192L570,192L570,208L530,208Z" id="b_5228" class="berth"></path><text x="550" y="200" text-anchor="middle" font="10px &quot;Arial&quot;" stroke="none" fill="#999999" font-size="10px" id="t_5228" def="5228" class="berth sig10"><tspan dy="3.5" style="-webkit-tap-highlight-color: rgba(0, 0, 0, 0);">5228</tspan></text><path fill="#ffffff" stroke="#000000" d="M530,217L570,217L570,233L530,233Z" id="b_5231" class="berth"></path><text x="550" y="225" text-anchor="middle" font="10px &quot;Arial&quot;" stroke="none" fill="#999999" font-size="10px" id="t_5231" def="5231" class="berth sig10"><tspan dy="3.5" style="-webkit-tap-highlight-color: rgba(0, 0, 0, 0);">5231</tspan></text><text x="600" y="155" text-anchor="middle" font="10px &quot;Arial&quot;" stroke="none" fill="#000000" style="" font-size="8px" class="sig8"><tspan dy="2.5" style="">Holton Heath</tspan></text><rect x="575" y="185.5" width="50" height="3" r="0" rx="0" ry="0" fill="#cccccc" stroke="#cccccc" style=""></rect><text x="600" y="183.5" text-anchor="middle" font="10px &quot;Arial&quot;" stroke="none" fill="#000000" style="" font-size="7px" class="sig7"><tspan dy="183.5" style=""></tspan></text><text x="600" y="191.5" text-anchor="middle" font="10px &quot;Arial&quot;" stroke="none" fill="#000000" style="" font-size="7px" class="sig7"><tspan dy="191.5" style=""></tspan></text><rect x="575" y="235.5" width="50" height="3" r="0" rx="0" ry="0" fill="#cccccc" stroke="#cccccc" style=""></rect><text x="600" y="233.5" text-anchor="middle" font="10px &quot;Arial&quot;" stroke="none" fill="#000000" style="" font-size="7px" class="sig7"><tspan dy="233.5" style=""></tspan></text><text x="600" y="241.5" text-anchor="middle" font="10px &quot;Arial&quot;" stroke="none" fill="#000000" style="" font-size="7px" class="sig7"><tspan dy="241.5" style=""></tspan></text><path fill="#ffffff" stroke="#000000" d="M580,192L620,192L620,208L580,208Z" id="b_5263" class="berth"></path><text x="600" y="200" text-anchor="middle" font="10px &quot;Arial&quot;" stroke="none" fill="#999999" font-size="10px" id="t_5263" def="5263" class="berth sig10"><tspan dy="3.5" style="-webkit-tap-highlight-color: rgba(0, 0, 0, 0);">5263</tspan></text><path fill="#ffffff" stroke="#000000" d="M580,217L620,217L620,233L580,233Z" id="b_5261" class="berth"></path><text x="600" y="225" text-anchor="middle" font="10px &quot;Arial&quot;" stroke="none" fill="#999999" font-size="10px" id="t_5261" def="5261" class="berth sig10"><tspan dy="3.5" style="-webkit-tap-highlight-color: rgba(0, 0, 0, 0);">5261</tspan></text><text x="710" y="212.5" text-anchor="middle" font="10px &quot;Arial&quot;" stroke="none" fill="#000000" style="" font-size="8px" class="sig8"><tspan dy="2.5" style="">B</tspan></text><path fill="#888888" stroke="#888888" d="M50,375L700,375M50,400L700,400M100,450L187.5,450M187.5,450L200,425M200,425L287.5,425M287.5,425L300,400M312.5,400L325,375M425,400L437.5,375M450,375L475,325M475,325L625,325M625,325L637.5,350M462.5,350L662.5,350M650,350L662.5,375M675,375L687.5,400M662.5,350L675,325" style=""></path><text x="40" y="387.5" text-anchor="middle" font="10px &quot;Arial&quot;" stroke="none" fill="#000000" style="" font-size="8px" class="sig8"><tspan dy="2.5" style="">B</tspan></text><path fill="#ffffff" stroke="#000000" d="M80,367L120,367L120,383L80,383Z" id="b_5224" class="berth"></path><text x="100" y="375" text-anchor="middle" font="10px &quot;Arial&quot;" stroke="none" fill="#999999" font-size="10px" id="t_5224" def="5224" class="berth sig10"><tspan dy="3.5" style="-webkit-tap-highlight-color: rgba(0, 0, 0, 0);">5224</tspan></text><path fill="#ffffff" stroke="#000000" d="M80,392L120,392L120,408L80,408Z" id="b_5227" class="berth"></path><text x="100" y="400" text-anchor="middle" font="10px &quot;Arial&quot;" stroke="none" fill="#999999" font-size="10px" id="t_5227" def="5227" class="berth sig10"><tspan dy="3.5" style="-webkit-tap-highlight-color: rgba(0, 0, 0, 0);">5227</tspan></text><path fill="#ffffff" stroke="#000000" d="M130,392L170,392L170,408L130,408Z" id="b_5225" class="berth"></path><text x="150" y="400" text-anchor="middle" font="10px &quot;Arial&quot;" stroke="none" fill="#999999" font-size="10px" id="t_5225" def="5225" class="berth sig10"><tspan dy="3.5" style="-webkit-tap-highlight-color: rgba(0, 0, 0, 0);">5225</tspan></text><path fill="#ffffff" stroke="#000000" d="M180,367L220,367L220,383L180,383Z" id="b_5222" class="berth"></path><text x="200" y="375" text-anchor="middle" font="10px &quot;Arial&quot;" stroke="none" fill="#999999" font-size="10px" id="t_5222" def="5222" class="berth sig10"><tspan dy="3.5" style="-webkit-tap-highlight-color: rgba(0, 0, 0, 0);">5222</tspan></text><text x="250" y="330" text-anchor="middle" font="10px &quot;Arial&quot;" stroke="none" fill="#000000" style="" font-size="8px" class="sig8"><tspan dy="2.5" style="">Holton Heath</tspan></text><rect x="225" y="360.5" width="50" height="3" r="0" rx="0" ry="0" fill="#cccccc" stroke="#cccccc" style=""></rect><text x="250" y="358.5" text-anchor="middle" font="10px &quot;Arial&quot;" stroke="none" fill="#000000" style="" font-size="7px" class="sig7"><tspan dy="358.5" style=""></tspan></text><text x="250" y="366.5" text-anchor="middle" font="10px &quot;Arial&quot;" stroke="none" fill="#000000" style="" font-size="7px" class="sig7"><tspan dy="366.5" style=""></tspan></text><rect x="225" y="410.5" width="50" height="3" r="0" rx="0" ry="0" fill="#cccccc" stroke="#cccccc" style=""></rect><text x="250" y="408.5" text-anchor="middle" font="10px &quot;Arial&quot;" stroke="none" fill="#000000" style="" font-size="7px" class="sig7"><tspan dy="408.5" style=""></tspan></text><text x="250" y="416.5" text-anchor="middle" font="10px &quot;Arial&quot;" stroke="none" fill="#000000" style="" font-size="7px" class="sig7"><tspan dy="416.5" style=""></tspan></text><path fill="#ffffff" stroke="#000000" d="M130,392L170,392L170,408L130,408Z" id="b_5221" class="berth"></path><text x="150" y="400" text-anchor="middle" font="10px &quot;Arial&quot;" stroke="none" fill="#999999" font-size="10px" id="t_5221" def="5221" class="berth sig10"><tspan dy="3.5" style="-webkit-tap-highlight-color: rgba(0, 0, 0, 0);">5221</tspan></text><path fill="#ffffff" stroke="#000000" d="M130,442L170,442L170,458L130,458Z" id="b_5744" class="berth"></path><text x="150" y="450" text-anchor="middle" font="10px &quot;Arial&quot;" stroke="none" fill="#999999" font-size="10px" id="t_5744" def="5744" class="berth sig10"><tspan dy="3.5" style="-webkit-tap-highlight-color: rgba(0, 0, 0, 0);">5744</tspan></text><path fill="#ffffff" stroke="#000000" d="M230,417L270,417L270,433L230,433Z" id="b_5740" class="berth"></path><text x="250" y="425" text-anchor="middle" font="10px &quot;Arial&quot;" stroke="none" fill="#999999" font-size="10px" id="t_5740" def="5740" class="berth sig10"><tspan dy="3.5" style="-webkit-tap-highlight-color: rgba(0, 0, 0, 0);">5740</tspan></text><path fill="#ffffff" stroke="#000000" d="M330,367L370,367L370,383L330,383Z" id="b_5216" class="berth"></path><text x="350" y="375" text-anchor="middle" font="10px &quot;Arial&quot;" stroke="none" fill="#999999" font-size="10px" id="t_5216" def="5216" class="berth sig10"><tspan dy="3.5" style="-webkit-tap-highlight-color: rgba(0, 0, 0, 0);">5216</tspan></text><path fill="#ffffff" stroke="#000000" d="M330,392L370,392L370,408L330,408Z" id="b_5215" class="berth"></path><text x="350" y="400" text-anchor="middle" font="10px &quot;Arial&quot;" stroke="none" fill="#999999" font-size="10px" id="t_5215" def="5215" class="berth sig10"><tspan dy="3.5" style="-webkit-tap-highlight-color: rgba(0, 0, 0, 0);">5215</tspan></text><path fill="#ffffff" stroke="#000000" d="M380,367L420,367L420,383L380,383Z" id="b_5212" class="berth"></path><text x="400" y="375" text-anchor="middle" font="10px &quot;Arial&quot;" stroke="none" fill="#999999" font-size="10px" id="t_5212" def="5212" class="berth sig10"><tspan dy="3.5" style="-webkit-tap-highlight-color: rgba(0, 0, 0, 0);">5212</tspan></text><path fill="#ffffff" stroke="#000000" d="M380,392L420,392L420,408L380,408Z" id="b_5213" class="berth"></path><text x="400" y="400" text-anchor="middle" font="10px &quot;Arial&quot;" stroke="none" fill="#999999" font-size="10px" id="t_5213" def="5213" class="berth sig10"><tspan dy="3.5" style="-webkit-tap-highlight-color: rgba(0, 0, 0, 0);">5213</tspan></text><text x="550" y="305" text-anchor="middle" font="10px &quot;Arial&quot;" stroke="none" fill="#000000" style="" font-size="8px" class="sig8"><tspan dy="2.5" style="">Pool S.S.</tspan></text><path fill="#ffffff" stroke="#000000" d="M505,317L545,317L545,333L505,333L501,325Z" id="b_5201" class="berth"></path><text x="525" y="325" text-anchor="middle" font="10px &quot;Arial&quot;" stroke="none" fill="#999999" font-size="10px" id="t_5201" def="5201" class="berth sig10"><tspan dy="3.5" style="-webkit-tap-highlight-color: rgba(0, 0, 0, 0);">5201</tspan></text><path fill="#ffffff" stroke="#000000" d="M505,342L545,342L545,358L505,358L501,350Z" id="b_5199" class="berth"></path><text x="525" y="350" text-anchor="middle" font="10px &quot;Arial&quot;" stroke="none" fill="#999999" font-size="10px" id="t_5199" def="5199" class="berth sig10"><tspan dy="3.5" style="-webkit-tap-highlight-color: rgba(0, 0, 0, 0);">5199</tspan></text><path fill="#ffffff" stroke="#000000" d="M505,367L545,367L545,383L505,383L501,375Z" id="b_5205" class="berth"></path><text x="525" y="375" text-anchor="middle" font="10px &quot;Arial&quot;" stroke="none" fill="#999999" font-size="10px" id="t_5205" def="5205" class="berth sig10"><tspan dy="3.5" style="-webkit-tap-highlight-color: rgba(0, 0, 0, 0);">5205</tspan></text><path fill="#ffffff" stroke="#000000" d="M505,392L545,392L545,408L505,408L501,400Z" id="b_5203" class="berth"></path><text x="525" y="400" text-anchor="middle" font="10px &quot;Arial&quot;" stroke="none" fill="#999999" font-size="10px" id="t_5203" def="5203" class="berth sig10"><tspan dy="3.5" style="-webkit-tap-highlight-color: rgba(0, 0, 0, 0);">5203</tspan></text><path fill="#ffffff" stroke="#000000" d="M555,317L595,317L599,325L595,333L555,333Z" id="b_5196" class="berth"></path><text x="575" y="325" text-anchor="middle" font="10px &quot;Arial&quot;" stroke="none" fill="#999999" font-size="10px" id="t_5196" def="5196" class="berth sig10"><tspan dy="3.5" style="-webkit-tap-highlight-color: rgba(0, 0, 0, 0);">5196</tspan></text><path fill="#ffffff" stroke="#000000" d="M555,342L595,342L599,350L595,358L555,358Z" id="b_5198" class="berth"></path><text x="575" y="350" text-anchor="middle" font="10px &quot;Arial&quot;" stroke="none" fill="#999999" font-size="10px" id="t_5198" def="5198" class="berth sig10"><tspan dy="3.5" style="-webkit-tap-highlight-color: rgba(0, 0, 0, 0);">5198</tspan></text><text x="710" y="387.5" text-anchor="middle" font="10px &quot;Arial&quot;" stroke="none" fill="#000000" style="" font-size="8px" class="sig8"><tspan dy="2.5" style="">C</tspan></text><path fill="#888888" stroke="#888888" d="M50,500L450,500M50,525L450,525" style=""></path><text x="40" y="512.5" text-anchor="middle" font="10px &quot;Arial&quot;" stroke="none" fill="#000000" style="" font-size="8px" class="sig8"><tspan dy="2.5" style="">C</tspan></text><text x="125" y="480" text-anchor="middle" font="10px &quot;Arial&quot;" stroke="none" fill="#000000" style="" font-size="8px" class="sig8"><tspan dy="2.5" style="">Poole</tspan></text><rect x="75" y="485.5" width="100" height="3" r="0" rx="0" ry="0" fill="#cccccc" stroke="#cccccc" style=""></rect><text x="125" y="483.5" text-anchor="middle" font="10px &quot;Arial&quot;" stroke="none" fill="#000000" style="" font-size="7px" class="sig7"><tspan dy="483.5" style=""></tspan></text><text x="125" y="491.5" text-anchor="middle" font="10px &quot;Arial&quot;" stroke="none" fill="#000000" style="" font-size="7px" class="sig7"><tspan dy="491.5" style=""></tspan></text><rect x="75" y="535.5" width="100" height="3" r="0" rx="0" ry="0" fill="#cccccc" stroke="#cccccc" style=""></rect><text x="125" y="533.5" text-anchor="middle" font="10px &quot;Arial&quot;" stroke="none" fill="#000000" style="" font-size="7px" class="sig7"><tspan dy="533.5" style=""></tspan></text><text x="125" y="541.5" text-anchor="middle" font="10px &quot;Arial&quot;" stroke="none" fill="#000000" style="" font-size="7px" class="sig7"><tspan dy="541.5" style=""></tspan></text><path fill="#ffffff" stroke="#000000" d="M80,492L120,492L120,508L80,508L76,500Z" id="b_5693" class="berth"></path><text x="100" y="500" text-anchor="middle" font="10px &quot;Arial&quot;" stroke="none" fill="#999999" font-size="10px" id="t_5693" def="5693" class="berth sig10"><tspan dy="3.5" style="-webkit-tap-highlight-color: rgba(0, 0, 0, 0);">5693</tspan></text><path fill="#ffffff" stroke="#000000" d="M80,517L120,517L120,533L80,533L76,525Z" id="b_5191" class="berth"></path><text x="100" y="525" text-anchor="middle" font="10px &quot;Arial&quot;" stroke="none" fill="#999999" font-size="10px" id="t_5191" def="5191" class="berth sig10"><tspan dy="3.5" style="-webkit-tap-highlight-color: rgba(0, 0, 0, 0);">5191</tspan></text><path fill="#ffffff" stroke="#000000" d="M130,492L170,492L174,500L170,508L130,508Z" id="b_5118" class="berth"></path><text x="150" y="500" text-anchor="middle" font="10px &quot;Arial&quot;" stroke="none" fill="#999999" font-size="10px" id="t_5118" def="5118" class="berth sig10"><tspan dy="3.5" style="-webkit-tap-highlight-color: rgba(0, 0, 0, 0);">5118</tspan></text><path fill="#ffffff" stroke="#000000" d="M130,517L170,517L174,525L170,533L130,533Z" id="b_5690" class="berth"></path><text x="150" y="525" text-anchor="middle" font="10px &quot;Arial&quot;" stroke="none" fill="#999999" font-size="10px" id="t_5690" def="5690" class="berth sig10"><tspan dy="3.5" style="-webkit-tap-highlight-color: rgba(0, 0, 0, 0);">5690</tspan></text><path fill="#ffffff" stroke="#000000" d="M230,492L270,492L274,500L270,508L230,508Z" id="b_5186" class="berth"></path><text x="250" y="500" text-anchor="middle" font="10px &quot;Arial&quot;" stroke="none" fill="#999999" font-size="10px" id="t_5186" def="5186" class="berth sig10"><tspan dy="3.5" style="-webkit-tap-highlight-color: rgba(0, 0, 0, 0);">5186</tspan></text><path fill="#ffffff" stroke="#000000" d="M230,517L270,517L270,533L230,533L226,525Z" id="b_5185" class="berth"></path><text x="250" y="525" text-anchor="middle" font="10px &quot;Arial&quot;" stroke="none" fill="#999999" font-size="10px" id="t_5185" def="5185" class="berth sig10"><tspan dy="3.5" style="-webkit-tap-highlight-color: rgba(0, 0, 0, 0);">5185</tspan></text><path fill="#ffffff" stroke="#000000" d="M330,492L370,492L374,500L370,508L330,508Z" id="b_FB78" class="berth"></path><text x="350" y="500" text-anchor="middle" font="10px &quot;Arial&quot;" stroke="none" fill="#999999" font-size="10px" id="t_FB78" def="FB78" class="berth sig10"><tspan dy="3.5" style="-webkit-tap-highlight-color: rgba(0, 0, 0, 0);">FB78</tspan></text><path fill="#ffffff" stroke="#000000" d="M330,517L370,517L370,533L330,533L326,525Z" id="b_5183" class="berth"></path><text x="350" y="525" text-anchor="middle" font="10px &quot;Arial&quot;" stroke="none" fill="#999999" font-size="10px" id="t_5183" def="5183" class="berth sig10"><tspan dy="3.5" style="-webkit-tap-highlight-color: rgba(0, 0, 0, 0);">5183</tspan></text><path fill="#ffffff" stroke="#000000" d="M330,517L370,517L370,533L330,533L326,525Z" id="b_FB81" class="berth"></path><text x="350" y="525" text-anchor="middle" font="10px &quot;Arial&quot;" stroke="none" fill="#999999" font-size="10px" id="t_FB81" def="FB81" class="berth sig10"><tspan dy="3.5" style="-webkit-tap-highlight-color: rgba(0, 0, 0, 0);">FB81</tspan></text><text x="450" y="480" text-anchor="middle" font="10px &quot;Arial&quot;" stroke="none" fill="#000000" style="" font-size="8px" class="sig8"><tspan dy="2.5" style="">to Bournemouth</tspan></text><text x="459.99999999999994" y="512.5" text-anchor="middle" font="10px &quot;Arial&quot;" stroke="none" fill="#000000" style="" font-size="8px" class="sig8"><tspan dy="2.5" style="">ZB</tspan></text><text x="550" y="480" text-anchor="middle" font="10px &quot;Arial&quot;" stroke="none" fill="#000000" style="" font-size="8px" class="sig8"><tspan dy="2.5" style="">Last sent</tspan></text><path fill="#ffffff" stroke="#000000" d="M530,492L570,492L570,508L530,508Z" id="b_LSFB" class="berth"></path><text x="550" y="500" text-anchor="middle" font="10px &quot;Arial&quot;" stroke="none" fill="#999999" font-size="10px" id="t_LSFB" def="LSFB" class="berth sig10"><tspan dy="3.5" style="-webkit-tap-highlight-color: rgba(0, 0, 0, 0);">LSFB</tspan></text><path fill="#ffffff" stroke="#000000" d="M530,517L570,517L570,533L530,533Z" id="b_FBAP" class="berth"></path><text x="550" y="525" text-anchor="middle" font="10px &quot;Arial&quot;" stroke="none" fill="#999999" font-size="10px" id="t_FBAP" def="FBAP" class="berth sig10"><tspan dy="3.5" style="-webkit-tap-highlight-color: rgba(0, 0, 0, 0);">FBAP</tspan></text><text x="550" y="542.5" text-anchor="middle" font="10px &quot;Arial&quot;" stroke="none" fill="#000000" style="" font-size="8px" class="sig8"><tspan dy="2.5" style="">Approaching</tspan></text></svg>