<svg height="500" version="1.1" width="600" xmlns="http://www.w3.org/2000/svg" style="overflow: hidden; position: relative; left: -0.390625px;"><desc style="-webkit-tap-highlight-color: rgba(0, 0, 0, 0);">Created with Raphaël 2.1.2</desc><defs style="-webkit-tap-highlight-color: rgba(0, 0, 0, 0);"></defs><path fill="#888888" stroke="#888888" d="M47.5,45L52.5,50L47.5,55ZM52.5,70L47.5,75L52.5,80Z" style=""></path><text x="200" y="30" text-anchor="middle" font="10px &quot;Arial&quot;" stroke="none" fill="#000000" style="" font-size="8px" class="sig8"><tspan dy="2.5" style="">Liverpool Street</tspan></text><rect x="75" y="35.5" width="250" height="3" r="0" rx="0" ry="0" fill="#cccccc" stroke="#cccccc" style=""></rect><text x="200" y="33.5" text-anchor="middle" font="10px &quot;Arial&quot;" stroke="none" fill="#000000" style="" font-size="7px" class="sig7"><tspan dy="33.5" style=""></tspan></text><text x="200" y="41.5" text-anchor="middle" font="10px &quot;Arial&quot;" stroke="none" fill="#000000" style="" font-size="7px" class="sig7"><tspan dy="2" style="">1</tspan></text><path fill="#ffffff" stroke="#000000" d="M80,42L120,42L120,58L80,58Z" id="b_R009" class="berth"></path><text x="100" y="50" text-anchor="middle" font="10px &quot;Arial&quot;" stroke="none" fill="#999999" font-size="10px" id="t_R009" def="R009" class="berth sig10"><tspan dy="3.5" style="-webkit-tap-highlight-color: rgba(0, 0, 0, 0);">R009</tspan></text><path fill="#ffffff" stroke="#000000" d="M130,42L170,42L170,58L130,58Z" id="b_FC09" class="berth"></path><text x="150" y="50" text-anchor="middle" font="10px &quot;Arial&quot;" stroke="none" fill="#999999" font-size="10px" id="t_FC09" def="FC09" class="berth sig10"><tspan dy="3.5" style="-webkit-tap-highlight-color: rgba(0, 0, 0, 0);">FC09</tspan></text><path fill="#ffffff" stroke="#000000" d="M180,42L220,42L220,58L180,58Z" id="b_FB09" class="berth"></path><text x="200" y="50" text-anchor="middle" font="10px &quot;Arial&quot;" stroke="none" fill="#999999" font-size="10px" id="t_FB09" def="FB09" class="berth sig10"><tspan dy="3.5" style="-webkit-tap-highlight-color: rgba(0, 0, 0, 0);">FB09</tspan></text><path fill="#ffffff" stroke="#000000" d="M230,42L270,42L270,58L230,58Z" id="b_FA09" class="berth"></path><text x="250" y="50" text-anchor="middle" font="10px &quot;Arial&quot;" stroke="none" fill="#999999" font-size="10px" id="t_FA09" def="FA09" class="berth sig10"><tspan dy="3.5" style="-webkit-tap-highlight-color: rgba(0, 0, 0, 0);">FA09</tspan></text><path fill="#ffffff" stroke="#000000" d="M280,42L320,42L324,50L320,58L280,58Z" id="b_F009" class="berth"></path><text x="300" y="50" text-anchor="middle" font="10px &quot;Arial&quot;" stroke="none" fill="#999999" font-size="10px" id="t_F009" def="F009" class="berth sig10"><tspan dy="3.5" style="-webkit-tap-highlight-color: rgba(0, 0, 0, 0);">F009</tspan></text><path fill="#ffffff" stroke="#000000" d="M80,67L120,67L120,83L80,83Z" id="b_R011" class="berth"></path><text x="100" y="75" text-anchor="middle" font="10px &quot;Arial&quot;" stroke="none" fill="#999999" font-size="10px" id="t_R011" def="R011" class="berth sig10"><tspan dy="3.5" style="-webkit-tap-highlight-color: rgba(0, 0, 0, 0);">R011</tspan></text><path fill="#ffffff" stroke="#000000" d="M130,67L170,67L170,83L130,83Z" id="b_FC11" class="berth"></path><text x="150" y="75" text-anchor="middle" font="10px &quot;Arial&quot;" stroke="none" fill="#999999" font-size="10px" id="t_FC11" def="FC11" class="berth sig10"><tspan dy="3.5" style="-webkit-tap-highlight-color: rgba(0, 0, 0, 0);">FC11</tspan></text><path fill="#ffffff" stroke="#000000" d="M180,67L220,67L220,83L180,83Z" id="b_FB11" class="berth"></path><text x="200" y="75" text-anchor="middle" font="10px &quot;Arial&quot;" stroke="none" fill="#999999" font-size="10px" id="t_FB11" def="FB11" class="berth sig10"><tspan dy="3.5" style="-webkit-tap-highlight-color: rgba(0, 0, 0, 0);">FB11</tspan></text><path fill="#ffffff" stroke="#000000" d="M230,67L270,67L270,83L230,83Z" id="b_FA11" class="berth"></path><text x="250" y="75" text-anchor="middle" font="10px &quot;Arial&quot;" stroke="none" fill="#999999" font-size="10px" id="t_FA11" def="FA11" class="berth sig10"><tspan dy="3.5" style="-webkit-tap-highlight-color: rgba(0, 0, 0, 0);">FA11</tspan></text><path fill="#ffffff" stroke="#000000" d="M280,67L320,67L324,75L320,83L280,83Z" id="b_F011" class="berth"></path><text x="300" y="75" text-anchor="middle" font="10px &quot;Arial&quot;" stroke="none" fill="#999999" font-size="10px" id="t_F011" def="F011" class="berth sig10"><tspan dy="3.5" style="-webkit-tap-highlight-color: rgba(0, 0, 0, 0);">F011</tspan></text><rect x="75" y="85.5" width="250" height="3" r="0" rx="0" ry="0" fill="#cccccc" stroke="#cccccc" style=""></rect><text x="200" y="83.5" text-anchor="middle" font="10px &quot;Arial&quot;" stroke="none" fill="#000000" style="" font-size="7px" class="sig7"><tspan dy="2" style="">2</tspan></text><text x="200" y="91.5" text-anchor="middle" font="10px &quot;Arial&quot;" stroke="none" fill="#000000" style="" font-size="7px" class="sig7"><tspan dy="2" style="">3</tspan></text><path fill="#ffffff" stroke="#000000" d="M80,92L120,92L120,108L80,108Z" id="b_R013" class="berth"></path><text x="100" y="100" text-anchor="middle" font="10px &quot;Arial&quot;" stroke="none" fill="#999999" font-size="10px" id="t_R013" def="R013" class="berth sig10"><tspan dy="3.5" style="-webkit-tap-highlight-color: rgba(0, 0, 0, 0);">R013</tspan></text><path fill="#ffffff" stroke="#000000" d="M130,92L170,92L170,108L130,108Z" id="b_FC13" class="berth"></path><text x="150" y="100" text-anchor="middle" font="10px &quot;Arial&quot;" stroke="none" fill="#999999" font-size="10px" id="t_FC13" def="FC13" class="berth sig10"><tspan dy="3.5" style="-webkit-tap-highlight-color: rgba(0, 0, 0, 0);">FC13</tspan></text><path fill="#ffffff" stroke="#000000" d="M180,92L220,92L220,108L180,108Z" id="b_FB13" class="berth"></path><text x="200" y="100" text-anchor="middle" font="10px &quot;Arial&quot;" stroke="none" fill="#999999" font-size="10px" id="t_FB13" def="FB13" class="berth sig10"><tspan dy="3.5" style="-webkit-tap-highlight-color: rgba(0, 0, 0, 0);">FB13</tspan></text><path fill="#ffffff" stroke="#000000" d="M230,92L270,92L270,108L230,108Z" id="b_FA13" class="berth"></path><text x="250" y="100" text-anchor="middle" font="10px &quot;Arial&quot;" stroke="none" fill="#999999" font-size="10px" id="t_FA13" def="FA13" class="berth sig10"><tspan dy="3.5" style="-webkit-tap-highlight-color: rgba(0, 0, 0, 0);">FA13</tspan></text><path fill="#ffffff" stroke="#000000" d="M280,92L320,92L324,100L320,108L280,108Z" id="b_F013" class="berth"></path><text x="300" y="100" text-anchor="middle" font="10px &quot;Arial&quot;" stroke="none" fill="#999999" font-size="10px" id="t_F013" def="F013" class="berth sig10"><tspan dy="3.5" style="-webkit-tap-highlight-color: rgba(0, 0, 0, 0);">F013</tspan></text><path fill="#ffffff" stroke="#000000" d="M80,117L120,117L120,133L80,133Z" id="b_R015" class="berth"></path><text x="100" y="125" text-anchor="middle" font="10px &quot;Arial&quot;" stroke="none" fill="#999999" font-size="10px" id="t_R015" def="R015" class="berth sig10"><tspan dy="3.5" style="-webkit-tap-highlight-color: rgba(0, 0, 0, 0);">R015</tspan></text><path fill="#ffffff" stroke="#000000" d="M130,117L170,117L170,133L130,133Z" id="b_FC15" class="berth"></path><text x="150" y="125" text-anchor="middle" font="10px &quot;Arial&quot;" stroke="none" fill="#999999" font-size="10px" id="t_FC15" def="FC15" class="berth sig10"><tspan dy="3.5" style="-webkit-tap-highlight-color: rgba(0, 0, 0, 0);">FC15</tspan></text><path fill="#ffffff" stroke="#000000" d="M180,117L220,117L220,133L180,133Z" id="b_FB15" class="berth"></path><text x="200" y="125" text-anchor="middle" font="10px &quot;Arial&quot;" stroke="none" fill="#999999" font-size="10px" id="t_FB15" def="FB15" class="berth sig10"><tspan dy="3.5" style="-webkit-tap-highlight-color: rgba(0, 0, 0, 0);">FB15</tspan></text><path fill="#ffffff" stroke="#000000" d="M230,117L270,117L270,133L230,133Z" id="b_FA15" class="berth"></path><text x="250" y="125" text-anchor="middle" font="10px &quot;Arial&quot;" stroke="none" fill="#999999" font-size="10px" id="t_FA15" def="FA15" class="berth sig10"><tspan dy="3.5" style="-webkit-tap-highlight-color: rgba(0, 0, 0, 0);">FA15</tspan></text><path fill="#ffffff" stroke="#000000" d="M280,117L320,117L324,125L320,133L280,133Z" id="b_F015" class="berth"></path><text x="300" y="125" text-anchor="middle" font="10px &quot;Arial&quot;" stroke="none" fill="#999999" font-size="10px" id="t_F015" def="F015" class="berth sig10"><tspan dy="3.5" style="-webkit-tap-highlight-color: rgba(0, 0, 0, 0);">F015</tspan></text><rect x="75" y="135.5" width="250" height="3" r="0" rx="0" ry="0" fill="#cccccc" stroke="#cccccc" style=""></rect><text x="200" y="133.5" text-anchor="middle" font="10px &quot;Arial&quot;" stroke="none" fill="#000000" style="" font-size="7px" class="sig7"><tspan dy="2" style="">4</tspan></text><text x="200" y="141.5" text-anchor="middle" font="10px &quot;Arial&quot;" stroke="none" fill="#000000" style="" font-size="7px" class="sig7"><tspan dy="2" style="">5</tspan></text><path fill="#ffff00" stroke="#000000" d="M80,142L120,142L120,158L80,158Z" id="b_R017" class="berth"></path><text x="100" y="150" text-anchor="middle" font="10px &quot;Arial&quot;" stroke="none" fill="#000000" font-size="10px" id="t_R017" def="R017" class="berth sig10"><tspan dy="3.5" style="-webkit-tap-highlight-color: rgba(0, 0, 0, 0);">2T95</tspan></text><path fill="#ffff00" stroke="#000000" d="M130,142L170,142L170,158L130,158Z" id="b_FC17" class="berth"></path><text x="150" y="150" text-anchor="middle" font="10px &quot;Arial&quot;" stroke="none" fill="#000000" font-size="10px" id="t_FC17" def="FC17" class="berth sig10"><tspan dy="3.5" style="-webkit-tap-highlight-color: rgba(0, 0, 0, 0);">2U66</tspan></text><path fill="#ffffff" stroke="#000000" d="M180,142L220,142L220,158L180,158Z" id="b_FB17" class="berth"></path><text x="200" y="150" text-anchor="middle" font="10px &quot;Arial&quot;" stroke="none" fill="#999999" font-size="10px" id="t_FB17" def="FB17" class="berth sig10"><tspan dy="3.5" style="-webkit-tap-highlight-color: rgba(0, 0, 0, 0);">FB17</tspan></text><path fill="#ffffff" stroke="#000000" d="M230,142L270,142L270,158L230,158Z" id="b_FA17" class="berth"></path><text x="250" y="150" text-anchor="middle" font="10px &quot;Arial&quot;" stroke="none" fill="#999999" font-size="10px" id="t_FA17" def="FA17" class="berth sig10"><tspan dy="3.5" style="-webkit-tap-highlight-color: rgba(0, 0, 0, 0);">FA17</tspan></text><path fill="#ffff00" stroke="#000000" d="M280,142L320,142L324,150L320,158L280,158Z" id="b_F017" class="berth"></path><text x="300" y="150" text-anchor="middle" font="10px &quot;Arial&quot;" stroke="none" fill="#000000" font-size="10px" id="t_F017" def="F017" class="berth sig10"><tspan dy="3.5" style="-webkit-tap-highlight-color: rgba(0, 0, 0, 0);">2U66</tspan></text><path fill="#ffffff" stroke="#000000" d="M80,167L120,167L120,183L80,183Z" id="b_R019" class="berth"></path><text x="100" y="175" text-anchor="middle" font="10px &quot;Arial&quot;" stroke="none" fill="#999999" font-size="10px" id="t_R019" def="R019" class="berth sig10"><tspan dy="3.5" style="-webkit-tap-highlight-color: rgba(0, 0, 0, 0);">R019</tspan></text><path fill="#ffffff" stroke="#000000" d="M130,167L170,167L170,183L130,183Z" id="b_FC19" class="berth"></path><text x="150" y="175" text-anchor="middle" font="10px &quot;Arial&quot;" stroke="none" fill="#999999" font-size="10px" id="t_FC19" def="FC19" class="berth sig10"><tspan dy="3.5" style="-webkit-tap-highlight-color: rgba(0, 0, 0, 0);">FC19</tspan></text><path fill="#ffffff" stroke="#000000" d="M180,167L220,167L220,183L180,183Z" id="b_FB19" class="berth"></path><text x="200" y="175" text-anchor="middle" font="10px &quot;Arial&quot;" stroke="none" fill="#999999" font-size="10px" id="t_FB19" def="FB19" class="berth sig10"><tspan dy="3.5" style="-webkit-tap-highlight-color: rgba(0, 0, 0, 0);">FB19</tspan></text><path fill="#ffffff" stroke="#000000" d="M230,167L270,167L270,183L230,183Z" id="b_FA19" class="berth"></path><text x="250" y="175" text-anchor="middle" font="10px &quot;Arial&quot;" stroke="none" fill="#999999" font-size="10px" id="t_FA19" def="FA19" class="berth sig10"><tspan dy="3.5" style="-webkit-tap-highlight-color: rgba(0, 0, 0, 0);">FA19</tspan></text><path fill="#ffffff" stroke="#000000" d="M280,167L320,167L324,175L320,183L280,183Z" id="b_F019" class="berth"></path><text x="300" y="175" text-anchor="middle" font="10px &quot;Arial&quot;" stroke="none" fill="#999999" font-size="10px" id="t_F019" def="F019" class="berth sig10"><tspan dy="3.5" style="-webkit-tap-highlight-color: rgba(0, 0, 0, 0);">F019</tspan></text><rect x="75" y="185.5" width="250" height="3" r="0" rx="0" ry="0" fill="#cccccc" stroke="#cccccc" style=""></rect><text x="200" y="183.5" text-anchor="middle" font="10px &quot;Arial&quot;" stroke="none" fill="#000000" style="" font-size="7px" class="sig7"><tspan dy="2" style="">6</tspan></text><text x="200" y="191.5" text-anchor="middle" font="10px &quot;Arial&quot;" stroke="none" fill="#000000" style="" font-size="7px" class="sig7"><tspan dy="2" style="">7</tspan></text><path fill="#ffffff" stroke="#000000" d="M80,192L120,192L120,208L80,208Z" id="b_R021" class="berth"></path><text x="100" y="200" text-anchor="middle" font="10px &quot;Arial&quot;" stroke="none" fill="#999999" font-size="10px" id="t_R021" def="R021" class="berth sig10"><tspan dy="3.5" style="-webkit-tap-highlight-color: rgba(0, 0, 0, 0);">R021</tspan></text><path fill="#ffffff" stroke="#000000" d="M130,192L170,192L170,208L130,208Z" id="b_FC21" class="berth"></path><text x="150" y="200" text-anchor="middle" font="10px &quot;Arial&quot;" stroke="none" fill="#999999" font-size="10px" id="t_FC21" def="FC21" class="berth sig10"><tspan dy="3.5" style="-webkit-tap-highlight-color: rgba(0, 0, 0, 0);">FC21</tspan></text><path fill="#ffffff" stroke="#000000" d="M180,192L220,192L220,208L180,208Z" id="b_FB21" class="berth"></path><text x="200" y="200" text-anchor="middle" font="10px &quot;Arial&quot;" stroke="none" fill="#999999" font-size="10px" id="t_FB21" def="FB21" class="berth sig10"><tspan dy="3.5" style="-webkit-tap-highlight-color: rgba(0, 0, 0, 0);">FB21</tspan></text><path fill="#ffffff" stroke="#000000" d="M230,192L270,192L270,208L230,208Z" id="b_FA21" class="berth"></path><text x="250" y="200" text-anchor="middle" font="10px &quot;Arial&quot;" stroke="none" fill="#999999" font-size="10px" id="t_FA21" def="FA21" class="berth sig10"><tspan dy="3.5" style="-webkit-tap-highlight-color: rgba(0, 0, 0, 0);">FA21</tspan></text><path fill="#ffffff" stroke="#000000" d="M280,192L320,192L324,200L320,208L280,208Z" id="b_F021" class="berth"></path><text x="300" y="200" text-anchor="middle" font="10px &quot;Arial&quot;" stroke="none" fill="#999999" font-size="10px" id="t_F021" def="F021" class="berth sig10"><tspan dy="3.5" style="-webkit-tap-highlight-color: rgba(0, 0, 0, 0);">F021</tspan></text><path fill="#ffffff" stroke="#000000" d="M80,217L120,217L120,233L80,233Z" id="b_R023" class="berth"></path><text x="100" y="225" text-anchor="middle" font="10px &quot;Arial&quot;" stroke="none" fill="#999999" font-size="10px" id="t_R023" def="R023" class="berth sig10"><tspan dy="3.5" style="-webkit-tap-highlight-color: rgba(0, 0, 0, 0);">R023</tspan></text><path fill="#ffffff" stroke="#000000" d="M130,217L170,217L170,233L130,233Z" id="b_FC23" class="berth"></path><text x="150" y="225" text-anchor="middle" font="10px &quot;Arial&quot;" stroke="none" fill="#999999" font-size="10px" id="t_FC23" def="FC23" class="berth sig10"><tspan dy="3.5" style="-webkit-tap-highlight-color: rgba(0, 0, 0, 0);">FC23</tspan></text><path fill="#ffffff" stroke="#000000" d="M180,217L220,217L220,233L180,233Z" id="b_FB23" class="berth"></path><text x="200" y="225" text-anchor="middle" font="10px &quot;Arial&quot;" stroke="none" fill="#999999" font-size="10px" id="t_FB23" def="FB23" class="berth sig10"><tspan dy="3.5" style="-webkit-tap-highlight-color: rgba(0, 0, 0, 0);">FB23</tspan></text><path fill="#ffffff" stroke="#000000" d="M230,217L270,217L270,233L230,233Z" id="b_FA23" class="berth"></path><text x="250" y="225" text-anchor="middle" font="10px &quot;Arial&quot;" stroke="none" fill="#999999" font-size="10px" id="t_FA23" def="FA23" class="berth sig10"><tspan dy="3.5" style="-webkit-tap-highlight-color: rgba(0, 0, 0, 0);">FA23</tspan></text><path fill="#ffffff" stroke="#000000" d="M280,217L320,217L324,225L320,233L280,233Z" id="b_F023" class="berth"></path><text x="300" y="225" text-anchor="middle" font="10px &quot;Arial&quot;" stroke="none" fill="#999999" font-size="10px" id="t_F023" def="F023" class="berth sig10"><tspan dy="3.5" style="-webkit-tap-highlight-color: rgba(0, 0, 0, 0);">F023</tspan></text><rect x="75" y="235.5" width="250" height="3" r="0" rx="0" ry="0" fill="#cccccc" stroke="#cccccc" style=""></rect><text x="200" y="233.5" text-anchor="middle" font="10px &quot;Arial&quot;" stroke="none" fill="#000000" style="" font-size="7px" class="sig7"><tspan dy="2" style="">8</tspan></text><text x="200" y="241.5" text-anchor="middle" font="10px &quot;Arial&quot;" stroke="none" fill="#000000" style="" font-size="7px" class="sig7"><tspan dy="2" style="">9</tspan></text><path fill="#ffff00" stroke="#000000" d="M80,242L120,242L120,258L80,258Z" id="b_R025" class="berth"></path><text x="100" y="250" text-anchor="middle" font="10px &quot;Arial&quot;" stroke="none" fill="#000000" font-size="10px" id="t_R025" def="R025" class="berth sig10"><tspan dy="3.5" style="-webkit-tap-highlight-color: rgba(0, 0, 0, 0);">1B87</tspan></text><path fill="#ffff00" stroke="#000000" d="M130,242L170,242L170,258L130,258Z" id="b_FC25" class="berth"></path><text x="150" y="250" text-anchor="middle" font="10px &quot;Arial&quot;" stroke="none" fill="#000000" font-size="10px" id="t_FC25" def="FC25" class="berth sig10"><tspan dy="3.5" style="-webkit-tap-highlight-color: rgba(0, 0, 0, 0);">1B04</tspan></text><path fill="#ffffff" stroke="#000000" d="M180,242L220,242L220,258L180,258Z" id="b_FB25" class="berth"></path><text x="200" y="250" text-anchor="middle" font="10px &quot;Arial&quot;" stroke="none" fill="#999999" font-size="10px" id="t_FB25" def="FB25" class="berth sig10"><tspan dy="3.5" style="-webkit-tap-highlight-color: rgba(0, 0, 0, 0);">FB25</tspan></text><path fill="#ffffff" stroke="#000000" d="M230,242L270,242L270,258L230,258Z" id="b_FA25" class="berth"></path><text x="250" y="250" text-anchor="middle" font="10px &quot;Arial&quot;" stroke="none" fill="#999999" font-size="10px" id="t_FA25" def="FA25" class="berth sig10"><tspan dy="3.5" style="-webkit-tap-highlight-color: rgba(0, 0, 0, 0);">FA25</tspan></text><path fill="#ffff00" stroke="#000000" d="M280,242L320,242L324,250L320,258L280,258Z" id="b_F025" class="berth"></path><text x="300" y="250" text-anchor="middle" font="10px &quot;Arial&quot;" stroke="none" fill="#000000" font-size="10px" id="t_F025" def="F025" class="berth sig10"><tspan dy="3.5" style="-webkit-tap-highlight-color: rgba(0, 0, 0, 0);">1B04</tspan></text><path fill="#ffff00" stroke="#000000" d="M80,267L120,267L120,283L80,283Z" id="b_R029" class="berth"></path><text x="100" y="275" text-anchor="middle" font="10px &quot;Arial&quot;" stroke="none" fill="#000000" font-size="10px" id="t_R029" def="R029" class="berth sig10"><tspan dy="3.5" style="-webkit-tap-highlight-color: rgba(0, 0, 0, 0);">2U63</tspan></text><path fill="#ffff00" stroke="#000000" d="M130,267L170,267L170,283L130,283Z" id="b_FC29" class="berth"></path><text x="150" y="275" text-anchor="middle" font="10px &quot;Arial&quot;" stroke="none" fill="#000000" font-size="10px" id="t_FC29" def="FC29" class="berth sig10"><tspan dy="3.5" style="-webkit-tap-highlight-color: rgba(0, 0, 0, 0);">2T92</tspan></text><path fill="#ffffff" stroke="#000000" d="M180,267L220,267L220,283L180,283Z" id="b_FB29" class="berth"></path><text x="200" y="275" text-anchor="middle" font="10px &quot;Arial&quot;" stroke="none" fill="#999999" font-size="10px" id="t_FB29" def="FB29" class="berth sig10"><tspan dy="3.5" style="-webkit-tap-highlight-color: rgba(0, 0, 0, 0);">FB29</tspan></text><path fill="#ffffff" stroke="#000000" d="M230,267L270,267L270,283L230,283Z" id="b_FA29" class="berth"></path><text x="250" y="275" text-anchor="middle" font="10px &quot;Arial&quot;" stroke="none" fill="#999999" font-size="10px" id="t_FA29" def="FA29" class="berth sig10"><tspan dy="3.5" style="-webkit-tap-highlight-color: rgba(0, 0, 0, 0);">FA29</tspan></text><path fill="#ffff00" stroke="#000000" d="M280,267L320,267L324,275L320,283L280,283Z" id="b_F029" class="berth"></path><text x="300" y="275" text-anchor="middle" font="10px &quot;Arial&quot;" stroke="none" fill="#000000" font-size="10px" id="t_F029" def="F029" class="berth sig10"><tspan dy="3.5" style="-webkit-tap-highlight-color: rgba(0, 0, 0, 0);">2T92</tspan></text><rect x="75" y="285.5" width="250" height="3" r="0" rx="0" ry="0" fill="#cccccc" stroke="#cccccc" style=""></rect><text x="200" y="283.5" text-anchor="middle" font="10px &quot;Arial&quot;" stroke="none" fill="#000000" style="" font-size="7px" class="sig7"><tspan dy="2" style="">10</tspan></text><text x="200" y="291.5" text-anchor="middle" font="10px &quot;Arial&quot;" stroke="none" fill="#000000" style="" font-size="7px" class="sig7"><tspan dy="2" style="">11</tspan></text><path fill="#ffffff" stroke="#000000" d="M80,292L120,292L120,308L80,308Z" id="b_R033" class="berth"></path><text x="100" y="300" text-anchor="middle" font="10px &quot;Arial&quot;" stroke="none" fill="#999999" font-size="10px" id="t_R033" def="R033" class="berth sig10"><tspan dy="3.5" style="-webkit-tap-highlight-color: rgba(0, 0, 0, 0);">R033</tspan></text><path fill="#ffffff" stroke="#000000" d="M130,292L170,292L170,308L130,308Z" id="b_FC33" class="berth"></path><text x="150" y="300" text-anchor="middle" font="10px &quot;Arial&quot;" stroke="none" fill="#999999" font-size="10px" id="t_FC33" def="FC33" class="berth sig10"><tspan dy="3.5" style="-webkit-tap-highlight-color: rgba(0, 0, 0, 0);">FC33</tspan></text><path fill="#ffffff" stroke="#000000" d="M180,292L220,292L220,308L180,308Z" id="b_FB33" class="berth"></path><text x="200" y="300" text-anchor="middle" font="10px &quot;Arial&quot;" stroke="none" fill="#999999" font-size="10px" id="t_FB33" def="FB33" class="berth sig10"><tspan dy="3.5" style="-webkit-tap-highlight-color: rgba(0, 0, 0, 0);">FB33</tspan></text><path fill="#ffffff" stroke="#000000" d="M230,292L270,292L270,308L230,308Z" id="b_FA33" class="berth"></path><text x="250" y="300" text-anchor="middle" font="10px &quot;Arial&quot;" stroke="none" fill="#999999" font-size="10px" id="t_FA33" def="FA33" class="berth sig10"><tspan dy="3.5" style="-webkit-tap-highlight-color: rgba(0, 0, 0, 0);">FA33</tspan></text><path fill="#ffffff" stroke="#000000" d="M280,292L320,292L324,300L320,308L280,308Z" id="b_F033" class="berth"></path><text x="300" y="300" text-anchor="middle" font="10px &quot;Arial&quot;" stroke="none" fill="#999999" font-size="10px" id="t_F033" def="F033" class="berth sig10"><tspan dy="3.5" style="-webkit-tap-highlight-color: rgba(0, 0, 0, 0);">F033</tspan></text><path fill="#ffffff" stroke="#000000" d="M80,317L120,317L120,333L80,333Z" id="b_R037" class="berth"></path><text x="100" y="325" text-anchor="middle" font="10px &quot;Arial&quot;" stroke="none" fill="#999999" font-size="10px" id="t_R037" def="R037" class="berth sig10"><tspan dy="3.5" style="-webkit-tap-highlight-color: rgba(0, 0, 0, 0);">R037</tspan></text><path fill="#ffffff" stroke="#000000" d="M130,317L170,317L170,333L130,333Z" id="b_FC37" class="berth"></path><text x="150" y="325" text-anchor="middle" font="10px &quot;Arial&quot;" stroke="none" fill="#999999" font-size="10px" id="t_FC37" def="FC37" class="berth sig10"><tspan dy="3.5" style="-webkit-tap-highlight-color: rgba(0, 0, 0, 0);">FC37</tspan></text><path fill="#ffffff" stroke="#000000" d="M180,317L220,317L220,333L180,333Z" id="b_FB37" class="berth"></path><text x="200" y="325" text-anchor="middle" font="10px &quot;Arial&quot;" stroke="none" fill="#999999" font-size="10px" id="t_FB37" def="FB37" class="berth sig10"><tspan dy="3.5" style="-webkit-tap-highlight-color: rgba(0, 0, 0, 0);">FB37</tspan></text><path fill="#ffffff" stroke="#000000" d="M230,317L270,317L270,333L230,333Z" id="b_FA37" class="berth"></path><text x="250" y="325" text-anchor="middle" font="10px &quot;Arial&quot;" stroke="none" fill="#999999" font-size="10px" id="t_FA37" def="FA37" class="berth sig10"><tspan dy="3.5" style="-webkit-tap-highlight-color: rgba(0, 0, 0, 0);">FA37</tspan></text><path fill="#ffffff" stroke="#000000" d="M280,317L320,317L324,325L320,333L280,333Z" id="b_F037" class="berth"></path><text x="300" y="325" text-anchor="middle" font="10px &quot;Arial&quot;" stroke="none" fill="#999999" font-size="10px" id="t_F037" def="F037" class="berth sig10"><tspan dy="3.5" style="-webkit-tap-highlight-color: rgba(0, 0, 0, 0);">F037</tspan></text><rect x="75" y="335.5" width="250" height="3" r="0" rx="0" ry="0" fill="#cccccc" stroke="#cccccc" style=""></rect><text x="200" y="333.5" text-anchor="middle" font="10px &quot;Arial&quot;" stroke="none" fill="#000000" style="" font-size="7px" class="sig7"><tspan dy="2" style="">12</tspan></text><text x="200" y="341.5" text-anchor="middle" font="10px &quot;Arial&quot;" stroke="none" fill="#000000" style="" font-size="7px" class="sig7"><tspan dy="2" style="">13</tspan></text><path fill="#ffff00" stroke="#000000" d="M80,342L120,342L120,358L80,358Z" id="b_R041" class="berth"></path><text x="100" y="350" text-anchor="middle" font="10px &quot;Arial&quot;" stroke="none" fill="#000000" font-size="10px" id="t_R041" def="R041" class="berth sig10"><tspan dy="3.5" style="-webkit-tap-highlight-color: rgba(0, 0, 0, 0);">1F35</tspan></text><path fill="#ffff00" stroke="#000000" d="M130,342L170,342L170,358L130,358Z" id="b_FC41" class="berth"></path><text x="150" y="350" text-anchor="middle" font="10px &quot;Arial&quot;" stroke="none" fill="#000000" font-size="10px" id="t_FC41" def="FC41" class="berth sig10"><tspan dy="3.5" style="-webkit-tap-highlight-color: rgba(0, 0, 0, 0);">1F40</tspan></text><path fill="#ffffff" stroke="#000000" d="M180,342L220,342L220,358L180,358Z" id="b_FB41" class="berth"></path><text x="200" y="350" text-anchor="middle" font="10px &quot;Arial&quot;" stroke="none" fill="#999999" font-size="10px" id="t_FB41" def="FB41" class="berth sig10"><tspan dy="3.5" style="-webkit-tap-highlight-color: rgba(0, 0, 0, 0);">FB41</tspan></text><path fill="#ffffff" stroke="#000000" d="M230,342L270,342L270,358L230,358Z" id="b_FA41" class="berth"></path><text x="250" y="350" text-anchor="middle" font="10px &quot;Arial&quot;" stroke="none" fill="#999999" font-size="10px" id="t_FA41" def="FA41" class="berth sig10"><tspan dy="3.5" style="-webkit-tap-highlight-color: rgba(0, 0, 0, 0);">FA41</tspan></text><path fill="#ffff00" stroke="#000000" d="M280,342L320,342L324,350L320,358L280,358Z" id="b_F041" class="berth"></path><text x="300" y="350" text-anchor="middle" font="10px &quot;Arial&quot;" stroke="none" fill="#000000" font-size="10px" id="t_F041" def="F041" class="berth sig10"><tspan dy="3.5" style="-webkit-tap-highlight-color: rgba(0, 0, 0, 0);">1F40</tspan></text><path fill="#ffffff" stroke="#000000" d="M80,367L120,367L120,383L80,383Z" id="b_R043" class="berth"></path><text x="100" y="375" text-anchor="middle" font="10px &quot;Arial&quot;" stroke="none" fill="#999999" font-size="10px" id="t_R043" def="R043" class="berth sig10"><tspan dy="3.5" style="-webkit-tap-highlight-color: rgba(0, 0, 0, 0);">R043</tspan></text><path fill="#ffffff" stroke="#000000" d="M130,367L170,367L170,383L130,383Z" id="b_FC43" class="berth"></path><text x="150" y="375" text-anchor="middle" font="10px &quot;Arial&quot;" stroke="none" fill="#999999" font-size="10px" id="t_FC43" def="FC43" class="berth sig10"><tspan dy="3.5" style="-webkit-tap-highlight-color: rgba(0, 0, 0, 0);">FC43</tspan></text><path fill="#ffffff" stroke="#000000" d="M180,367L220,367L220,383L180,383Z" id="b_FB43" class="berth"></path><text x="200" y="375" text-anchor="middle" font="10px &quot;Arial&quot;" stroke="none" fill="#999999" font-size="10px" id="t_FB43" def="FB43" class="berth sig10"><tspan dy="3.5" style="-webkit-tap-highlight-color: rgba(0, 0, 0, 0);">FB43</tspan></text><path fill="#ffffff" stroke="#000000" d="M230,367L270,367L270,383L230,383Z" id="b_FA43" class="berth"></path><text x="250" y="375" text-anchor="middle" font="10px &quot;Arial&quot;" stroke="none" fill="#999999" font-size="10px" id="t_FA43" def="FA43" class="berth sig10"><tspan dy="3.5" style="-webkit-tap-highlight-color: rgba(0, 0, 0, 0);">FA43</tspan></text><path fill="#ffffff" stroke="#000000" d="M280,367L320,367L324,375L320,383L280,383Z" id="b_F043" class="berth"></path><text x="300" y="375" text-anchor="middle" font="10px &quot;Arial&quot;" stroke="none" fill="#999999" font-size="10px" id="t_F043" def="F043" class="berth sig10"><tspan dy="3.5" style="-webkit-tap-highlight-color: rgba(0, 0, 0, 0);">F043</tspan></text><rect x="75" y="385.5" width="250" height="3" r="0" rx="0" ry="0" fill="#cccccc" stroke="#cccccc" style=""></rect><text x="200" y="383.5" text-anchor="middle" font="10px &quot;Arial&quot;" stroke="none" fill="#000000" style="" font-size="7px" class="sig7"><tspan dy="2" style="">14</tspan></text><text x="200" y="391.5" text-anchor="middle" font="10px &quot;Arial&quot;" stroke="none" fill="#000000" style="" font-size="7px" class="sig7"><tspan dy="2" style="">15</tspan></text><path fill="#ffffff" stroke="#000000" d="M80,392L120,392L120,408L80,408Z" id="b_R045" class="berth"></path><text x="100" y="400" text-anchor="middle" font="10px &quot;Arial&quot;" stroke="none" fill="#999999" font-size="10px" id="t_R045" def="R045" class="berth sig10"><tspan dy="3.5" style="-webkit-tap-highlight-color: rgba(0, 0, 0, 0);">R045</tspan></text><path fill="#ffffff" stroke="#000000" d="M130,392L170,392L170,408L130,408Z" id="b_FC45" class="berth"></path><text x="150" y="400" text-anchor="middle" font="10px &quot;Arial&quot;" stroke="none" fill="#999999" font-size="10px" id="t_FC45" def="FC45" class="berth sig10"><tspan dy="3.5" style="-webkit-tap-highlight-color: rgba(0, 0, 0, 0);">FC45</tspan></text><path fill="#ffffff" stroke="#000000" d="M180,392L220,392L220,408L180,408Z" id="b_FB45" class="berth"></path><text x="200" y="400" text-anchor="middle" font="10px &quot;Arial&quot;" stroke="none" fill="#999999" font-size="10px" id="t_FB45" def="FB45" class="berth sig10"><tspan dy="3.5" style="-webkit-tap-highlight-color: rgba(0, 0, 0, 0);">FB45</tspan></text><path fill="#ffffff" stroke="#000000" d="M230,392L270,392L270,408L230,408Z" id="b_FA45" class="berth"></path><text x="250" y="400" text-anchor="middle" font="10px &quot;Arial&quot;" stroke="none" fill="#999999" font-size="10px" id="t_FA45" def="FA45" class="berth sig10"><tspan dy="3.5" style="-webkit-tap-highlight-color: rgba(0, 0, 0, 0);">FA45</tspan></text><path fill="#ffffff" stroke="#000000" d="M280,392L320,392L324,400L320,408L280,408Z" id="b_F045" class="berth"></path><text x="300" y="400" text-anchor="middle" font="10px &quot;Arial&quot;" stroke="none" fill="#999999" font-size="10px" id="t_F045" def="F045" class="berth sig10"><tspan dy="3.5" style="-webkit-tap-highlight-color: rgba(0, 0, 0, 0);">F045</tspan></text><path fill="#ffff00" stroke="#000000" d="M80,417L120,417L120,433L80,433Z" id="b_R049" class="berth"></path><text x="100" y="425" text-anchor="middle" font="10px &quot;Arial&quot;" stroke="none" fill="#000000" font-size="10px" id="t_R049" def="R049" class="berth sig10"><tspan dy="3.5" style="-webkit-tap-highlight-color: rgba(0, 0, 0, 0);">2C77</tspan></text><path fill="#ffff00" stroke="#000000" d="M130,417L170,417L170,433L130,433Z" id="b_FC49" class="berth"></path><text x="150" y="425" text-anchor="middle" font="10px &quot;Arial&quot;" stroke="none" fill="#000000" font-size="10px" id="t_FC49" def="FC49" class="berth sig10"><tspan dy="3.5" style="-webkit-tap-highlight-color: rgba(0, 0, 0, 0);">2W80</tspan></text><path fill="#ffffff" stroke="#000000" d="M180,417L220,417L220,433L180,433Z" id="b_FB49" class="berth"></path><text x="200" y="425" text-anchor="middle" font="10px &quot;Arial&quot;" stroke="none" fill="#999999" font-size="10px" id="t_FB49" def="FB49" class="berth sig10"><tspan dy="3.5" style="-webkit-tap-highlight-color: rgba(0, 0, 0, 0);">FB49</tspan></text><path fill="#ffffff" stroke="#000000" d="M230,417L270,417L270,433L230,433Z" id="b_FA49" class="berth"></path><text x="250" y="425" text-anchor="middle" font="10px &quot;Arial&quot;" stroke="none" fill="#999999" font-size="10px" id="t_FA49" def="FA49" class="berth sig10"><tspan dy="3.5" style="-webkit-tap-highlight-color: rgba(0, 0, 0, 0);">FA49</tspan></text><path fill="#ffff00" stroke="#000000" d="M280,417L320,417L324,425L320,433L280,433Z" id="b_F049" class="berth"></path><text x="300" y="425" text-anchor="middle" font="10px &quot;Arial&quot;" stroke="none" fill="#000000" font-size="10px" id="t_F049" def="F049" class="berth sig10"><tspan dy="3.5" style="-webkit-tap-highlight-color: rgba(0, 0, 0, 0);">2W80</tspan></text><rect x="75" y="435.5" width="250" height="3" r="0" rx="0" ry="0" fill="#cccccc" stroke="#cccccc" style=""></rect><text x="200" y="433.5" text-anchor="middle" font="10px &quot;Arial&quot;" stroke="none" fill="#000000" style="" font-size="7px" class="sig7"><tspan dy="2" style="">16</tspan></text><text x="200" y="441.5" text-anchor="middle" font="10px &quot;Arial&quot;" stroke="none" fill="#000000" style="" font-size="7px" class="sig7"><tspan dy="2" style="">17</tspan></text><path fill="#ffff00" stroke="#000000" d="M80,442L120,442L120,458L80,458Z" id="b_R051" class="berth"></path><text x="100" y="450" text-anchor="middle" font="10px &quot;Arial&quot;" stroke="none" fill="#000000" font-size="10px" id="t_R051" def="R051" class="berth sig10"><tspan dy="3.5" style="-webkit-tap-highlight-color: rgba(0, 0, 0, 0);">2W79</tspan></text><path fill="#ffff00" stroke="#000000" d="M130,442L170,442L170,458L130,458Z" id="b_FC51" class="berth"></path><text x="150" y="450" text-anchor="middle" font="10px &quot;Arial&quot;" stroke="none" fill="#000000" font-size="10px" id="t_FC51" def="FC51" class="berth sig10"><tspan dy="3.5" style="-webkit-tap-highlight-color: rgba(0, 0, 0, 0);">2C82</tspan></text><path fill="#ffffff" stroke="#000000" d="M180,442L220,442L220,458L180,458Z" id="b_FB51" class="berth"></path><text x="200" y="450" text-anchor="middle" font="10px &quot;Arial&quot;" stroke="none" fill="#999999" font-size="10px" id="t_FB51" def="FB51" class="berth sig10"><tspan dy="3.5" style="-webkit-tap-highlight-color: rgba(0, 0, 0, 0);">FB51</tspan></text><path fill="#ffffff" stroke="#000000" d="M230,442L270,442L270,458L230,458Z" id="b_FA51" class="berth"></path><text x="250" y="450" text-anchor="middle" font="10px &quot;Arial&quot;" stroke="none" fill="#999999" font-size="10px" id="t_FA51" def="FA51" class="berth sig10"><tspan dy="3.5" style="-webkit-tap-highlight-color: rgba(0, 0, 0, 0);">FA51</tspan></text><path fill="#ffff00" stroke="#000000" d="M280,442L320,442L324,450L320,458L280,458Z" id="b_F051" class="berth"></path><text x="300" y="450" text-anchor="middle" font="10px &quot;Arial&quot;" stroke="none" fill="#000000" font-size="10px" id="t_F051" def="F051" class="berth sig10"><tspan dy="3.5" style="-webkit-tap-highlight-color: rgba(0, 0, 0, 0);">2C82</tspan></text><path fill="#ffffff" stroke="#000000" d="M80,467L120,467L120,483L80,483Z" id="b_R053" class="berth"></path><text x="100" y="475" text-anchor="middle" font="10px &quot;Arial&quot;" stroke="none" fill="#999999" font-size="10px" id="t_R053" def="R053" class="berth sig10"><tspan dy="3.5" style="-webkit-tap-highlight-color: rgba(0, 0, 0, 0);">R053</tspan></text><path fill="#ffffff" stroke="#000000" d="M130,467L170,467L170,483L130,483Z" id="b_FC53" class="berth"></path><text x="150" y="475" text-anchor="middle" font="10px &quot;Arial&quot;" stroke="none" fill="#999999" font-size="10px" id="t_FC53" def="FC53" class="berth sig10"><tspan dy="3.5" style="-webkit-tap-highlight-color: rgba(0, 0, 0, 0);">FC53</tspan></text><path fill="#ffffff" stroke="#000000" d="M180,467L220,467L220,483L180,483Z" id="b_FB53" class="berth"></path><text x="200" y="475" text-anchor="middle" font="10px &quot;Arial&quot;" stroke="none" fill="#999999" font-size="10px" id="t_FB53" def="FB53" class="berth sig10"><tspan dy="3.5" style="-webkit-tap-highlight-color: rgba(0, 0, 0, 0);">FB53</tspan></text><path fill="#ffffff" stroke="#000000" d="M230,467L270,467L270,483L230,483Z" id="b_FA53" class="berth"></path><text x="250" y="475" text-anchor="middle" font="10px &quot;Arial&quot;" stroke="none" fill="#999999" font-size="10px" id="t_FA53" def="FA53" class="berth sig10"><tspan dy="3.5" style="-webkit-tap-highlight-color: rgba(0, 0, 0, 0);">FA53</tspan></text><path fill="#ffffff" stroke="#000000" d="M280,467L320,467L324,475L320,483L280,483Z" id="b_F053" class="berth"></path><text x="300" y="475" text-anchor="middle" font="10px &quot;Arial&quot;" stroke="none" fill="#999999" font-size="10px" id="t_F053" def="F053" class="berth sig10"><tspan dy="3.5" style="-webkit-tap-highlight-color: rgba(0, 0, 0, 0);">F053</tspan></text><rect x="75" y="485.5" width="250" height="3" r="0" rx="0" ry="0" fill="#cccccc" stroke="#cccccc" style=""></rect><text x="200" y="483.5" text-anchor="middle" font="10px &quot;Arial&quot;" stroke="none" fill="#000000" style="" font-size="7px" class="sig7"><tspan dy="2" style="">18</tspan></text><text x="200" y="491.5" text-anchor="middle" font="10px &quot;Arial&quot;" stroke="none" fill="#000000" style="" font-size="7px" class="sig7"><tspan dy="491.5" style=""></tspan></text></svg>