<svg height="450" version="1.1" width="600" xmlns="http://www.w3.org/2000/svg" style="overflow: hidden; position: relative; left: -0.390625px;"><desc style="-webkit-tap-highlight-color: rgba(0, 0, 0, 0);">Created with Raphaël 2.1.2</desc><defs style="-webkit-tap-highlight-color: rgba(0, 0, 0, 0);"></defs><path fill="#888888" stroke="#888888" d="M47.5,45L52.5,50L47.5,55ZM52.5,70L47.5,75L52.5,80ZM547.5,45L552.5,50L547.5,55ZM552.5,70L547.5,75L552.5,80ZM50,50L550,50M50,75L550,75" style=""></path><text x="40" y="62.5" text-anchor="middle" font="10px &quot;Arial&quot;" stroke="none" fill="#000000" style="" font-size="8px" class="sig8"><tspan dy="2.5" style="">A</tspan></text><text x="100" y="30" text-anchor="middle" font="10px &quot;Arial&quot;" stroke="none" fill="#000000" style="" font-size="8px" class="sig8"><tspan dy="-2.296875" style="">Borough Green</tspan><tspan dy="9.6" x="100" style="">&amp; Wrotham</tspan></text><path fill="#ffffff" stroke="#000000" d="M80,42L120,42L120,58L80,58Z" id="b_M153" class="berth"></path><text x="100" y="50" text-anchor="middle" font="10px &quot;Arial&quot;" stroke="none" fill="#999999" font-size="10px" id="t_M153" def="M153" class="berth sig10"><tspan dy="3.5" style="-webkit-tap-highlight-color: rgba(0, 0, 0, 0);">M153</tspan></text><path fill="#ffffff" stroke="#000000" d="M80,67L120,67L120,83L80,83Z" id="b_M152" class="berth"></path><text x="100" y="75" text-anchor="middle" font="10px &quot;Arial&quot;" stroke="none" fill="#999999" font-size="10px" id="t_M152" def="M152" class="berth sig10"><tspan dy="3.5" style="-webkit-tap-highlight-color: rgba(0, 0, 0, 0);">M152</tspan></text><path fill="#ffffff" stroke="#000000" d="M180,42L220,42L220,58L180,58Z" id="b_M161" class="berth"></path><text x="200" y="50" text-anchor="middle" font="10px &quot;Arial&quot;" stroke="none" fill="#999999" font-size="10px" id="t_M161" def="M161" class="berth sig10"><tspan dy="3.5" style="-webkit-tap-highlight-color: rgba(0, 0, 0, 0);">M161</tspan></text><path fill="#ffffff" stroke="#000000" d="M230,42L270,42L270,58L230,58Z" id="b_M163" class="berth"></path><text x="250" y="50" text-anchor="middle" font="10px &quot;Arial&quot;" stroke="none" fill="#999999" font-size="10px" id="t_M163" def="M163" class="berth sig10"><tspan dy="3.5" style="-webkit-tap-highlight-color: rgba(0, 0, 0, 0);">M163</tspan></text><path fill="#ffffff" stroke="#000000" d="M280,42L320,42L320,58L280,58Z" id="b_M165" class="berth"></path><text x="300" y="50" text-anchor="middle" font="10px &quot;Arial&quot;" stroke="none" fill="#999999" font-size="10px" id="t_M165" def="M165" class="berth sig10"><tspan dy="3.5" style="-webkit-tap-highlight-color: rgba(0, 0, 0, 0);">M165</tspan></text><text x="350" y="30" text-anchor="middle" font="10px &quot;Arial&quot;" stroke="none" fill="#000000" style="" font-size="8px" class="sig8"><tspan dy="-2.296875" style="">West</tspan><tspan dy="9.6" x="350" style="">Malling</tspan></text><path fill="#ffffff" stroke="#000000" d="M330,42L370,42L370,58L330,58Z" id="b_M167" class="berth"></path><text x="350" y="50" text-anchor="middle" font="10px &quot;Arial&quot;" stroke="none" fill="#999999" font-size="10px" id="t_M167" def="M167" class="berth sig10"><tspan dy="3.5" style="-webkit-tap-highlight-color: rgba(0, 0, 0, 0);">M167</tspan></text><path fill="#ffff00" stroke="#000000" d="M330,67L370,67L370,83L330,83Z" id="b_M166" class="berth"></path><text x="350" y="75" text-anchor="middle" font="10px &quot;Arial&quot;" stroke="none" fill="#000000" font-size="10px" id="t_M166" def="M166" class="berth sig10"><tspan dy="3.5" style="-webkit-tap-highlight-color: rgba(0, 0, 0, 0);">2Y72</tspan></text><text x="400" y="30" text-anchor="middle" font="10px &quot;Arial&quot;" stroke="none" fill="#000000" style="" font-size="8px" class="sig8"><tspan dy="-2.296875" style="">East</tspan><tspan dy="9.6" x="400" style="">Malling</tspan></text><path fill="#ffff00" stroke="#000000" d="M380,42L420,42L420,58L380,58Z" id="b_M169" class="berth"></path><text x="400" y="50" text-anchor="middle" font="10px &quot;Arial&quot;" stroke="none" fill="#000000" font-size="10px" id="t_M169" def="M169" class="berth sig10"><tspan dy="3.5" style="-webkit-tap-highlight-color: rgba(0, 0, 0, 0);">2Y20</tspan></text><path fill="#ffffff" stroke="#000000" d="M380,67L420,67L420,83L380,83Z" id="b_M168" class="berth"></path><text x="400" y="75" text-anchor="middle" font="10px &quot;Arial&quot;" stroke="none" fill="#999999" font-size="10px" id="t_M168" def="M168" class="berth sig10"><tspan dy="3.5" style="-webkit-tap-highlight-color: rgba(0, 0, 0, 0);">M168</tspan></text><text x="500" y="30" text-anchor="middle" font="10px &quot;Arial&quot;" stroke="none" fill="#000000" style="" font-size="8px" class="sig8"><tspan dy="2.5" style="">Barming</tspan></text><path fill="#ffffff" stroke="#000000" d="M480,42L520,42L520,58L480,58Z" id="b_M171" class="berth"></path><text x="500" y="50" text-anchor="middle" font="10px &quot;Arial&quot;" stroke="none" fill="#999999" font-size="10px" id="t_M171" def="M171" class="berth sig10"><tspan dy="3.5" style="-webkit-tap-highlight-color: rgba(0, 0, 0, 0);">M171</tspan></text><path fill="#ffffff" stroke="#000000" d="M480,67L520,67L520,83L480,83Z" id="b_M170" class="berth"></path><text x="500" y="75" text-anchor="middle" font="10px &quot;Arial&quot;" stroke="none" fill="#999999" font-size="10px" id="t_M170" def="M170" class="berth sig10"><tspan dy="3.5" style="-webkit-tap-highlight-color: rgba(0, 0, 0, 0);">M170</tspan></text><path fill="#ffffff" stroke="#000000" d="M180,67L220,67L220,83L180,83Z" id="b_M160" class="berth"></path><text x="200" y="75" text-anchor="middle" font="10px &quot;Arial&quot;" stroke="none" fill="#999999" font-size="10px" id="t_M160" def="M160" class="berth sig10"><tspan dy="3.5" style="-webkit-tap-highlight-color: rgba(0, 0, 0, 0);">M160</tspan></text><path fill="#ffffff" stroke="#000000" d="M230,67L270,67L270,83L230,83Z" id="b_M162" class="berth"></path><text x="250" y="75" text-anchor="middle" font="10px &quot;Arial&quot;" stroke="none" fill="#999999" font-size="10px" id="t_M162" def="M162" class="berth sig10"><tspan dy="3.5" style="-webkit-tap-highlight-color: rgba(0, 0, 0, 0);">M162</tspan></text><path fill="#ffffff" stroke="#000000" d="M280,67L320,67L320,83L280,83Z" id="b_M164" class="berth"></path><text x="300" y="75" text-anchor="middle" font="10px &quot;Arial&quot;" stroke="none" fill="#999999" font-size="10px" id="t_M164" def="M164" class="berth sig10"><tspan dy="3.5" style="-webkit-tap-highlight-color: rgba(0, 0, 0, 0);">M164</tspan></text><text x="300" y="130" text-anchor="middle" font="10px &quot;Arial&quot;" stroke="none" fill="#000000" style="" font-size="8px" class="sig8"><tspan dy="2.5" style="">Maidstone East</tspan></text><path fill="#888888" stroke="#888888" d="M47.5,170L52.5,175L47.5,180ZM52.5,195L47.5,200L52.5,205ZM547.5,170L552.5,175L547.5,180ZM552.5,195L547.5,200L552.5,205ZM50,175L550,175M275,175L300,150M300,150L350,150M175,175L200,200M250,200L425,200M425,200L450,175M50,200L250,200M250,200L275,225M275,225L450,225M450,225L475,200M475,200L550,200" style=""></path><path fill="#ffffff" stroke="#000000" d="M80,167L120,167L120,183L80,183Z" id="b_M019" class="berth"></path><text x="100" y="175" text-anchor="middle" font="10px &quot;Arial&quot;" stroke="none" fill="#999999" font-size="10px" id="t_M019" def="M019" class="berth sig10"><tspan dy="3.5" style="-webkit-tap-highlight-color: rgba(0, 0, 0, 0);">M019</tspan></text><path fill="#ffffff" stroke="#000000" d="M80,192L120,192L120,208L80,208Z" id="b_M172" class="berth"></path><text x="100" y="200" text-anchor="middle" font="10px &quot;Arial&quot;" stroke="none" fill="#999999" font-size="10px" id="t_M172" def="M172" class="berth sig10"><tspan dy="3.5" style="-webkit-tap-highlight-color: rgba(0, 0, 0, 0);">M172</tspan></text><path fill="#ffffff" stroke="#000000" d="M130,167L170,167L170,183L130,183Z" id="b_M004" class="berth"></path><text x="150" y="175" text-anchor="middle" font="10px &quot;Arial&quot;" stroke="none" fill="#999999" font-size="10px" id="t_M004" def="M004" class="berth sig10"><tspan dy="3.5" style="-webkit-tap-highlight-color: rgba(0, 0, 0, 0);">M004</tspan></text><path fill="#ffffff" stroke="#000000" d="M330,167L370,167L370,183L330,183Z" id="b_M014" class="berth"></path><text x="350" y="175" text-anchor="middle" font="10px &quot;Arial&quot;" stroke="none" fill="#999999" font-size="10px" id="t_M014" def="M014" class="berth sig10"><tspan dy="3.5" style="-webkit-tap-highlight-color: rgba(0, 0, 0, 0);">M014</tspan></text><path fill="#ffffff" stroke="#000000" d="M380,167L420,167L420,183L380,183Z" id="b_M021" class="berth"></path><text x="400" y="175" text-anchor="middle" font="10px &quot;Arial&quot;" stroke="none" fill="#999999" font-size="10px" id="t_M021" def="M021" class="berth sig10"><tspan dy="3.5" style="-webkit-tap-highlight-color: rgba(0, 0, 0, 0);">M021</tspan></text><path fill="#ffffff" stroke="#000000" d="M480,167L520,167L520,183L480,183Z" id="b_M025" class="berth"></path><text x="500" y="175" text-anchor="middle" font="10px &quot;Arial&quot;" stroke="none" fill="#999999" font-size="10px" id="t_M025" def="M025" class="berth sig10"><tspan dy="3.5" style="-webkit-tap-highlight-color: rgba(0, 0, 0, 0);">M025</tspan></text><path fill="#ffffff" stroke="#000000" d="M330,142L370,142L370,158L330,158Z" id="b_M189" class="berth"></path><text x="350" y="150" text-anchor="middle" font="10px &quot;Arial&quot;" stroke="none" fill="#999999" font-size="10px" id="t_M189" def="M189" class="berth sig10"><tspan dy="3.5" style="-webkit-tap-highlight-color: rgba(0, 0, 0, 0);">M189</tspan></text><rect x="300" y="160.5" width="150" height="3" r="0" rx="0" ry="0" fill="#cccccc" stroke="#cccccc" style=""></rect><text x="375" y="158.5" text-anchor="middle" font="10px &quot;Arial&quot;" stroke="none" fill="#000000" style="" font-size="7px" class="sig7"><tspan dy="2" style="">3</tspan></text><text x="375" y="166.5" text-anchor="middle" font="10px &quot;Arial&quot;" stroke="none" fill="#000000" style="" font-size="7px" class="sig7"><tspan dy="2" style="">2</tspan></text><path fill="#ffffff" stroke="#000000" d="M330,192L370,192L370,208L330,208Z" id="b_M023" class="berth"></path><text x="350" y="200" text-anchor="middle" font="10px &quot;Arial&quot;" stroke="none" fill="#999999" font-size="10px" id="t_M023" def="M023" class="berth sig10"><tspan dy="3.5" style="-webkit-tap-highlight-color: rgba(0, 0, 0, 0);">M023</tspan></text><path fill="#ffffff" stroke="#000000" d="M330,217L370,217L370,233L330,233Z" id="b_M041" class="berth"></path><text x="350" y="225" text-anchor="middle" font="10px &quot;Arial&quot;" stroke="none" fill="#999999" font-size="10px" id="t_M041" def="M041" class="berth sig10"><tspan dy="3.5" style="-webkit-tap-highlight-color: rgba(0, 0, 0, 0);">M041</tspan></text><path fill="#ffffff" stroke="#000000" d="M480,192L520,192L520,208L480,208Z" id="b_M045" class="berth"></path><text x="500" y="200" text-anchor="middle" font="10px &quot;Arial&quot;" stroke="none" fill="#999999" font-size="10px" id="t_M045" def="M045" class="berth sig10"><tspan dy="3.5" style="-webkit-tap-highlight-color: rgba(0, 0, 0, 0);">M045</tspan></text><rect x="275" y="235.5" width="175" height="3" r="0" rx="0" ry="0" fill="#cccccc" stroke="#cccccc" style=""></rect><text x="362.5" y="233.5" text-anchor="middle" font="10px &quot;Arial&quot;" stroke="none" fill="#000000" style="" font-size="7px" class="sig7"><tspan dy="2" style="">1</tspan></text><text x="560" y="187.5" text-anchor="middle" font="10px &quot;Arial&quot;" stroke="none" fill="#000000" style="" font-size="8px" class="sig8"><tspan dy="2.5" style="">A</tspan></text><path fill="#888888" stroke="#888888" d="M47.5,295L52.5,300L47.5,305ZM52.5,320L47.5,325L52.5,330ZM547.5,295L552.5,300L547.5,305ZM552.5,320L547.5,325L552.5,330ZM50,300L550,300M50,325L550,325M75,300L100,325" style=""></path><text x="40" y="312.5" text-anchor="middle" font="10px &quot;Arial&quot;" stroke="none" fill="#000000" style="" font-size="8px" class="sig8"><tspan dy="2.5" style="">A</tspan></text><text x="150" y="280" text-anchor="middle" font="10px &quot;Arial&quot;" stroke="none" fill="#000000" style="" font-size="8px" class="sig8"><tspan dy="2.5" style="">Bearsted</tspan></text><path fill="#ffffff" stroke="#000000" d="M130,292L170,292L170,308L130,308Z" id="b_M191" class="berth"></path><text x="150" y="300" text-anchor="middle" font="10px &quot;Arial&quot;" stroke="none" fill="#999999" font-size="10px" id="t_M191" def="M191" class="berth sig10"><tspan dy="3.5" style="-webkit-tap-highlight-color: rgba(0, 0, 0, 0);">M191</tspan></text><path fill="#ffffff" stroke="#000000" d="M130,317L170,317L170,333L130,333Z" id="b_M192" class="berth"></path><text x="150" y="325" text-anchor="middle" font="10px &quot;Arial&quot;" stroke="none" fill="#999999" font-size="10px" id="t_M192" def="M192" class="berth sig10"><tspan dy="3.5" style="-webkit-tap-highlight-color: rgba(0, 0, 0, 0);">M192</tspan></text><text x="200" y="280" text-anchor="middle" font="10px &quot;Arial&quot;" stroke="none" fill="#000000" style="" font-size="8px" class="sig8"><tspan dy="2.5" style="">Hollingbourne</tspan></text><path fill="#ffffff" stroke="#000000" d="M180,292L220,292L220,308L180,308Z" id="b_M193" class="berth"></path><text x="200" y="300" text-anchor="middle" font="10px &quot;Arial&quot;" stroke="none" fill="#999999" font-size="10px" id="t_M193" def="M193" class="berth sig10"><tspan dy="3.5" style="-webkit-tap-highlight-color: rgba(0, 0, 0, 0);">M193</tspan></text><path fill="#ffffff" stroke="#000000" d="M280,292L320,292L320,308L280,308Z" id="b_M195" class="berth"></path><text x="300" y="300" text-anchor="middle" font="10px &quot;Arial&quot;" stroke="none" fill="#999999" font-size="10px" id="t_M195" def="M195" class="berth sig10"><tspan dy="3.5" style="-webkit-tap-highlight-color: rgba(0, 0, 0, 0);">M195</tspan></text><path fill="#ffffff" stroke="#000000" d="M330,292L370,292L370,308L330,308Z" id="b_M197" class="berth"></path><text x="350" y="300" text-anchor="middle" font="10px &quot;Arial&quot;" stroke="none" fill="#999999" font-size="10px" id="t_M197" def="M197" class="berth sig10"><tspan dy="3.5" style="-webkit-tap-highlight-color: rgba(0, 0, 0, 0);">M197</tspan></text><text x="400" y="280" text-anchor="middle" font="10px &quot;Arial&quot;" stroke="none" fill="#000000" style="" font-size="8px" class="sig8"><tspan dy="2.5" style="">Harrietsham</tspan></text><path fill="#ffffff" stroke="#000000" d="M380,292L420,292L420,308L380,308Z" id="b_M199" class="berth"></path><text x="400" y="300" text-anchor="middle" font="10px &quot;Arial&quot;" stroke="none" fill="#999999" font-size="10px" id="t_M199" def="M199" class="berth sig10"><tspan dy="3.5" style="-webkit-tap-highlight-color: rgba(0, 0, 0, 0);">M199</tspan></text><path fill="#ffffff" stroke="#000000" d="M380,317L420,317L420,333L380,333Z" id="b_M198" class="berth"></path><text x="400" y="325" text-anchor="middle" font="10px &quot;Arial&quot;" stroke="none" fill="#999999" font-size="10px" id="t_M198" def="M198" class="berth sig10"><tspan dy="3.5" style="-webkit-tap-highlight-color: rgba(0, 0, 0, 0);">M198</tspan></text><text x="450" y="280" text-anchor="middle" font="10px &quot;Arial&quot;" stroke="none" fill="#000000" style="" font-size="8px" class="sig8"><tspan dy="2.5" style="">Lenham</tspan></text><path fill="#ffffff" stroke="#000000" d="M430,292L470,292L470,308L430,308Z" id="b_M201" class="berth"></path><text x="450" y="300" text-anchor="middle" font="10px &quot;Arial&quot;" stroke="none" fill="#999999" font-size="10px" id="t_M201" def="M201" class="berth sig10"><tspan dy="3.5" style="-webkit-tap-highlight-color: rgba(0, 0, 0, 0);">M201</tspan></text><path fill="#ffffff" stroke="#000000" d="M430,317L470,317L470,333L430,333Z" id="b_M200" class="berth"></path><text x="450" y="325" text-anchor="middle" font="10px &quot;Arial&quot;" stroke="none" fill="#999999" font-size="10px" id="t_M200" def="M200" class="berth sig10"><tspan dy="3.5" style="-webkit-tap-highlight-color: rgba(0, 0, 0, 0);">M200</tspan></text><path fill="#ffffff" stroke="#000000" d="M480,292L520,292L520,308L480,308Z" id="b_M211" class="berth"></path><text x="500" y="300" text-anchor="middle" font="10px &quot;Arial&quot;" stroke="none" fill="#999999" font-size="10px" id="t_M211" def="M211" class="berth sig10"><tspan dy="3.5" style="-webkit-tap-highlight-color: rgba(0, 0, 0, 0);">M211</tspan></text><path fill="#ffffff" stroke="#000000" d="M280,317L320,317L320,333L280,333Z" id="b_M194" class="berth"></path><text x="300" y="325" text-anchor="middle" font="10px &quot;Arial&quot;" stroke="none" fill="#999999" font-size="10px" id="t_M194" def="M194" class="berth sig10"><tspan dy="3.5" style="-webkit-tap-highlight-color: rgba(0, 0, 0, 0);">M194</tspan></text><path fill="#ffffff" stroke="#000000" d="M330,317L370,317L370,333L330,333Z" id="b_M196" class="berth"></path><text x="350" y="325" text-anchor="middle" font="10px &quot;Arial&quot;" stroke="none" fill="#999999" font-size="10px" id="t_M196" def="M196" class="berth sig10"><tspan dy="3.5" style="-webkit-tap-highlight-color: rgba(0, 0, 0, 0);">M196</tspan></text><path fill="#ffffff" stroke="#000000" d="M480,317L520,317L520,333L480,333Z" id="b_M204" class="berth"></path><text x="500" y="325" text-anchor="middle" font="10px &quot;Arial&quot;" stroke="none" fill="#999999" font-size="10px" id="t_M204" def="M204" class="berth sig10"><tspan dy="3.5" style="-webkit-tap-highlight-color: rgba(0, 0, 0, 0);">M204</tspan></text><text x="560" y="312.5" text-anchor="middle" font="10px &quot;Arial&quot;" stroke="none" fill="#000000" style="" font-size="8px" class="sig8"><tspan dy="2.5" style="">B</tspan></text><path fill="#888888" stroke="#888888" d="M47.5,395L52.5,400L47.5,405ZM52.5,420L47.5,425L52.5,430ZM547.5,395L552.5,400L547.5,405ZM552.5,420L547.5,425L552.5,430ZM50,400L550,400M50,425L550,425" style=""></path><text x="40" y="412.5" text-anchor="middle" font="10px &quot;Arial&quot;" stroke="none" fill="#000000" style="" font-size="8px" class="sig8"><tspan dy="2.5" style="">B</tspan></text><path fill="#ffffff" stroke="#000000" d="M130,417L170,417L170,433L130,433Z" id="b_M210" class="berth"></path><text x="150" y="425" text-anchor="middle" font="10px &quot;Arial&quot;" stroke="none" fill="#999999" font-size="10px" id="t_M210" def="M210" class="berth sig10"><tspan dy="3.5" style="-webkit-tap-highlight-color: rgba(0, 0, 0, 0);">M210</tspan></text><path fill="#ffffff" stroke="#000000" d="M80,417L120,417L120,433L80,433Z" id="b_M212" class="berth"></path><text x="100" y="425" text-anchor="middle" font="10px &quot;Arial&quot;" stroke="none" fill="#999999" font-size="10px" id="t_M212" def="M212" class="berth sig10"><tspan dy="3.5" style="-webkit-tap-highlight-color: rgba(0, 0, 0, 0);">M212</tspan></text><text x="200" y="380" text-anchor="middle" font="10px &quot;Arial&quot;" stroke="none" fill="#000000" style="" font-size="8px" class="sig8"><tspan dy="2.5" style="">Charing</tspan></text><path fill="#ffffff" stroke="#000000" d="M180,392L220,392L220,408L180,408Z" id="b_M213" class="berth"></path><text x="200" y="400" text-anchor="middle" font="10px &quot;Arial&quot;" stroke="none" fill="#999999" font-size="10px" id="t_M213" def="M213" class="berth sig10"><tspan dy="3.5" style="-webkit-tap-highlight-color: rgba(0, 0, 0, 0);">M213</tspan></text><path fill="#ffffff" stroke="#000000" d="M180,417L220,417L220,433L180,433Z" id="b_M214" class="berth"></path><text x="200" y="425" text-anchor="middle" font="10px &quot;Arial&quot;" stroke="none" fill="#999999" font-size="10px" id="t_M214" def="M214" class="berth sig10"><tspan dy="3.5" style="-webkit-tap-highlight-color: rgba(0, 0, 0, 0);">M214</tspan></text><text x="300" y="380" text-anchor="middle" font="10px &quot;Arial&quot;" stroke="none" fill="#000000" style="" font-size="8px" class="sig8"><tspan dy="2.5" style="">Hothfield</tspan></text><path fill="#ffffff" stroke="#000000" d="M280,392L320,392L320,408L280,408Z" id="b_M215" class="berth"></path><text x="300" y="400" text-anchor="middle" font="10px &quot;Arial&quot;" stroke="none" fill="#999999" font-size="10px" id="t_M215" def="M215" class="berth sig10"><tspan dy="3.5" style="-webkit-tap-highlight-color: rgba(0, 0, 0, 0);">M215</tspan></text><path fill="#ffffff" stroke="#000000" d="M280,417L320,417L320,433L280,433Z" id="b_M216" class="berth"></path><text x="300" y="425" text-anchor="middle" font="10px &quot;Arial&quot;" stroke="none" fill="#999999" font-size="10px" id="t_M216" def="M216" class="berth sig10"><tspan dy="3.5" style="-webkit-tap-highlight-color: rgba(0, 0, 0, 0);">M216</tspan></text><text x="450" y="380" text-anchor="middle" font="10px &quot;Arial&quot;" stroke="none" fill="#000000" style="" font-size="8px" class="sig8"><tspan dy="-2.296875" style="">Ashford</tspan><tspan dy="9.6" x="450" style="">Maidstone loop</tspan></text><path fill="#ffffff" stroke="#000000" d="M430,392L470,392L470,408L430,408Z" id="b_M217" class="berth"></path><text x="450" y="400" text-anchor="middle" font="10px &quot;Arial&quot;" stroke="none" fill="#999999" font-size="10px" id="t_M217" def="M217" class="berth sig10"><tspan dy="3.5" style="-webkit-tap-highlight-color: rgba(0, 0, 0, 0);">M217</tspan></text><path fill="#ffffff" stroke="#000000" d="M480,392L520,392L520,408L480,408Z" id="b_M223" class="berth"></path><text x="500" y="400" text-anchor="middle" font="10px &quot;Arial&quot;" stroke="none" fill="#999999" font-size="10px" id="t_M223" def="M223" class="berth sig10"><tspan dy="3.5" style="-webkit-tap-highlight-color: rgba(0, 0, 0, 0);">M223</tspan></text><path fill="#ffffff" stroke="#000000" d="M430,417L470,417L470,433L430,433Z" id="b_M218" class="berth"></path><text x="450" y="425" text-anchor="middle" font="10px &quot;Arial&quot;" stroke="none" fill="#999999" font-size="10px" id="t_M218" def="M218" class="berth sig10"><tspan dy="3.5" style="-webkit-tap-highlight-color: rgba(0, 0, 0, 0);">M218</tspan></text><path fill="#ffffff" stroke="#000000" d="M480,417L520,417L520,433L480,433Z" id="b_M224" class="berth"></path><text x="500" y="425" text-anchor="middle" font="10px &quot;Arial&quot;" stroke="none" fill="#999999" font-size="10px" id="t_M224" def="M224" class="berth sig10"><tspan dy="3.5" style="-webkit-tap-highlight-color: rgba(0, 0, 0, 0);">M224</tspan></text><text x="560" y="412.5" text-anchor="middle" font="10px &quot;Arial&quot;" stroke="none" fill="#000000" style="" font-size="8px" class="sig8"><tspan dy="2.5" style="">A2</tspan></text></svg>