<svg height="550" version="1.1" width="750" xmlns="http://www.w3.org/2000/svg" style="overflow: hidden; position: relative; left: -0.390625px;"><desc style="-webkit-tap-highlight-color: rgba(0, 0, 0, 0);">Created with Raphaël 2.1.2</desc><defs style="-webkit-tap-highlight-color: rgba(0, 0, 0, 0);"></defs><path fill="#888888" stroke="#888888" d="M50,75L700,75M50,100L700,100M200,75L212.5,50M212.5,50L287.5,50M287.5,50L300,75M300,100L312.5,75" style=""></path><text x="40" y="87.5" text-anchor="middle" font="10px &quot;Arial&quot;" stroke="none" fill="#000000" style="" font-size="8px" class="sig8"><tspan dy="2.5" style="">VC</tspan></text><path fill="#ffffff" stroke="#000000" d="M80,67L120,67L120,83L80,83Z" id="b_M151" class="berth"></path><text x="100" y="75" text-anchor="middle" font="10px &quot;Arial&quot;" stroke="none" fill="#999999" font-size="10px" id="t_M151" def="M151" class="berth sig10"><tspan dy="3.5" style="-webkit-tap-highlight-color: rgba(0, 0, 0, 0);">M151</tspan></text><path fill="#ffffff" stroke="#000000" d="M130,67L170,67L170,83L130,83Z" id="b_M153" class="berth"></path><text x="150" y="75" text-anchor="middle" font="10px &quot;Arial&quot;" stroke="none" fill="#999999" font-size="10px" id="t_M153" def="M153" class="berth sig10"><tspan dy="3.5" style="-webkit-tap-highlight-color: rgba(0, 0, 0, 0);">M153</tspan></text><path fill="#ffffff" stroke="#000000" d="M130,92L170,92L170,108L130,108Z" id="b_M152" class="berth"></path><text x="150" y="100" text-anchor="middle" font="10px &quot;Arial&quot;" stroke="none" fill="#999999" font-size="10px" id="t_M152" def="M152" class="berth sig10"><tspan dy="3.5" style="-webkit-tap-highlight-color: rgba(0, 0, 0, 0);">M152</tspan></text><path fill="#ffffff" stroke="#000000" d="M230,42L270,42L270,58L230,58Z" id="b_M157" class="berth"></path><text x="250" y="50" text-anchor="middle" font="10px &quot;Arial&quot;" stroke="none" fill="#999999" font-size="10px" id="t_M157" def="M157" class="berth sig10"><tspan dy="3.5" style="-webkit-tap-highlight-color: rgba(0, 0, 0, 0);">M157</tspan></text><text x="350" y="42.5" text-anchor="middle" font="10px &quot;Arial&quot;" stroke="none" fill="#000000" style="" font-size="8px" class="sig8"><tspan dy="-2.296875" style="">Borough Green</tspan><tspan dy="9.6" x="350" style="">&amp; Wrotham</tspan></text><rect x="325" y="60.5" width="50" height="3" r="0" rx="0" ry="0" fill="#cccccc" stroke="#cccccc" style=""></rect><text x="350" y="58.5" text-anchor="middle" font="10px &quot;Arial&quot;" stroke="none" fill="#000000" style="" font-size="7px" class="sig7"><tspan dy="58.5" style=""></tspan></text><text x="350" y="66.5" text-anchor="middle" font="10px &quot;Arial&quot;" stroke="none" fill="#000000" style="" font-size="7px" class="sig7"><tspan dy="2" style="">2</tspan></text><rect x="325" y="110.5" width="50" height="3" r="0" rx="0" ry="0" fill="#cccccc" stroke="#cccccc" style=""></rect><text x="350" y="108.5" text-anchor="middle" font="10px &quot;Arial&quot;" stroke="none" fill="#000000" style="" font-size="7px" class="sig7"><tspan dy="2" style="">1</tspan></text><text x="350" y="116.5" text-anchor="middle" font="10px &quot;Arial&quot;" stroke="none" fill="#000000" style="" font-size="7px" class="sig7"><tspan dy="116.5" style=""></tspan></text><path fill="#ffffff" stroke="#000000" d="M380,67L420,67L420,83L380,83Z" id="b_M161" class="berth"></path><text x="400" y="75" text-anchor="middle" font="10px &quot;Arial&quot;" stroke="none" fill="#999999" font-size="10px" id="t_M161" def="M161" class="berth sig10"><tspan dy="3.5" style="-webkit-tap-highlight-color: rgba(0, 0, 0, 0);">M161</tspan></text><path fill="#ffffff" stroke="#000000" d="M380,92L420,92L420,108L380,108Z" id="b_M160" class="berth"></path><text x="400" y="100" text-anchor="middle" font="10px &quot;Arial&quot;" stroke="none" fill="#999999" font-size="10px" id="t_M160" def="M160" class="berth sig10"><tspan dy="3.5" style="-webkit-tap-highlight-color: rgba(0, 0, 0, 0);">M160</tspan></text><path fill="#ffffff" stroke="#000000" d="M442.5,67L482.5,67L482.5,83L442.5,83Z" id="b_M163" class="berth"></path><text x="462.5" y="75" text-anchor="middle" font="10px &quot;Arial&quot;" stroke="none" fill="#999999" font-size="10px" id="t_M163" def="M163" class="berth sig10"><tspan dy="3.5" style="-webkit-tap-highlight-color: rgba(0, 0, 0, 0);">M163</tspan></text><path fill="#ffffff" stroke="#000000" d="M442.5,92L482.5,92L482.5,108L442.5,108Z" id="b_M162" class="berth"></path><text x="462.5" y="100" text-anchor="middle" font="10px &quot;Arial&quot;" stroke="none" fill="#999999" font-size="10px" id="t_M162" def="M162" class="berth sig10"><tspan dy="3.5" style="-webkit-tap-highlight-color: rgba(0, 0, 0, 0);">M162</tspan></text><path fill="#ffffff" stroke="#000000" d="M505,67L545,67L545,83L505,83Z" id="b_M165" class="berth"></path><text x="525" y="75" text-anchor="middle" font="10px &quot;Arial&quot;" stroke="none" fill="#999999" font-size="10px" id="t_M165" def="M165" class="berth sig10"><tspan dy="3.5" style="-webkit-tap-highlight-color: rgba(0, 0, 0, 0);">M165</tspan></text><path fill="#ffffff" stroke="#000000" d="M505,92L545,92L545,108L505,108Z" id="b_M164" class="berth"></path><text x="525" y="100" text-anchor="middle" font="10px &quot;Arial&quot;" stroke="none" fill="#999999" font-size="10px" id="t_M164" def="M164" class="berth sig10"><tspan dy="3.5" style="-webkit-tap-highlight-color: rgba(0, 0, 0, 0);">M164</tspan></text><text x="575" y="55" text-anchor="middle" font="10px &quot;Arial&quot;" stroke="none" fill="#000000" style="" font-size="8px" class="sig8"><tspan dy="2.5" style="">West Malling</tspan></text><rect x="550" y="60.5" width="50" height="3" r="0" rx="0" ry="0" fill="#cccccc" stroke="#cccccc" style=""></rect><text x="575" y="58.5" text-anchor="middle" font="10px &quot;Arial&quot;" stroke="none" fill="#000000" style="" font-size="7px" class="sig7"><tspan dy="58.5" style=""></tspan></text><text x="575" y="66.5" text-anchor="middle" font="10px &quot;Arial&quot;" stroke="none" fill="#000000" style="" font-size="7px" class="sig7"><tspan dy="2" style="">2</tspan></text><rect x="550" y="110.5" width="50" height="3" r="0" rx="0" ry="0" fill="#cccccc" stroke="#cccccc" style=""></rect><text x="575" y="108.5" text-anchor="middle" font="10px &quot;Arial&quot;" stroke="none" fill="#000000" style="" font-size="7px" class="sig7"><tspan dy="2" style="">1</tspan></text><text x="575" y="116.5" text-anchor="middle" font="10px &quot;Arial&quot;" stroke="none" fill="#000000" style="" font-size="7px" class="sig7"><tspan dy="116.5" style=""></tspan></text><path fill="#ffffff" stroke="#000000" d="M555,67L595,67L595,83L555,83Z" id="b_M167" class="berth"></path><text x="575" y="75" text-anchor="middle" font="10px &quot;Arial&quot;" stroke="none" fill="#999999" font-size="10px" id="t_M167" def="M167" class="berth sig10"><tspan dy="3.5" style="-webkit-tap-highlight-color: rgba(0, 0, 0, 0);">M167</tspan></text><path fill="#ffffff" stroke="#000000" d="M555,92L595,92L595,108L555,108Z" id="b_M166" class="berth"></path><text x="575" y="100" text-anchor="middle" font="10px &quot;Arial&quot;" stroke="none" fill="#999999" font-size="10px" id="t_M166" def="M166" class="berth sig10"><tspan dy="3.5" style="-webkit-tap-highlight-color: rgba(0, 0, 0, 0);">M166</tspan></text><text x="650" y="55" text-anchor="middle" font="10px &quot;Arial&quot;" stroke="none" fill="#000000" style="" font-size="8px" class="sig8"><tspan dy="2.5" style="">East Malling</tspan></text><rect x="625" y="60.5" width="50" height="3" r="0" rx="0" ry="0" fill="#cccccc" stroke="#cccccc" style=""></rect><text x="650" y="58.5" text-anchor="middle" font="10px &quot;Arial&quot;" stroke="none" fill="#000000" style="" font-size="7px" class="sig7"><tspan dy="58.5" style=""></tspan></text><text x="650" y="66.5" text-anchor="middle" font="10px &quot;Arial&quot;" stroke="none" fill="#000000" style="" font-size="7px" class="sig7"><tspan dy="2" style="">2</tspan></text><rect x="625" y="110.5" width="50" height="3" r="0" rx="0" ry="0" fill="#cccccc" stroke="#cccccc" style=""></rect><text x="650" y="108.5" text-anchor="middle" font="10px &quot;Arial&quot;" stroke="none" fill="#000000" style="" font-size="7px" class="sig7"><tspan dy="2" style="">1</tspan></text><text x="650" y="116.5" text-anchor="middle" font="10px &quot;Arial&quot;" stroke="none" fill="#000000" style="" font-size="7px" class="sig7"><tspan dy="116.5" style=""></tspan></text><path fill="#ffffff" stroke="#000000" d="M630,67L670,67L670,83L630,83Z" id="b_M169" class="berth"></path><text x="650" y="75" text-anchor="middle" font="10px &quot;Arial&quot;" stroke="none" fill="#999999" font-size="10px" id="t_M169" def="M169" class="berth sig10"><tspan dy="3.5" style="-webkit-tap-highlight-color: rgba(0, 0, 0, 0);">M169</tspan></text><text x="710" y="87.5" text-anchor="middle" font="10px &quot;Arial&quot;" stroke="none" fill="#000000" style="" font-size="8px" class="sig8"><tspan dy="2.5" style="">A</tspan></text><path fill="#888888" stroke="#888888" d="M50,200L700,200M50,225L487.5,225M237.5,200L250,225M262.5,225L275,200M337.5,200L362.5,150M362.5,150L437.5,150M438.5,145L438.5,155L436.5,155L436.5,145ZM350,175L487.5,175M488.5,170L488.5,180L486.5,180L486.5,170ZM487.5,225L500,200M337.5,225L350,250M350,250L500,250M500,250L512.5,225M512.5,225L700,225M600,200L612.5,225" style=""></path><text x="40" y="212.5" text-anchor="middle" font="10px &quot;Arial&quot;" stroke="none" fill="#000000" style="" font-size="8px" class="sig8"><tspan dy="2.5" style="">A</tspan></text><path fill="#ffffff" stroke="#000000" d="M80,217L120,217L120,233L80,233Z" id="b_M168" class="berth"></path><text x="100" y="225" text-anchor="middle" font="10px &quot;Arial&quot;" stroke="none" fill="#999999" font-size="10px" id="t_M168" def="M168" class="berth sig10"><tspan dy="3.5" style="-webkit-tap-highlight-color: rgba(0, 0, 0, 0);">M168</tspan></text><text x="150" y="180" text-anchor="middle" font="10px &quot;Arial&quot;" stroke="none" fill="#000000" style="" font-size="8px" class="sig8"><tspan dy="2.5" style="">Barming</tspan></text><rect x="125" y="185.5" width="50" height="3" r="0" rx="0" ry="0" fill="#cccccc" stroke="#cccccc" style=""></rect><text x="150" y="183.5" text-anchor="middle" font="10px &quot;Arial&quot;" stroke="none" fill="#000000" style="" font-size="7px" class="sig7"><tspan dy="183.5" style=""></tspan></text><text x="150" y="191.5" text-anchor="middle" font="10px &quot;Arial&quot;" stroke="none" fill="#000000" style="" font-size="7px" class="sig7"><tspan dy="2" style="">2</tspan></text><rect x="125" y="235.5" width="50" height="3" r="0" rx="0" ry="0" fill="#cccccc" stroke="#cccccc" style=""></rect><text x="150" y="233.5" text-anchor="middle" font="10px &quot;Arial&quot;" stroke="none" fill="#000000" style="" font-size="7px" class="sig7"><tspan dy="2" style="">1</tspan></text><text x="150" y="241.5" text-anchor="middle" font="10px &quot;Arial&quot;" stroke="none" fill="#000000" style="" font-size="7px" class="sig7"><tspan dy="241.5" style=""></tspan></text><path fill="#ffffff" stroke="#000000" d="M130,192L170,192L170,208L130,208Z" id="b_M171" class="berth"></path><text x="150" y="200" text-anchor="middle" font="10px &quot;Arial&quot;" stroke="none" fill="#999999" font-size="10px" id="t_M171" def="M171" class="berth sig10"><tspan dy="3.5" style="-webkit-tap-highlight-color: rgba(0, 0, 0, 0);">M171</tspan></text><path fill="#ffffff" stroke="#000000" d="M130,217L170,217L170,233L130,233Z" id="b_M170" class="berth"></path><text x="150" y="225" text-anchor="middle" font="10px &quot;Arial&quot;" stroke="none" fill="#999999" font-size="10px" id="t_M170" def="M170" class="berth sig10"><tspan dy="3.5" style="-webkit-tap-highlight-color: rgba(0, 0, 0, 0);">M170</tspan></text><path fill="#ffffff" stroke="#000000" d="M180,192L220,192L220,208L180,208Z" id="b_M019" class="berth"></path><text x="200" y="200" text-anchor="middle" font="10px &quot;Arial&quot;" stroke="none" fill="#999999" font-size="10px" id="t_M019" def="M019" class="berth sig10"><tspan dy="3.5" style="-webkit-tap-highlight-color: rgba(0, 0, 0, 0);">M019</tspan></text><path fill="#ffffff" stroke="#000000" d="M180,217L220,217L220,233L180,233Z" id="b_M172" class="berth"></path><text x="200" y="225" text-anchor="middle" font="10px &quot;Arial&quot;" stroke="none" fill="#999999" font-size="10px" id="t_M172" def="M172" class="berth sig10"><tspan dy="3.5" style="-webkit-tap-highlight-color: rgba(0, 0, 0, 0);">M172</tspan></text><path fill="#ffffff" stroke="#000000" d="M280,192L320,192L320,208L280,208Z" id="b_M014" class="berth"></path><text x="300" y="200" text-anchor="middle" font="10px &quot;Arial&quot;" stroke="none" fill="#999999" font-size="10px" id="t_M014" def="M014" class="berth sig10"><tspan dy="3.5" style="-webkit-tap-highlight-color: rgba(0, 0, 0, 0);">M014</tspan></text><path fill="#ffffff" stroke="#000000" d="M280,217L320,217L320,233L280,233Z" id="b_M004" class="berth"></path><text x="300" y="225" text-anchor="middle" font="10px &quot;Arial&quot;" stroke="none" fill="#999999" font-size="10px" id="t_M004" def="M004" class="berth sig10"><tspan dy="3.5" style="-webkit-tap-highlight-color: rgba(0, 0, 0, 0);">M004</tspan></text><text x="425" y="280" text-anchor="middle" font="10px &quot;Arial&quot;" stroke="none" fill="#000000" style="" font-size="8px" class="sig8"><tspan dy="2.5" style="">Maidstone East</tspan></text><path fill="#ffffff" stroke="#000000" d="M380,142L420,142L420,158L380,158L376,150Z" id="b_M011" class="berth"></path><text x="400" y="150" text-anchor="middle" font="10px &quot;Arial&quot;" stroke="none" fill="#999999" font-size="10px" id="t_M011" def="M011" class="berth sig10"><tspan dy="3.5" style="-webkit-tap-highlight-color: rgba(0, 0, 0, 0);">M011</tspan></text><path fill="#ffffff" stroke="#000000" d="M380,167L420,167L420,183L380,183L376,175Z" id="b_MF37" class="berth"></path><text x="400" y="175" text-anchor="middle" font="10px &quot;Arial&quot;" stroke="none" fill="#999999" font-size="10px" id="t_MF37" def="MF37" class="berth sig10"><tspan dy="3.5" style="-webkit-tap-highlight-color: rgba(0, 0, 0, 0);">MF37</tspan></text><path fill="#ffffff" stroke="#000000" d="M430,167L470,167L470,183L430,183Z" id="b_MR37" class="berth"></path><text x="450" y="175" text-anchor="middle" font="10px &quot;Arial&quot;" stroke="none" fill="#999999" font-size="10px" id="t_MR37" def="MR37" class="berth sig10"><tspan dy="3.5" style="-webkit-tap-highlight-color: rgba(0, 0, 0, 0);">MR37</tspan></text><rect x="375" y="185.5" width="100" height="3" r="0" rx="0" ry="0" fill="#cccccc" stroke="#cccccc" style=""></rect><text x="425" y="183.5" text-anchor="middle" font="10px &quot;Arial&quot;" stroke="none" fill="#000000" style="" font-size="7px" class="sig7"><tspan dy="2" style="">3</tspan></text><text x="425" y="191.5" text-anchor="middle" font="10px &quot;Arial&quot;" stroke="none" fill="#000000" style="" font-size="7px" class="sig7"><tspan dy="2" style="">2</tspan></text><path fill="#ffffff" stroke="#000000" d="M380,192L420,192L420,208L380,208L376,200Z" id="b_M036" class="berth"></path><text x="400" y="200" text-anchor="middle" font="10px &quot;Arial&quot;" stroke="none" fill="#999999" font-size="10px" id="t_M036" def="M036" class="berth sig10"><tspan dy="3.5" style="-webkit-tap-highlight-color: rgba(0, 0, 0, 0);">M036</tspan></text><path fill="#ffffff" stroke="#000000" d="M430,192L470,192L474,200L470,208L430,208Z" id="b_M021" class="berth"></path><text x="450" y="200" text-anchor="middle" font="10px &quot;Arial&quot;" stroke="none" fill="#999999" font-size="10px" id="t_M021" def="M021" class="berth sig10"><tspan dy="3.5" style="-webkit-tap-highlight-color: rgba(0, 0, 0, 0);">M021</tspan></text><path fill="#ffffff" stroke="#000000" d="M380,217L420,217L420,233L380,233L376,225Z" id="b_M039" class="berth"></path><text x="400" y="225" text-anchor="middle" font="10px &quot;Arial&quot;" stroke="none" fill="#999999" font-size="10px" id="t_M039" def="M039" class="berth sig10"><tspan dy="3.5" style="-webkit-tap-highlight-color: rgba(0, 0, 0, 0);">M039</tspan></text><path fill="#ffffff" stroke="#000000" d="M430,217L470,217L474,225L470,233L430,233Z" id="b_M023" class="berth"></path><text x="450" y="225" text-anchor="middle" font="10px &quot;Arial&quot;" stroke="none" fill="#999999" font-size="10px" id="t_M023" def="M023" class="berth sig10"><tspan dy="3.5" style="-webkit-tap-highlight-color: rgba(0, 0, 0, 0);">M023</tspan></text><rect x="375" y="260.5" width="100" height="3" r="0" rx="0" ry="0" fill="#cccccc" stroke="#cccccc" style=""></rect><text x="425" y="258.5" text-anchor="middle" font="10px &quot;Arial&quot;" stroke="none" fill="#000000" style="" font-size="7px" class="sig7"><tspan dy="2" style="">1</tspan></text><text x="425" y="266.5" text-anchor="middle" font="10px &quot;Arial&quot;" stroke="none" fill="#000000" style="" font-size="7px" class="sig7"><tspan dy="266.5" style=""></tspan></text><path fill="#ffffff" stroke="#000000" d="M380,242L420,242L420,258L380,258L376,250Z" id="b_M041" class="berth"></path><text x="400" y="250" text-anchor="middle" font="10px &quot;Arial&quot;" stroke="none" fill="#999999" font-size="10px" id="t_M041" def="M041" class="berth sig10"><tspan dy="3.5" style="-webkit-tap-highlight-color: rgba(0, 0, 0, 0);">M041</tspan></text><path fill="#ffffff" stroke="#000000" d="M430,242L470,242L474,250L470,258L430,258Z" id="b_M189" class="berth"></path><text x="450" y="250" text-anchor="middle" font="10px &quot;Arial&quot;" stroke="none" fill="#999999" font-size="10px" id="t_M189" def="M189" class="berth sig10"><tspan dy="3.5" style="-webkit-tap-highlight-color: rgba(0, 0, 0, 0);">M189</tspan></text><path fill="#ffffff" stroke="#000000" d="M530,192L570,192L570,208L530,208Z" id="b_M025" class="berth"></path><text x="550" y="200" text-anchor="middle" font="10px &quot;Arial&quot;" stroke="none" fill="#999999" font-size="10px" id="t_M025" def="M025" class="berth sig10"><tspan dy="3.5" style="-webkit-tap-highlight-color: rgba(0, 0, 0, 0);">M025</tspan></text><text x="600" y="180" text-anchor="middle" font="10px &quot;Arial&quot;" stroke="none" fill="#000000" style="" font-size="8px" class="sig8"><tspan dy="2.5" style="">Week St Tunnel</tspan></text><path fill="#ffffff" stroke="#000000" d="M630,192L670,192L670,208L630,208Z" id="b_M191" class="berth"></path><text x="650" y="200" text-anchor="middle" font="10px &quot;Arial&quot;" stroke="none" fill="#999999" font-size="10px" id="t_M191" def="M191" class="berth sig10"><tspan dy="3.5" style="-webkit-tap-highlight-color: rgba(0, 0, 0, 0);">M191</tspan></text><path fill="#ffffff" stroke="#000000" d="M630,217L670,217L670,233L630,233Z" id="b_M045" class="berth"></path><text x="650" y="225" text-anchor="middle" font="10px &quot;Arial&quot;" stroke="none" fill="#999999" font-size="10px" id="t_M045" def="M045" class="berth sig10"><tspan dy="3.5" style="-webkit-tap-highlight-color: rgba(0, 0, 0, 0);">M045</tspan></text><text x="710" y="212.5" text-anchor="middle" font="10px &quot;Arial&quot;" stroke="none" fill="#000000" style="" font-size="8px" class="sig8"><tspan dy="2.5" style="">B</tspan></text><path fill="#888888" stroke="#888888" d="M50,350L700,350M50,375L700,375M350,350L362.5,325M362.5,325L462.5,325M463.5,320L463.5,330L461.5,330L461.5,320ZM437.5,325L450,350M587.5,375L600,350M450,375L462.5,400M437.5,400L612.5,400M587.5,400L600,375M438.5,395L438.5,405L436.5,405L436.5,395ZM613.5,395L613.5,405L611.5,405L611.5,395Z" style=""></path><text x="40" y="362.5" text-anchor="middle" font="10px &quot;Arial&quot;" stroke="none" fill="#000000" style="" font-size="8px" class="sig8"><tspan dy="2.5" style="">B</tspan></text><text x="100" y="330" text-anchor="middle" font="10px &quot;Arial&quot;" stroke="none" fill="#000000" style="" font-size="8px" class="sig8"><tspan dy="2.5" style="">Bearsted</tspan></text><rect x="75" y="335.5" width="50" height="3" r="0" rx="0" ry="0" fill="#cccccc" stroke="#cccccc" style=""></rect><text x="100" y="333.5" text-anchor="middle" font="10px &quot;Arial&quot;" stroke="none" fill="#000000" style="" font-size="7px" class="sig7"><tspan dy="333.5" style=""></tspan></text><text x="100" y="341.5" text-anchor="middle" font="10px &quot;Arial&quot;" stroke="none" fill="#000000" style="" font-size="7px" class="sig7"><tspan dy="2" style="">2</tspan></text><rect x="75" y="385.5" width="50" height="3" r="0" rx="0" ry="0" fill="#cccccc" stroke="#cccccc" style=""></rect><text x="100" y="383.5" text-anchor="middle" font="10px &quot;Arial&quot;" stroke="none" fill="#000000" style="" font-size="7px" class="sig7"><tspan dy="2" style="">1</tspan></text><text x="100" y="391.5" text-anchor="middle" font="10px &quot;Arial&quot;" stroke="none" fill="#000000" style="" font-size="7px" class="sig7"><tspan dy="391.5" style=""></tspan></text><path fill="#ffffff" stroke="#000000" d="M80,342L120,342L120,358L80,358Z" id="b_M193" class="berth"></path><text x="100" y="350" text-anchor="middle" font="10px &quot;Arial&quot;" stroke="none" fill="#999999" font-size="10px" id="t_M193" def="M193" class="berth sig10"><tspan dy="3.5" style="-webkit-tap-highlight-color: rgba(0, 0, 0, 0);">M193</tspan></text><path fill="#ffffff" stroke="#000000" d="M80,367L120,367L120,383L80,383Z" id="b_M194" class="berth"></path><text x="100" y="375" text-anchor="middle" font="10px &quot;Arial&quot;" stroke="none" fill="#999999" font-size="10px" id="t_M194" def="M194" class="berth sig10"><tspan dy="3.5" style="-webkit-tap-highlight-color: rgba(0, 0, 0, 0);">M194</tspan></text><path fill="#ffffff" stroke="#000000" d="M130,342L170,342L170,358L130,358Z" id="b_M195" class="berth"></path><text x="150" y="350" text-anchor="middle" font="10px &quot;Arial&quot;" stroke="none" fill="#999999" font-size="10px" id="t_M195" def="M195" class="berth sig10"><tspan dy="3.5" style="-webkit-tap-highlight-color: rgba(0, 0, 0, 0);">M195</tspan></text><text x="200" y="330" text-anchor="middle" font="10px &quot;Arial&quot;" stroke="none" fill="#000000" style="" font-size="8px" class="sig8"><tspan dy="2.5" style="">Hollingbourne</tspan></text><rect x="175" y="335.5" width="50" height="3" r="0" rx="0" ry="0" fill="#cccccc" stroke="#cccccc" style=""></rect><text x="200" y="333.5" text-anchor="middle" font="10px &quot;Arial&quot;" stroke="none" fill="#000000" style="" font-size="7px" class="sig7"><tspan dy="333.5" style=""></tspan></text><text x="200" y="341.5" text-anchor="middle" font="10px &quot;Arial&quot;" stroke="none" fill="#000000" style="" font-size="7px" class="sig7"><tspan dy="2" style="">2</tspan></text><rect x="175" y="385.5" width="50" height="3" r="0" rx="0" ry="0" fill="#cccccc" stroke="#cccccc" style=""></rect><text x="200" y="383.5" text-anchor="middle" font="10px &quot;Arial&quot;" stroke="none" fill="#000000" style="" font-size="7px" class="sig7"><tspan dy="2" style="">1</tspan></text><text x="200" y="391.5" text-anchor="middle" font="10px &quot;Arial&quot;" stroke="none" fill="#000000" style="" font-size="7px" class="sig7"><tspan dy="391.5" style=""></tspan></text><path fill="#ffffff" stroke="#000000" d="M180,342L220,342L220,358L180,358Z" id="b_M197" class="berth"></path><text x="200" y="350" text-anchor="middle" font="10px &quot;Arial&quot;" stroke="none" fill="#999999" font-size="10px" id="t_M197" def="M197" class="berth sig10"><tspan dy="3.5" style="-webkit-tap-highlight-color: rgba(0, 0, 0, 0);">M197</tspan></text><path fill="#ffffff" stroke="#000000" d="M180,367L220,367L220,383L180,383Z" id="b_M196" class="berth"></path><text x="200" y="375" text-anchor="middle" font="10px &quot;Arial&quot;" stroke="none" fill="#999999" font-size="10px" id="t_M196" def="M196" class="berth sig10"><tspan dy="3.5" style="-webkit-tap-highlight-color: rgba(0, 0, 0, 0);">M196</tspan></text><path fill="#ffffff" stroke="#000000" d="M230,342L270,342L270,358L230,358Z" id="b_M199" class="berth"></path><text x="250" y="350" text-anchor="middle" font="10px &quot;Arial&quot;" stroke="none" fill="#999999" font-size="10px" id="t_M199" def="M199" class="berth sig10"><tspan dy="3.5" style="-webkit-tap-highlight-color: rgba(0, 0, 0, 0);">M199</tspan></text><path fill="#ffffff" stroke="#000000" d="M230,367L270,367L270,383L230,383Z" id="b_M198" class="berth"></path><text x="250" y="375" text-anchor="middle" font="10px &quot;Arial&quot;" stroke="none" fill="#999999" font-size="10px" id="t_M198" def="M198" class="berth sig10"><tspan dy="3.5" style="-webkit-tap-highlight-color: rgba(0, 0, 0, 0);">M198</tspan></text><text x="300" y="330" text-anchor="middle" font="10px &quot;Arial&quot;" stroke="none" fill="#000000" style="" font-size="8px" class="sig8"><tspan dy="2.5" style="">Harrietsham</tspan></text><rect x="275" y="335.5" width="50" height="3" r="0" rx="0" ry="0" fill="#cccccc" stroke="#cccccc" style=""></rect><text x="300" y="333.5" text-anchor="middle" font="10px &quot;Arial&quot;" stroke="none" fill="#000000" style="" font-size="7px" class="sig7"><tspan dy="333.5" style=""></tspan></text><text x="300" y="341.5" text-anchor="middle" font="10px &quot;Arial&quot;" stroke="none" fill="#000000" style="" font-size="7px" class="sig7"><tspan dy="2" style="">2</tspan></text><rect x="275" y="385.5" width="50" height="3" r="0" rx="0" ry="0" fill="#cccccc" stroke="#cccccc" style=""></rect><text x="300" y="383.5" text-anchor="middle" font="10px &quot;Arial&quot;" stroke="none" fill="#000000" style="" font-size="7px" class="sig7"><tspan dy="2" style="">1</tspan></text><text x="300" y="391.5" text-anchor="middle" font="10px &quot;Arial&quot;" stroke="none" fill="#000000" style="" font-size="7px" class="sig7"><tspan dy="391.5" style=""></tspan></text><path fill="#ffffff" stroke="#000000" d="M280,342L320,342L320,358L280,358Z" id="b_M201" class="berth"></path><text x="300" y="350" text-anchor="middle" font="10px &quot;Arial&quot;" stroke="none" fill="#999999" font-size="10px" id="t_M201" def="M201" class="berth sig10"><tspan dy="3.5" style="-webkit-tap-highlight-color: rgba(0, 0, 0, 0);">M201</tspan></text><path fill="#ffffff" stroke="#000000" d="M280,367L320,367L320,383L280,383Z" id="b_M200" class="berth"></path><text x="300" y="375" text-anchor="middle" font="10px &quot;Arial&quot;" stroke="none" fill="#999999" font-size="10px" id="t_M200" def="M200" class="berth sig10"><tspan dy="3.5" style="-webkit-tap-highlight-color: rgba(0, 0, 0, 0);">M200</tspan></text><path fill="#ffffff" stroke="#000000" d="M380,317L420,317L420,333L380,333Z" id="b_M205" class="berth"></path><text x="400" y="325" text-anchor="middle" font="10px &quot;Arial&quot;" stroke="none" fill="#999999" font-size="10px" id="t_M205" def="M205" class="berth sig10"><tspan dy="3.5" style="-webkit-tap-highlight-color: rgba(0, 0, 0, 0);">M205</tspan></text><text x="525" y="330" text-anchor="middle" font="10px &quot;Arial&quot;" stroke="none" fill="#000000" style="" font-size="8px" class="sig8"><tspan dy="2.5" style="">Lenham</tspan></text><rect x="475" y="335.5" width="100" height="3" r="0" rx="0" ry="0" fill="#cccccc" stroke="#cccccc" style=""></rect><text x="525" y="333.5" text-anchor="middle" font="10px &quot;Arial&quot;" stroke="none" fill="#000000" style="" font-size="7px" class="sig7"><tspan dy="333.5" style=""></tspan></text><text x="525" y="341.5" text-anchor="middle" font="10px &quot;Arial&quot;" stroke="none" fill="#000000" style="" font-size="7px" class="sig7"><tspan dy="2" style="">2</tspan></text><rect x="475" y="385.5" width="100" height="3" r="0" rx="0" ry="0" fill="#cccccc" stroke="#cccccc" style=""></rect><text x="525" y="383.5" text-anchor="middle" font="10px &quot;Arial&quot;" stroke="none" fill="#000000" style="" font-size="7px" class="sig7"><tspan dy="2" style="">1</tspan></text><text x="525" y="391.5" text-anchor="middle" font="10px &quot;Arial&quot;" stroke="none" fill="#000000" style="" font-size="7px" class="sig7"><tspan dy="391.5" style=""></tspan></text><path fill="#ffffff" stroke="#000000" d="M480,367L520,367L520,383L480,383L476,375Z" id="b_M204" class="berth"></path><text x="500" y="375" text-anchor="middle" font="10px &quot;Arial&quot;" stroke="none" fill="#999999" font-size="10px" id="t_M204" def="M204" class="berth sig10"><tspan dy="3.5" style="-webkit-tap-highlight-color: rgba(0, 0, 0, 0);">M204</tspan></text><path fill="#ffffff" stroke="#000000" d="M480,392L520,392L520,408L480,408L476,400Z" id="b_M206" class="berth"></path><text x="500" y="400" text-anchor="middle" font="10px &quot;Arial&quot;" stroke="none" fill="#999999" font-size="10px" id="t_M206" def="M206" class="berth sig10"><tspan dy="3.5" style="-webkit-tap-highlight-color: rgba(0, 0, 0, 0);">M206</tspan></text><path fill="#ffffff" stroke="#000000" d="M630,342L670,342L670,358L630,358Z" id="b_M211" class="berth"></path><text x="650" y="350" text-anchor="middle" font="10px &quot;Arial&quot;" stroke="none" fill="#999999" font-size="10px" id="t_M211" def="M211" class="berth sig10"><tspan dy="3.5" style="-webkit-tap-highlight-color: rgba(0, 0, 0, 0);">M211</tspan></text><path fill="#ffffff" stroke="#000000" d="M630,367L670,367L670,383L630,383Z" id="b_M210" class="berth"></path><text x="650" y="375" text-anchor="middle" font="10px &quot;Arial&quot;" stroke="none" fill="#999999" font-size="10px" id="t_M210" def="M210" class="berth sig10"><tspan dy="3.5" style="-webkit-tap-highlight-color: rgba(0, 0, 0, 0);">M210</tspan></text><text x="710" y="362.5" text-anchor="middle" font="10px &quot;Arial&quot;" stroke="none" fill="#000000" style="" font-size="8px" class="sig8"><tspan dy="2.5" style="">C</tspan></text><path fill="#888888" stroke="#888888" d="M50,475L700,475M50,500L700,500M312.5,500L325,475M337.5,475L350,450M350,450L425,450M375,475L387.5,500M400,500L412.5,475M412.5,500L425,525M425,525L600,525M600,525L612.5,500M625,500L637.5,475" style=""></path><text x="40" y="487.5" text-anchor="middle" font="10px &quot;Arial&quot;" stroke="none" fill="#000000" style="" font-size="8px" class="sig8"><tspan dy="2.5" style="">C</tspan></text><path fill="#ffffff" stroke="#000000" d="M80,467L120,467L120,483L80,483Z" id="b_M213" class="berth"></path><text x="100" y="475" text-anchor="middle" font="10px &quot;Arial&quot;" stroke="none" fill="#999999" font-size="10px" id="t_M213" def="M213" class="berth sig10"><tspan dy="3.5" style="-webkit-tap-highlight-color: rgba(0, 0, 0, 0);">M213</tspan></text><path fill="#ffffff" stroke="#000000" d="M80,492L120,492L120,508L80,508Z" id="b_M212" class="berth"></path><text x="100" y="500" text-anchor="middle" font="10px &quot;Arial&quot;" stroke="none" fill="#999999" font-size="10px" id="t_M212" def="M212" class="berth sig10"><tspan dy="3.5" style="-webkit-tap-highlight-color: rgba(0, 0, 0, 0);">M212</tspan></text><text x="150" y="455" text-anchor="middle" font="10px &quot;Arial&quot;" stroke="none" fill="#000000" style="" font-size="8px" class="sig8"><tspan dy="2.5" style="">Charing</tspan></text><rect x="125" y="460.5" width="50" height="3" r="0" rx="0" ry="0" fill="#cccccc" stroke="#cccccc" style=""></rect><text x="150" y="458.5" text-anchor="middle" font="10px &quot;Arial&quot;" stroke="none" fill="#000000" style="" font-size="7px" class="sig7"><tspan dy="458.5" style=""></tspan></text><text x="150" y="466.5" text-anchor="middle" font="10px &quot;Arial&quot;" stroke="none" fill="#000000" style="" font-size="7px" class="sig7"><tspan dy="2" style="">2</tspan></text><rect x="125" y="510.5" width="50" height="3" r="0" rx="0" ry="0" fill="#cccccc" stroke="#cccccc" style=""></rect><text x="150" y="508.5" text-anchor="middle" font="10px &quot;Arial&quot;" stroke="none" fill="#000000" style="" font-size="7px" class="sig7"><tspan dy="2" style="">1</tspan></text><text x="150" y="516.5" text-anchor="middle" font="10px &quot;Arial&quot;" stroke="none" fill="#000000" style="" font-size="7px" class="sig7"><tspan dy="516.5" style=""></tspan></text><path fill="#ffffff" stroke="#000000" d="M130,467L170,467L170,483L130,483Z" id="b_M215" class="berth"></path><text x="150" y="475" text-anchor="middle" font="10px &quot;Arial&quot;" stroke="none" fill="#999999" font-size="10px" id="t_M215" def="M215" class="berth sig10"><tspan dy="3.5" style="-webkit-tap-highlight-color: rgba(0, 0, 0, 0);">M215</tspan></text><path fill="#ffffff" stroke="#000000" d="M130,492L170,492L170,508L130,508Z" id="b_M214" class="berth"></path><text x="150" y="500" text-anchor="middle" font="10px &quot;Arial&quot;" stroke="none" fill="#999999" font-size="10px" id="t_M214" def="M214" class="berth sig10"><tspan dy="3.5" style="-webkit-tap-highlight-color: rgba(0, 0, 0, 0);">M214</tspan></text><path fill="#ffffff" stroke="#000000" d="M180,467L220,467L220,483L180,483Z" id="b_M217" class="berth"></path><text x="200" y="475" text-anchor="middle" font="10px &quot;Arial&quot;" stroke="none" fill="#999999" font-size="10px" id="t_M217" def="M217" class="berth sig10"><tspan dy="3.5" style="-webkit-tap-highlight-color: rgba(0, 0, 0, 0);">M217</tspan></text><path fill="#ffffff" stroke="#000000" d="M180,492L220,492L220,508L180,508Z" id="b_M216" class="berth"></path><text x="200" y="500" text-anchor="middle" font="10px &quot;Arial&quot;" stroke="none" fill="#999999" font-size="10px" id="t_M216" def="M216" class="berth sig10"><tspan dy="3.5" style="-webkit-tap-highlight-color: rgba(0, 0, 0, 0);">M216</tspan></text><path fill="#ffffff" stroke="#000000" d="M230,492L270,492L270,508L230,508Z" id="b_M218" class="berth"></path><text x="250" y="500" text-anchor="middle" font="10px &quot;Arial&quot;" stroke="none" fill="#999999" font-size="10px" id="t_M218" def="M218" class="berth sig10"><tspan dy="3.5" style="-webkit-tap-highlight-color: rgba(0, 0, 0, 0);">M218</tspan></text><path fill="#ffffff" stroke="#000000" d="M330,492L370,492L370,508L330,508Z" id="b_M347" class="berth"></path><text x="350" y="500" text-anchor="middle" font="10px &quot;Arial&quot;" stroke="none" fill="#999999" font-size="10px" id="t_M347" def="M347" class="berth sig10"><tspan dy="3.5" style="-webkit-tap-highlight-color: rgba(0, 0, 0, 0);">M347</tspan></text><text x="387.5" y="430" text-anchor="middle" font="10px &quot;Arial&quot;" stroke="none" fill="#000000" style="" font-size="8px" class="sig8"><tspan dy="2.5" style="">Hothfield Sidings</tspan></text><path fill="#ffffff" stroke="#000000" d="M367.5,442L407.5,442L407.5,458L367.5,458L363.5,450Z" id="b_M344" class="berth"></path><text x="387.5" y="450" text-anchor="middle" font="10px &quot;Arial&quot;" stroke="none" fill="#999999" font-size="10px" id="t_M344" def="M344" class="berth sig10"><tspan dy="3.5" style="-webkit-tap-highlight-color: rgba(0, 0, 0, 0);">M344</tspan></text><text x="537.5" y="455" text-anchor="middle" font="10px &quot;Arial&quot;" stroke="none" fill="#000000" style="" font-size="8px" class="sig8"><tspan dy="2.5" style="">Beechbrook Farm</tspan></text><path fill="#ffffff" stroke="#000000" d="M442.5,517L482.5,517L482.5,533L442.5,533L438.5,525Z" id="b_M226" class="berth"></path><text x="462.5" y="525" text-anchor="middle" font="10px &quot;Arial&quot;" stroke="none" fill="#999999" font-size="10px" id="t_M226" def="M226" class="berth sig10"><tspan dy="3.5" style="-webkit-tap-highlight-color: rgba(0, 0, 0, 0);">M226</tspan></text><path fill="#ffffff" stroke="#000000" d="M492.5,517L532.5,517L532.5,533L492.5,533Z" id="b_M227" class="berth"></path><text x="512.5" y="525" text-anchor="middle" font="10px &quot;Arial&quot;" stroke="none" fill="#999999" font-size="10px" id="t_M227" def="M227" class="berth sig10"><tspan dy="3.5" style="-webkit-tap-highlight-color: rgba(0, 0, 0, 0);">M227</tspan></text><path fill="#ffffff" stroke="#000000" d="M542.5,517L582.5,517L586.5,525L582.5,533L542.5,533Z" id="b_M231" class="berth"></path><text x="562.5" y="525" text-anchor="middle" font="10px &quot;Arial&quot;" stroke="none" fill="#999999" font-size="10px" id="t_M231" def="M231" class="berth sig10"><tspan dy="3.5" style="-webkit-tap-highlight-color: rgba(0, 0, 0, 0);">M231</tspan></text><path fill="#ffffff" stroke="#000000" d="M648.75,467L688.75,467L688.75,483L648.75,483Z" id="b_M223" class="berth"></path><text x="668.75" y="475" text-anchor="middle" font="10px &quot;Arial&quot;" stroke="none" fill="#999999" font-size="10px" id="t_M223" def="M223" class="berth sig10"><tspan dy="3.5" style="-webkit-tap-highlight-color: rgba(0, 0, 0, 0);">M223</tspan></text><path fill="#ffffff" stroke="#000000" d="M648.75,492L688.75,492L688.75,508L648.75,508Z" id="b_M224" class="berth"></path><text x="668.75" y="500" text-anchor="middle" font="10px &quot;Arial&quot;" stroke="none" fill="#999999" font-size="10px" id="t_M224" def="M224" class="berth sig10"><tspan dy="3.5" style="-webkit-tap-highlight-color: rgba(0, 0, 0, 0);">M224</tspan></text><text x="710" y="487.5" text-anchor="middle" font="10px &quot;Arial&quot;" stroke="none" fill="#000000" style="" font-size="8px" class="sig8"><tspan dy="2.5" style="">A2</tspan></text></svg>