<svg height="550" version="1.1" width="750" xmlns="http://www.w3.org/2000/svg" style="overflow: hidden; position: relative; left: -0.390625px;"><desc style="-webkit-tap-highlight-color: rgba(0, 0, 0, 0);">Created with Raphaël 2.1.2</desc><defs style="-webkit-tap-highlight-color: rgba(0, 0, 0, 0);"></defs><path fill="#888888" stroke="#888888" d="M50,125L700,125M50,150L700,150M137.5,150L150,125M162.5,125L200,50M200,50L300,50M400,125L375,75M250,75L375,75M500,125L512.5,150M600,125L625,175M625,175L700,175M587.5,150L612.5,200M612.5,200L700,200" style=""></path><text x="40" y="137.5" text-anchor="middle" font="10px &quot;Arial&quot;" stroke="none" fill="#000000" style="" font-size="8px" class="sig8"><tspan dy="2.5" style="">to Crouch Hill</tspan></text><path fill="#ffffff" stroke="#000000" d="M80,117L120,117L124,125L120,133L80,133Z" id="b_ST07" class="berth"></path><text x="100" y="125" text-anchor="middle" font="10px &quot;Arial&quot;" stroke="none" fill="#999999" font-size="10px" id="t_ST07" def="ST07" class="berth sig10"><tspan dy="3.5" style="-webkit-tap-highlight-color: rgba(0, 0, 0, 0);">ST07</tspan></text><path fill="#ffffff" stroke="#000000" d="M80,142L120,142L120,158L80,158L76,150Z" id="b_ST04" class="berth"></path><text x="100" y="150" text-anchor="middle" font="10px &quot;Arial&quot;" stroke="none" fill="#999999" font-size="10px" id="t_ST04" def="ST04" class="berth sig10"><tspan dy="3.5" style="-webkit-tap-highlight-color: rgba(0, 0, 0, 0);">ST04</tspan></text><path fill="#ffffff" stroke="#000000" d="M180,117L220,117L224,125L220,133L180,133Z" id="b_ST09" class="berth"></path><text x="200" y="125" text-anchor="middle" font="10px &quot;Arial&quot;" stroke="none" fill="#999999" font-size="10px" id="t_ST09" def="ST09" class="berth sig10"><tspan dy="3.5" style="-webkit-tap-highlight-color: rgba(0, 0, 0, 0);">ST09</tspan></text><path fill="#ffffff" stroke="#000000" d="M180,142L220,142L220,158L180,158L176,150Z" id="b_ST06" class="berth"></path><text x="200" y="150" text-anchor="middle" font="10px &quot;Arial&quot;" stroke="none" fill="#999999" font-size="10px" id="t_ST06" def="ST06" class="berth sig10"><tspan dy="3.5" style="-webkit-tap-highlight-color: rgba(0, 0, 0, 0);">ST06</tspan></text><text x="250" y="180" text-anchor="middle" font="10px &quot;Arial&quot;" stroke="none" fill="#000000" style="" font-size="8px" class="sig8"><tspan dy="-2.296875" style="">Harringay</tspan><tspan dy="9.6" x="250" style="">Green Lanes</tspan></text><rect x="225" y="110.5" width="50" height="3" r="0" rx="0" ry="0" fill="#cccccc" stroke="#cccccc" style=""></rect><text x="250" y="108.5" text-anchor="middle" font="10px &quot;Arial&quot;" stroke="none" fill="#000000" style="" font-size="7px" class="sig7"><tspan dy="108.5" style=""></tspan></text><text x="250" y="116.5" text-anchor="middle" font="10px &quot;Arial&quot;" stroke="none" fill="#000000" style="" font-size="7px" class="sig7"><tspan dy="2" style="">2</tspan></text><rect x="225" y="160.5" width="50" height="3" r="0" rx="0" ry="0" fill="#cccccc" stroke="#cccccc" style=""></rect><text x="250" y="158.5" text-anchor="middle" font="10px &quot;Arial&quot;" stroke="none" fill="#000000" style="" font-size="7px" class="sig7"><tspan dy="2" style="">1</tspan></text><text x="250" y="166.5" text-anchor="middle" font="10px &quot;Arial&quot;" stroke="none" fill="#000000" style="" font-size="7px" class="sig7"><tspan dy="166.5" style=""></tspan></text><path fill="#ffff00" stroke="#000000" d="M230,117L270,117L274,125L270,133L230,133Z" id="b_ST11" class="berth"></path><text x="250" y="125" text-anchor="middle" font="10px &quot;Arial&quot;" stroke="none" fill="#000000" font-size="10px" id="t_ST11" def="ST11" class="berth sig10"><tspan dy="3.5" style="-webkit-tap-highlight-color: rgba(0, 0, 0, 0);">2J91</tspan></text><path fill="#ffffff" stroke="#000000" d="M230,142L270,142L270,158L230,158L226,150Z" id="b_ST08" class="berth"></path><text x="250" y="150" text-anchor="middle" font="10px &quot;Arial&quot;" stroke="none" fill="#999999" font-size="10px" id="t_ST08" def="ST08" class="berth sig10"><tspan dy="3.5" style="-webkit-tap-highlight-color: rgba(0, 0, 0, 0);">ST08</tspan></text><path fill="#ffffff" stroke="#000000" d="M211.25,42L251.25,42L251.25,58L211.25,58L207.25,50Z" id="b_ST30" class="berth"></path><text x="231.25" y="50" text-anchor="middle" font="10px &quot;Arial&quot;" stroke="none" fill="#999999" font-size="10px" id="t_ST30" def="ST30" class="berth sig10"><tspan dy="3.5" style="-webkit-tap-highlight-color: rgba(0, 0, 0, 0);">ST30</tspan></text><text x="310" y="55" text-anchor="middle" font="10px &quot;Arial&quot;" stroke="none" fill="#000000" style="" font-size="8px" class="sig8"><tspan dy="2.5" style="">KX</tspan></text><text x="280" y="45" text-anchor="middle" font="10px &quot;Arial&quot;" stroke="none" fill="#000000" style="" font-size="8px" class="sig8"><tspan dy="2.5" style="">to Harringay Jn</tspan></text><path fill="#ffffff" stroke="#000000" d="M305,67L345,67L349,75L345,83L305,83Z" id="b_ST16" class="berth"></path><text x="325" y="75" text-anchor="middle" font="10px &quot;Arial&quot;" stroke="none" fill="#999999" font-size="10px" id="t_ST16" def="ST16" class="berth sig10"><tspan dy="3.5" style="-webkit-tap-highlight-color: rgba(0, 0, 0, 0);">ST16</tspan></text><text x="230" y="80" text-anchor="middle" font="10px &quot;Arial&quot;" stroke="none" fill="#000000" style="" font-size="8px" class="sig8"><tspan dy="2.5" style="">WG</tspan></text><text x="260" y="70" text-anchor="middle" font="10px &quot;Arial&quot;" stroke="none" fill="#000000" style="" font-size="8px" class="sig8"><tspan dy="2.5" style="">Seven Sisters Chord</tspan></text><path fill="#ffffff" stroke="#000000" d="M280,142L320,142L320,158L280,158L276,150Z" id="b_ST10" class="berth"></path><text x="300" y="150" text-anchor="middle" font="10px &quot;Arial&quot;" stroke="none" fill="#999999" font-size="10px" id="t_ST10" def="ST10" class="berth sig10"><tspan dy="3.5" style="-webkit-tap-highlight-color: rgba(0, 0, 0, 0);">ST10</tspan></text><path fill="#ffffff" stroke="#000000" d="M330,117L370,117L374,125L370,133L330,133Z" id="b_ST13" class="berth"></path><text x="350" y="125" text-anchor="middle" font="10px &quot;Arial&quot;" stroke="none" fill="#999999" font-size="10px" id="t_ST13" def="ST13" class="berth sig10"><tspan dy="3.5" style="-webkit-tap-highlight-color: rgba(0, 0, 0, 0);">ST13</tspan></text><path fill="#ffffff" stroke="#000000" d="M330,142L370,142L370,158L330,158L326,150Z" id="b_ST12" class="berth"></path><text x="350" y="150" text-anchor="middle" font="10px &quot;Arial&quot;" stroke="none" fill="#999999" font-size="10px" id="t_ST12" def="ST12" class="berth sig10"><tspan dy="3.5" style="-webkit-tap-highlight-color: rgba(0, 0, 0, 0);">ST12</tspan></text><text x="450" y="97.5" text-anchor="middle" font="10px &quot;Arial&quot;" stroke="none" fill="#000000" style="" font-size="8px" class="sig8"><tspan dy="2.5" style="">South Tottenham</tspan></text><rect x="425" y="110.5" width="50" height="3" r="0" rx="0" ry="0" fill="#cccccc" stroke="#cccccc" style=""></rect><text x="450" y="108.5" text-anchor="middle" font="10px &quot;Arial&quot;" stroke="none" fill="#000000" style="" font-size="7px" class="sig7"><tspan dy="108.5" style=""></tspan></text><text x="450" y="116.5" text-anchor="middle" font="10px &quot;Arial&quot;" stroke="none" fill="#000000" style="" font-size="7px" class="sig7"><tspan dy="2" style="">2</tspan></text><rect x="425" y="160.5" width="50" height="3" r="0" rx="0" ry="0" fill="#cccccc" stroke="#cccccc" style=""></rect><text x="450" y="158.5" text-anchor="middle" font="10px &quot;Arial&quot;" stroke="none" fill="#000000" style="" font-size="7px" class="sig7"><tspan dy="2" style="">1</tspan></text><text x="450" y="166.5" text-anchor="middle" font="10px &quot;Arial&quot;" stroke="none" fill="#000000" style="" font-size="7px" class="sig7"><tspan dy="166.5" style=""></tspan></text><path fill="#ffffff" stroke="#000000" d="M530,142L570,142L570,158L530,158L526,150Z" id="b_ST42" class="berth"></path><text x="550" y="150" text-anchor="middle" font="10px &quot;Arial&quot;" stroke="none" fill="#999999" font-size="10px" id="t_ST42" def="ST42" class="berth sig10"><tspan dy="3.5" style="-webkit-tap-highlight-color: rgba(0, 0, 0, 0);">ST42</tspan></text><path fill="#ffffff" stroke="#000000" d="M642.5,117L682.5,117L686.5,125L682.5,133L642.5,133Z" id="b_ST19" class="berth"></path><text x="662.5" y="125" text-anchor="middle" font="10px &quot;Arial&quot;" stroke="none" fill="#999999" font-size="10px" id="t_ST19" def="ST19" class="berth sig10"><tspan dy="3.5" style="-webkit-tap-highlight-color: rgba(0, 0, 0, 0);">ST19</tspan></text><path fill="#ffff00" stroke="#000000" d="M642.5,142L682.5,142L682.5,158L642.5,158L638.5,150Z" id="b_ST18" class="berth"></path><text x="662.5" y="150" text-anchor="middle" font="10px &quot;Arial&quot;" stroke="none" fill="#000000" font-size="10px" id="t_ST18" def="ST18" class="berth sig10"><tspan dy="3.5" style="-webkit-tap-highlight-color: rgba(0, 0, 0, 0);">2J86</tspan></text><text x="710" y="137.5" text-anchor="middle" font="10px &quot;Arial&quot;" stroke="none" fill="#000000" style="" font-size="8px" class="sig8"><tspan dy="2.5" style="">A</tspan></text><path fill="#ffffff" stroke="#000000" d="M642.5,192L682.5,192L682.5,208L642.5,208L638.5,200Z" id="b_ST17" class="berth"></path><text x="662.5" y="200" text-anchor="middle" font="10px &quot;Arial&quot;" stroke="none" fill="#999999" font-size="10px" id="t_ST17" def="ST17" class="berth sig10"><tspan dy="3.5" style="-webkit-tap-highlight-color: rgba(0, 0, 0, 0);">ST17</tspan></text><text x="710" y="187.5" text-anchor="middle" font="10px &quot;Arial&quot;" stroke="none" fill="#000000" style="" font-size="8px" class="sig8"><tspan dy="2.5" style="">WG</tspan></text><text x="656.25" y="185" text-anchor="middle" font="10px &quot;Arial&quot;" stroke="none" fill="#000000" style="" font-size="8px" class="sig8"><tspan dy="2.5" style="">Tottenham South Curve</tspan></text><text x="656.25" y="217.5" text-anchor="middle" font="10px &quot;Arial&quot;" stroke="none" fill="#000000" style="" font-size="8px" class="sig8"><tspan dy="2.5" style="">to Tottenham South Jn</tspan></text><path fill="#888888" stroke="#888888" d="M50,275L450,275M50,300L450,300" style=""></path><text x="40" y="287.5" text-anchor="middle" font="10px &quot;Arial&quot;" stroke="none" fill="#000000" style="" font-size="8px" class="sig8"><tspan dy="2.5" style="">A</tspan></text><text x="100" y="247.5" text-anchor="middle" font="10px &quot;Arial&quot;" stroke="none" fill="#000000" style="" font-size="8px" class="sig8"><tspan dy="-2.296875" style="">Blackhorse</tspan><tspan dy="9.6" x="100" style="">Road</tspan></text><rect x="75" y="260.5" width="50" height="3" r="0" rx="0" ry="0" fill="#cccccc" stroke="#cccccc" style=""></rect><text x="100" y="258.5" text-anchor="middle" font="10px &quot;Arial&quot;" stroke="none" fill="#000000" style="" font-size="7px" class="sig7"><tspan dy="258.5" style=""></tspan></text><text x="100" y="266.5" text-anchor="middle" font="10px &quot;Arial&quot;" stroke="none" fill="#000000" style="" font-size="7px" class="sig7"><tspan dy="266.5" style=""></tspan></text><rect x="75" y="310.5" width="50" height="3" r="0" rx="0" ry="0" fill="#cccccc" stroke="#cccccc" style=""></rect><text x="100" y="308.5" text-anchor="middle" font="10px &quot;Arial&quot;" stroke="none" fill="#000000" style="" font-size="7px" class="sig7"><tspan dy="308.5" style=""></tspan></text><text x="100" y="316.5" text-anchor="middle" font="10px &quot;Arial&quot;" stroke="none" fill="#000000" style="" font-size="7px" class="sig7"><tspan dy="316.5" style=""></tspan></text><path fill="#ffff00" stroke="#000000" d="M80,267L120,267L124,275L120,283L80,283Z" id="b_ST21" class="berth"></path><text x="100" y="275" text-anchor="middle" font="10px &quot;Arial&quot;" stroke="none" fill="#000000" font-size="10px" id="t_ST21" def="ST21" class="berth sig10"><tspan dy="3.5" style="-webkit-tap-highlight-color: rgba(0, 0, 0, 0);">2J89</tspan></text><path fill="#ffffff" stroke="#000000" d="M80,292L120,292L120,308L80,308L76,300Z" id="b_ST20" class="berth"></path><text x="100" y="300" text-anchor="middle" font="10px &quot;Arial&quot;" stroke="none" fill="#999999" font-size="10px" id="t_ST20" def="ST20" class="berth sig10"><tspan dy="3.5" style="-webkit-tap-highlight-color: rgba(0, 0, 0, 0);">ST20</tspan></text><text x="175" y="247.5" text-anchor="middle" font="10px &quot;Arial&quot;" stroke="none" fill="#000000" style="" font-size="8px" class="sig8"><tspan dy="-2.296875" style="">Walthamstow</tspan><tspan dy="9.6" x="175" style="">Queens Road</tspan></text><rect x="150" y="260.5" width="50" height="3" r="0" rx="0" ry="0" fill="#cccccc" stroke="#cccccc" style=""></rect><text x="175" y="258.5" text-anchor="middle" font="10px &quot;Arial&quot;" stroke="none" fill="#000000" style="" font-size="7px" class="sig7"><tspan dy="258.5" style=""></tspan></text><text x="175" y="266.5" text-anchor="middle" font="10px &quot;Arial&quot;" stroke="none" fill="#000000" style="" font-size="7px" class="sig7"><tspan dy="266.5" style=""></tspan></text><rect x="150" y="310.5" width="50" height="3" r="0" rx="0" ry="0" fill="#cccccc" stroke="#cccccc" style=""></rect><text x="175" y="308.5" text-anchor="middle" font="10px &quot;Arial&quot;" stroke="none" fill="#000000" style="" font-size="7px" class="sig7"><tspan dy="308.5" style=""></tspan></text><text x="175" y="316.5" text-anchor="middle" font="10px &quot;Arial&quot;" stroke="none" fill="#000000" style="" font-size="7px" class="sig7"><tspan dy="316.5" style=""></tspan></text><path fill="#ffffff" stroke="#000000" d="M155,267L195,267L199,275L195,283L155,283Z" id="b_ST23" class="berth"></path><text x="175" y="275" text-anchor="middle" font="10px &quot;Arial&quot;" stroke="none" fill="#999999" font-size="10px" id="t_ST23" def="ST23" class="berth sig10"><tspan dy="3.5" style="-webkit-tap-highlight-color: rgba(0, 0, 0, 0);">ST23</tspan></text><path fill="#ffffff" stroke="#000000" d="M155,292L195,292L195,308L155,308L151,300Z" id="b_ST22" class="berth"></path><text x="175" y="300" text-anchor="middle" font="10px &quot;Arial&quot;" stroke="none" fill="#999999" font-size="10px" id="t_ST22" def="ST22" class="berth sig10"><tspan dy="3.5" style="-webkit-tap-highlight-color: rgba(0, 0, 0, 0);">ST22</tspan></text><path fill="#ffffff" stroke="#000000" d="M230,267L270,267L274,275L270,283L230,283Z" id="b_ST25" class="berth"></path><text x="250" y="275" text-anchor="middle" font="10px &quot;Arial&quot;" stroke="none" fill="#999999" font-size="10px" id="t_ST25" def="ST25" class="berth sig10"><tspan dy="3.5" style="-webkit-tap-highlight-color: rgba(0, 0, 0, 0);">ST25</tspan></text><text x="325" y="247.5" text-anchor="middle" font="10px &quot;Arial&quot;" stroke="none" fill="#000000" style="" font-size="8px" class="sig8"><tspan dy="-2.296875" style="">Leyton Midland</tspan><tspan dy="9.6" x="325" style="">Road</tspan></text><rect x="300" y="260.5" width="50" height="3" r="0" rx="0" ry="0" fill="#cccccc" stroke="#cccccc" style=""></rect><text x="325" y="258.5" text-anchor="middle" font="10px &quot;Arial&quot;" stroke="none" fill="#000000" style="" font-size="7px" class="sig7"><tspan dy="258.5" style=""></tspan></text><text x="325" y="266.5" text-anchor="middle" font="10px &quot;Arial&quot;" stroke="none" fill="#000000" style="" font-size="7px" class="sig7"><tspan dy="266.5" style=""></tspan></text><rect x="300" y="310.5" width="50" height="3" r="0" rx="0" ry="0" fill="#cccccc" stroke="#cccccc" style=""></rect><text x="325" y="308.5" text-anchor="middle" font="10px &quot;Arial&quot;" stroke="none" fill="#000000" style="" font-size="7px" class="sig7"><tspan dy="308.5" style=""></tspan></text><text x="325" y="316.5" text-anchor="middle" font="10px &quot;Arial&quot;" stroke="none" fill="#000000" style="" font-size="7px" class="sig7"><tspan dy="316.5" style=""></tspan></text><path fill="#ffffff" stroke="#000000" d="M305,267L345,267L349,275L345,283L305,283Z" id="b_ST27" class="berth"></path><text x="325" y="275" text-anchor="middle" font="10px &quot;Arial&quot;" stroke="none" fill="#999999" font-size="10px" id="t_ST27" def="ST27" class="berth sig10"><tspan dy="3.5" style="-webkit-tap-highlight-color: rgba(0, 0, 0, 0);">ST27</tspan></text><path fill="#ffffff" stroke="#000000" d="M305,292L345,292L345,308L305,308L301,300Z" id="b_ST24" class="berth"></path><text x="325" y="300" text-anchor="middle" font="10px &quot;Arial&quot;" stroke="none" fill="#999999" font-size="10px" id="t_ST24" def="ST24" class="berth sig10"><tspan dy="3.5" style="-webkit-tap-highlight-color: rgba(0, 0, 0, 0);">ST24</tspan></text><text x="400" y="247.5" text-anchor="middle" font="10px &quot;Arial&quot;" stroke="none" fill="#000000" style="" font-size="8px" class="sig8"><tspan dy="-2.296875" style="">Leytonstone</tspan><tspan dy="9.6" x="400" style="">High Road</tspan></text><rect x="375" y="260.5" width="50" height="3" r="0" rx="0" ry="0" fill="#cccccc" stroke="#cccccc" style=""></rect><text x="400" y="258.5" text-anchor="middle" font="10px &quot;Arial&quot;" stroke="none" fill="#000000" style="" font-size="7px" class="sig7"><tspan dy="258.5" style=""></tspan></text><text x="400" y="266.5" text-anchor="middle" font="10px &quot;Arial&quot;" stroke="none" fill="#000000" style="" font-size="7px" class="sig7"><tspan dy="266.5" style=""></tspan></text><rect x="375" y="310.5" width="50" height="3" r="0" rx="0" ry="0" fill="#cccccc" stroke="#cccccc" style=""></rect><text x="400" y="308.5" text-anchor="middle" font="10px &quot;Arial&quot;" stroke="none" fill="#000000" style="" font-size="7px" class="sig7"><tspan dy="308.5" style=""></tspan></text><text x="400" y="316.5" text-anchor="middle" font="10px &quot;Arial&quot;" stroke="none" fill="#000000" style="" font-size="7px" class="sig7"><tspan dy="316.5" style=""></tspan></text><path fill="#ffffff" stroke="#000000" d="M380,267L420,267L424,275L420,283L380,283Z" id="b_ST29" class="berth"></path><text x="400" y="275" text-anchor="middle" font="10px &quot;Arial&quot;" stroke="none" fill="#999999" font-size="10px" id="t_ST29" def="ST29" class="berth sig10"><tspan dy="3.5" style="-webkit-tap-highlight-color: rgba(0, 0, 0, 0);">ST29</tspan></text><path fill="#ffffff" stroke="#000000" d="M380,292L420,292L420,308L380,308L376,300Z" id="b_ST26" class="berth"></path><text x="400" y="300" text-anchor="middle" font="10px &quot;Arial&quot;" stroke="none" fill="#999999" font-size="10px" id="t_ST26" def="ST26" class="berth sig10"><tspan dy="3.5" style="-webkit-tap-highlight-color: rgba(0, 0, 0, 0);">ST26</tspan></text><text x="459.99999999999994" y="287.5" text-anchor="middle" font="10px &quot;Arial&quot;" stroke="none" fill="#000000" style="" font-size="8px" class="sig8"><tspan dy="2.5" style="">SI</tspan></text><text x="512.5" y="277.5" text-anchor="middle" font="10px &quot;Arial&quot;" stroke="none" fill="#000000" style="" font-size="8px" class="sig8"><tspan dy="2.5" style="">to Wanstead Park</tspan></text></svg>