<svg height="400" version="1.1" width="600" xmlns="http://www.w3.org/2000/svg" style="overflow: hidden; position: relative; left: -0.390625px;"><desc style="-webkit-tap-highlight-color: rgba(0, 0, 0, 0);">Created with Raphaël 2.1.2</desc><defs style="-webkit-tap-highlight-color: rgba(0, 0, 0, 0);"></defs><path fill="#888888" stroke="#888888" d="M47.5,45L52.5,50L47.5,55ZM52.5,70L47.5,75L52.5,80ZM547.5,45L552.5,50L547.5,55ZM552.5,70L547.5,75L552.5,80ZM50,50L250,50M50,75L250,75M250,50L275,62.5M250,75L275,62.5M275,62.5L325,62.5M325,62.5L350,50M325,62.5L350,75M350,50L550,50M350,75L550,75" style=""></path><path fill="#ff6666" stroke="#ff6666" d="M125,25L125,62.5M125,62.5L250,62.5M250,62.5L250,100" style=""></path><text x="125" y="17.5" text-anchor="middle" font="10px &quot;Arial&quot;" stroke="none" fill="#ff6666" style="" font-size="8px" class="sig8"><tspan dy="2.5" style="">AD - TE</tspan></text><text x="50" y="61.25" text-anchor="middle" font="10px &quot;Arial&quot;" stroke="none" fill="#000000" style="" font-size="8px" class="sig8"><tspan dy="2.5" style="">AD</tspan></text><path fill="#ffffff" stroke="#000000" d="M80,42L120,42L120,58L80,58L76,50Z" id="b_0403" class="berth"></path><text x="100" y="50" text-anchor="middle" font="10px &quot;Arial&quot;" stroke="none" fill="#999999" font-size="10px" id="t_0403" def="0403" class="berth sig10"><tspan dy="3.5" style="-webkit-tap-highlight-color: rgba(0, 0, 0, 0);">0403</tspan></text><path fill="#ffffff" stroke="#000000" d="M130,67L170,67L170,83L130,83L126,75Z" id="b_0404" class="berth"></path><text x="150" y="75" text-anchor="middle" font="10px &quot;Arial&quot;" stroke="none" fill="#999999" font-size="10px" id="t_0404" def="0404" class="berth sig10"><tspan dy="3.5" style="-webkit-tap-highlight-color: rgba(0, 0, 0, 0);">0404</tspan></text><path fill="#ffffff" stroke="#000000" d="M180,67L220,67L220,83L180,83L176,75Z" id="b_0406" class="berth"></path><text x="200" y="75" text-anchor="middle" font="10px &quot;Arial&quot;" stroke="none" fill="#999999" font-size="10px" id="t_0406" def="0406" class="berth sig10"><tspan dy="3.5" style="-webkit-tap-highlight-color: rgba(0, 0, 0, 0);">0406</tspan></text><path fill="#ffff00" stroke="#000000" d="M180,92L220,92L220,108L180,108Z" id="b_AL01" class="berth"></path><text x="200" y="100" text-anchor="middle" font="10px &quot;Arial&quot;" stroke="none" fill="#000000" font-size="10px" id="t_AL01" def="AL01" class="berth sig10"><tspan dy="3.5" style="-webkit-tap-highlight-color: rgba(0, 0, 0, 0);">1H88</tspan></text><path fill="#ffffff" stroke="#000000" d="M130,42L170,42L174,50L170,58L130,58Z" id="b_0405" class="berth"></path><text x="150" y="50" text-anchor="middle" font="10px &quot;Arial&quot;" stroke="none" fill="#999999" font-size="10px" id="t_0405" def="0405" class="berth sig10"><tspan dy="3.5" style="-webkit-tap-highlight-color: rgba(0, 0, 0, 0);">0405</tspan></text><path fill="#ffffff" stroke="#000000" d="M180,42L220,42L224,50L220,58L180,58Z" id="b_0407" class="berth"></path><text x="200" y="50" text-anchor="middle" font="10px &quot;Arial&quot;" stroke="none" fill="#999999" font-size="10px" id="t_0407" def="0407" class="berth sig10"><tspan dy="3.5" style="-webkit-tap-highlight-color: rgba(0, 0, 0, 0);">0407</tspan></text><text x="300" y="30" text-anchor="middle" font="10px &quot;Arial&quot;" stroke="none" fill="#000000" style="" font-size="8px" class="sig8"><tspan dy="-2.296875" style="">Sommerhill</tspan><tspan dy="9.6" x="300" style="">Tunnel</tspan></text><text x="400" y="30" text-anchor="middle" font="10px &quot;Arial&quot;" stroke="none" fill="#000000" style="" font-size="8px" class="sig8"><tspan dy="2.5" style="">High Brooms</tspan></text><path fill="#ffffff" stroke="#000000" d="M380,42L420,42L424,50L420,58L380,58Z" id="b_0409" class="berth"></path><text x="400" y="50" text-anchor="middle" font="10px &quot;Arial&quot;" stroke="none" fill="#999999" font-size="10px" id="t_0409" def="0409" class="berth sig10"><tspan dy="3.5" style="-webkit-tap-highlight-color: rgba(0, 0, 0, 0);">0409</tspan></text><path fill="#ffffff" stroke="#000000" d="M380,67L420,67L420,83L380,83L376,75Z" id="b_0408" class="berth"></path><text x="400" y="75" text-anchor="middle" font="10px &quot;Arial&quot;" stroke="none" fill="#999999" font-size="10px" id="t_0408" def="0408" class="berth sig10"><tspan dy="3.5" style="-webkit-tap-highlight-color: rgba(0, 0, 0, 0);">0408</tspan></text><rect x="375" y="35.5" width="50" height="3" r="0" rx="0" ry="0" fill="#cccccc" stroke="#cccccc" style=""></rect><text x="400" y="33.5" text-anchor="middle" font="10px &quot;Arial&quot;" stroke="none" fill="#000000" style="" font-size="7px" class="sig7"><tspan dy="33.5" style=""></tspan></text><text x="400" y="41.5" text-anchor="middle" font="10px &quot;Arial&quot;" stroke="none" fill="#000000" style="" font-size="7px" class="sig7"><tspan dy="2" style="">2</tspan></text><rect x="375" y="85.5" width="50" height="3" r="0" rx="0" ry="0" fill="#cccccc" stroke="#cccccc" style=""></rect><text x="400" y="83.5" text-anchor="middle" font="10px &quot;Arial&quot;" stroke="none" fill="#000000" style="" font-size="7px" class="sig7"><tspan dy="2" style="">1</tspan></text><text x="400" y="91.5" text-anchor="middle" font="10px &quot;Arial&quot;" stroke="none" fill="#000000" style="" font-size="7px" class="sig7"><tspan dy="91.5" style=""></tspan></text><path fill="#ffffff" stroke="#000000" d="M480,42L520,42L524,50L520,58L480,58Z" id="b_0411" class="berth"></path><text x="500" y="50" text-anchor="middle" font="10px &quot;Arial&quot;" stroke="none" fill="#999999" font-size="10px" id="t_0411" def="0411" class="berth sig10"><tspan dy="3.5" style="-webkit-tap-highlight-color: rgba(0, 0, 0, 0);">0411</tspan></text><path fill="#ffffff" stroke="#000000" d="M480,67L520,67L520,83L480,83L476,75Z" id="b_0410" class="berth"></path><text x="500" y="75" text-anchor="middle" font="10px &quot;Arial&quot;" stroke="none" fill="#999999" font-size="10px" id="t_0410" def="0410" class="berth sig10"><tspan dy="3.5" style="-webkit-tap-highlight-color: rgba(0, 0, 0, 0);">0410</tspan></text><text x="550" y="61.25" text-anchor="middle" font="10px &quot;Arial&quot;" stroke="none" fill="#000000" style="" font-size="8px" class="sig8"><tspan dy="2.5" style="">A</tspan></text><path fill="#888888" stroke="#888888" d="M47.5,145L52.5,150L47.5,155ZM52.5,170L47.5,175L52.5,180ZM501,145L501,155L499,155L499,145ZM552.5,170L547.5,175L552.5,180ZM50,150L500,150M50,175L550,175M87.5,150L112.5,175M125,175L150,150M300,150L325,175M337.5,175L362.5,150" style=""></path><text x="50" y="161.25" text-anchor="middle" font="10px &quot;Arial&quot;" stroke="none" fill="#000000" style="" font-size="8px" class="sig8"><tspan dy="2.5" style="">A</tspan></text><text x="225" y="130" text-anchor="middle" font="10px &quot;Arial&quot;" stroke="none" fill="#000000" style="" font-size="8px" class="sig8"><tspan dy="2.5" style="">Tunbridge Wells</tspan></text><path fill="#ffffff" stroke="#000000" d="M180,142L220,142L220,158L180,158L176,150Z" id="b_0416" class="berth"></path><text x="200" y="150" text-anchor="middle" font="10px &quot;Arial&quot;" stroke="none" fill="#999999" font-size="10px" id="t_0416" def="0416" class="berth sig10"><tspan dy="3.5" style="-webkit-tap-highlight-color: rgba(0, 0, 0, 0);">0416</tspan></text><path fill="#ffffff" stroke="#000000" d="M230,142L270,142L274,150L270,158L230,158Z" id="b_0415" class="berth"></path><text x="250" y="150" text-anchor="middle" font="10px &quot;Arial&quot;" stroke="none" fill="#999999" font-size="10px" id="t_0415" def="0415" class="berth sig10"><tspan dy="3.5" style="-webkit-tap-highlight-color: rgba(0, 0, 0, 0);">0415</tspan></text><path fill="#ffffff" stroke="#000000" d="M180,167L220,167L220,183L180,183L176,175Z" id="b_0418" class="berth"></path><text x="200" y="175" text-anchor="middle" font="10px &quot;Arial&quot;" stroke="none" fill="#999999" font-size="10px" id="t_0418" def="0418" class="berth sig10"><tspan dy="3.5" style="-webkit-tap-highlight-color: rgba(0, 0, 0, 0);">0418</tspan></text><path fill="#ffffff" stroke="#000000" d="M230,167L270,167L274,175L270,183L230,183Z" id="b_0417" class="berth"></path><text x="250" y="175" text-anchor="middle" font="10px &quot;Arial&quot;" stroke="none" fill="#999999" font-size="10px" id="t_0417" def="0417" class="berth sig10"><tspan dy="3.5" style="-webkit-tap-highlight-color: rgba(0, 0, 0, 0);">0417</tspan></text><rect x="175" y="135.5" width="100" height="3" r="0" rx="0" ry="0" fill="#cccccc" stroke="#cccccc" style=""></rect><text x="225" y="133.5" text-anchor="middle" font="10px &quot;Arial&quot;" stroke="none" fill="#000000" style="" font-size="7px" class="sig7"><tspan dy="133.5" style=""></tspan></text><text x="225" y="141.5" text-anchor="middle" font="10px &quot;Arial&quot;" stroke="none" fill="#000000" style="" font-size="7px" class="sig7"><tspan dy="2" style="">2</tspan></text><rect x="175" y="185.5" width="100" height="3" r="0" rx="0" ry="0" fill="#cccccc" stroke="#cccccc" style=""></rect><text x="225" y="183.5" text-anchor="middle" font="10px &quot;Arial&quot;" stroke="none" fill="#000000" style="" font-size="7px" class="sig7"><tspan dy="2" style="">1</tspan></text><text x="225" y="191.5" text-anchor="middle" font="10px &quot;Arial&quot;" stroke="none" fill="#000000" style="" font-size="7px" class="sig7"><tspan dy="191.5" style=""></tspan></text><text x="325" y="130" text-anchor="middle" font="10px &quot;Arial&quot;" stroke="none" fill="#000000" style="" font-size="8px" class="sig8"><tspan dy="2.5" style="">Grove Jn</tspan></text><text x="400" y="155" text-anchor="middle" font="10px &quot;Arial&quot;" stroke="none" fill="#000000" style="" font-size="8px" class="sig8"><tspan dy="2.5" style="">Turnback</tspan></text><path fill="#ffffff" stroke="#000000" d="M380,142L420,142L420,158L380,158L376,150Z" id="b_0422" class="berth"></path><text x="400" y="150" text-anchor="middle" font="10px &quot;Arial&quot;" stroke="none" fill="#999999" font-size="10px" id="t_0422" def="0422" class="berth sig10"><tspan dy="3.5" style="-webkit-tap-highlight-color: rgba(0, 0, 0, 0);">0422</tspan></text><path fill="#ffffff" stroke="#000000" d="M430,142L470,142L470,158L430,158Z" id="b_B422" class="berth"></path><text x="450" y="150" text-anchor="middle" font="10px &quot;Arial&quot;" stroke="none" fill="#999999" font-size="10px" id="t_B422" def="B422" class="berth sig10"><tspan dy="3.5" style="-webkit-tap-highlight-color: rgba(0, 0, 0, 0);">B422</tspan></text><path fill="#ffffff" stroke="#000000" d="M430,117L470,117L470,133L430,133Z" id="b_X422" class="berth"></path><text x="450" y="125" text-anchor="middle" font="10px &quot;Arial&quot;" stroke="none" fill="#999999" font-size="10px" id="t_X422" def="X422" class="berth sig10"><tspan dy="3.5" style="-webkit-tap-highlight-color: rgba(0, 0, 0, 0);">X422</tspan></text><text x="550" y="161.25" text-anchor="middle" font="10px &quot;Arial&quot;" stroke="none" fill="#000000" style="" font-size="8px" class="sig8"><tspan dy="-2.296875" style="">Strawberry</tspan><tspan dy="9.6" x="550" style="">Hill Tunnel</tspan></text><path fill="#888888" stroke="#888888" d="M52.5,270L47.5,275L52.5,280ZM552.5,270L547.5,275L552.5,280ZM150,250L450,250M50,275L550,275M125,275L150,250M400,275L425,250M450,250L475,275" style=""></path><text x="62.5" y="255" text-anchor="middle" font="10px &quot;Arial&quot;" stroke="none" fill="#000000" style="" font-size="8px" class="sig8"><tspan dy="-2.296875" style="">Strawberry</tspan><tspan dy="9.6" x="62.5" style="">Hill Tunnel</tspan></text><text x="200" y="230" text-anchor="middle" font="10px &quot;Arial&quot;" stroke="none" fill="#000000" style="" font-size="8px" class="sig8"><tspan dy="2.5" style="">Frant</tspan></text><path fill="#ffffff" stroke="#000000" d="M180,242L220,242L224,250L220,258L180,258Z" id="b_0421" class="berth"></path><text x="200" y="250" text-anchor="middle" font="10px &quot;Arial&quot;" stroke="none" fill="#999999" font-size="10px" id="t_0421" def="0421" class="berth sig10"><tspan dy="3.5" style="-webkit-tap-highlight-color: rgba(0, 0, 0, 0);">0421</tspan></text><path fill="#ffffff" stroke="#000000" d="M180,267L220,267L220,283L180,283L176,275Z" id="b_0426" class="berth"></path><text x="200" y="275" text-anchor="middle" font="10px &quot;Arial&quot;" stroke="none" fill="#999999" font-size="10px" id="t_0426" def="0426" class="berth sig10"><tspan dy="3.5" style="-webkit-tap-highlight-color: rgba(0, 0, 0, 0);">0426</tspan></text><rect x="175" y="235.5" width="50" height="3" r="0" rx="0" ry="0" fill="#cccccc" stroke="#cccccc" style=""></rect><text x="200" y="233.5" text-anchor="middle" font="10px &quot;Arial&quot;" stroke="none" fill="#000000" style="" font-size="7px" class="sig7"><tspan dy="233.5" style=""></tspan></text><text x="200" y="241.5" text-anchor="middle" font="10px &quot;Arial&quot;" stroke="none" fill="#000000" style="" font-size="7px" class="sig7"><tspan dy="2" style="">2</tspan></text><rect x="175" y="285.5" width="50" height="3" r="0" rx="0" ry="0" fill="#cccccc" stroke="#cccccc" style=""></rect><text x="200" y="283.5" text-anchor="middle" font="10px &quot;Arial&quot;" stroke="none" fill="#000000" style="" font-size="7px" class="sig7"><tspan dy="2" style="">1</tspan></text><text x="200" y="291.5" text-anchor="middle" font="10px &quot;Arial&quot;" stroke="none" fill="#000000" style="" font-size="7px" class="sig7"><tspan dy="291.5" style=""></tspan></text><path fill="#ffffff" stroke="#000000" d="M255,242L295,242L299,250L295,258L255,258Z" id="b_0423" class="berth"></path><text x="275" y="250" text-anchor="middle" font="10px &quot;Arial&quot;" stroke="none" fill="#999999" font-size="10px" id="t_0423" def="0423" class="berth sig10"><tspan dy="3.5" style="-webkit-tap-highlight-color: rgba(0, 0, 0, 0);">0423</tspan></text><path fill="#ffffff" stroke="#000000" d="M255,267L295,267L295,283L255,283L251,275Z" id="b_0428" class="berth"></path><text x="275" y="275" text-anchor="middle" font="10px &quot;Arial&quot;" stroke="none" fill="#999999" font-size="10px" id="t_0428" def="0428" class="berth sig10"><tspan dy="3.5" style="-webkit-tap-highlight-color: rgba(0, 0, 0, 0);">0428</tspan></text><text x="350" y="230" text-anchor="middle" font="10px &quot;Arial&quot;" stroke="none" fill="#000000" style="" font-size="8px" class="sig8"><tspan dy="2.5" style="">Wadhurst</tspan></text><path fill="#ffff00" stroke="#000000" d="M330,242L370,242L374,250L370,258L330,258Z" id="b_0425" class="berth"></path><text x="350" y="250" text-anchor="middle" font="10px &quot;Arial&quot;" stroke="none" fill="#000000" font-size="10px" id="t_0425" def="0425" class="berth sig10"><tspan dy="3.5" style="-webkit-tap-highlight-color: rgba(0, 0, 0, 0);">1H36</tspan></text><path fill="#ffff00" stroke="#000000" d="M330,267L370,267L370,283L330,283L326,275Z" id="b_0430" class="berth"></path><text x="350" y="275" text-anchor="middle" font="10px &quot;Arial&quot;" stroke="none" fill="#000000" font-size="10px" id="t_0430" def="0430" class="berth sig10"><tspan dy="3.5" style="-webkit-tap-highlight-color: rgba(0, 0, 0, 0);">1H52</tspan></text><rect x="325" y="235.5" width="50" height="3" r="0" rx="0" ry="0" fill="#cccccc" stroke="#cccccc" style=""></rect><text x="350" y="233.5" text-anchor="middle" font="10px &quot;Arial&quot;" stroke="none" fill="#000000" style="" font-size="7px" class="sig7"><tspan dy="233.5" style=""></tspan></text><text x="350" y="241.5" text-anchor="middle" font="10px &quot;Arial&quot;" stroke="none" fill="#000000" style="" font-size="7px" class="sig7"><tspan dy="2" style="">2</tspan></text><rect x="325" y="285.5" width="50" height="3" r="0" rx="0" ry="0" fill="#cccccc" stroke="#cccccc" style=""></rect><text x="350" y="283.5" text-anchor="middle" font="10px &quot;Arial&quot;" stroke="none" fill="#000000" style="" font-size="7px" class="sig7"><tspan dy="2" style="">1</tspan></text><text x="350" y="291.5" text-anchor="middle" font="10px &quot;Arial&quot;" stroke="none" fill="#000000" style="" font-size="7px" class="sig7"><tspan dy="291.5" style=""></tspan></text><text x="550" y="255" text-anchor="middle" font="10px &quot;Arial&quot;" stroke="none" fill="#000000" style="" font-size="8px" class="sig8"><tspan dy="-2.296875" style="">Wadhurst</tspan><tspan dy="9.6" x="550" style="">Tunnel</tspan></text><path fill="#888888" stroke="#888888" d="M52.5,370L47.5,375L52.5,380ZM547.5,345L552.5,350L547.5,355ZM552.5,370L547.5,375L552.5,380ZM150,350L550,350M50,375L550,375M125,375L150,350" style=""></path><text x="75" y="355" text-anchor="middle" font="10px &quot;Arial&quot;" stroke="none" fill="#000000" style="" font-size="8px" class="sig8"><tspan dy="-2.296875" style="">Wadhurst</tspan><tspan dy="9.6" x="75" style="">Tunnel</tspan></text><text x="200" y="330" text-anchor="middle" font="10px &quot;Arial&quot;" stroke="none" fill="#000000" style="" font-size="8px" class="sig8"><tspan dy="2.5" style="">Stonegate</tspan></text><path fill="#ffffff" stroke="#000000" d="M180,342L220,342L224,350L220,358L180,358Z" id="b_H427" class="berth"></path><text x="200" y="350" text-anchor="middle" font="10px &quot;Arial&quot;" stroke="none" fill="#999999" font-size="10px" id="t_H427" def="H427" class="berth sig10"><tspan dy="3.5" style="-webkit-tap-highlight-color: rgba(0, 0, 0, 0);">H427</tspan></text><path fill="#ffffff" stroke="#000000" d="M180,367L220,367L220,383L180,383L176,375Z" id="b_0432" class="berth"></path><text x="200" y="375" text-anchor="middle" font="10px &quot;Arial&quot;" stroke="none" fill="#999999" font-size="10px" id="t_0432" def="0432" class="berth sig10"><tspan dy="3.5" style="-webkit-tap-highlight-color: rgba(0, 0, 0, 0);">0432</tspan></text><rect x="175" y="335.5" width="50" height="3" r="0" rx="0" ry="0" fill="#cccccc" stroke="#cccccc" style=""></rect><text x="200" y="333.5" text-anchor="middle" font="10px &quot;Arial&quot;" stroke="none" fill="#000000" style="" font-size="7px" class="sig7"><tspan dy="333.5" style=""></tspan></text><text x="200" y="341.5" text-anchor="middle" font="10px &quot;Arial&quot;" stroke="none" fill="#000000" style="" font-size="7px" class="sig7"><tspan dy="2" style="">2</tspan></text><rect x="175" y="385.5" width="50" height="3" r="0" rx="0" ry="0" fill="#cccccc" stroke="#cccccc" style=""></rect><text x="200" y="383.5" text-anchor="middle" font="10px &quot;Arial&quot;" stroke="none" fill="#000000" style="" font-size="7px" class="sig7"><tspan dy="2" style="">1</tspan></text><text x="200" y="391.5" text-anchor="middle" font="10px &quot;Arial&quot;" stroke="none" fill="#000000" style="" font-size="7px" class="sig7"><tspan dy="391.5" style=""></tspan></text><path fill="#ff6666" stroke="#ff6666" d="M300,325L300,400" style=""></path><text x="300" y="317.5" text-anchor="middle" font="10px &quot;Arial&quot;" stroke="none" fill="#ff6666" style="" font-size="8px" class="sig8"><tspan dy="2.5" style="">TE - A3</tspan></text><path fill="#ffff00" stroke="#000000" d="M330,317L370,317L370,333L330,333Z" id="b_RL01" class="berth"></path><text x="350" y="325" text-anchor="middle" font="10px &quot;Arial&quot;" stroke="none" fill="#000000" font-size="10px" id="t_RL01" def="RL01" class="berth sig10"><tspan dy="3.5" style="-webkit-tap-highlight-color: rgba(0, 0, 0, 0);">1H34</tspan></text><path fill="#ffffff" stroke="#000000" d="M330,367L370,367L370,383L330,383L326,375Z" id="b_H434" class="berth"></path><text x="350" y="375" text-anchor="middle" font="10px &quot;Arial&quot;" stroke="none" fill="#999999" font-size="10px" id="t_H434" def="H434" class="berth sig10"><tspan dy="3.5" style="-webkit-tap-highlight-color: rgba(0, 0, 0, 0);">H434</tspan></text><path fill="#ffffff" stroke="#000000" d="M380,367L420,367L420,383L380,383L376,375Z" id="b_H436" class="berth"></path><text x="400" y="375" text-anchor="middle" font="10px &quot;Arial&quot;" stroke="none" fill="#999999" font-size="10px" id="t_H436" def="H436" class="berth sig10"><tspan dy="3.5" style="-webkit-tap-highlight-color: rgba(0, 0, 0, 0);">H436</tspan></text><path fill="#ffffff" stroke="#000000" d="M430,367L470,367L470,383L430,383L426,375Z" id="b_H002" class="berth"></path><text x="450" y="375" text-anchor="middle" font="10px &quot;Arial&quot;" stroke="none" fill="#999999" font-size="10px" id="t_H002" def="H002" class="berth sig10"><tspan dy="3.5" style="-webkit-tap-highlight-color: rgba(0, 0, 0, 0);">H002</tspan></text><path fill="#ffffff" stroke="#000000" d="M480,367L520,367L520,383L480,383L476,375Z" id="b_H006" class="berth"></path><text x="500" y="375" text-anchor="middle" font="10px &quot;Arial&quot;" stroke="none" fill="#999999" font-size="10px" id="t_H006" def="H006" class="berth sig10"><tspan dy="3.5" style="-webkit-tap-highlight-color: rgba(0, 0, 0, 0);">H006</tspan></text><text x="550" y="361.25" text-anchor="middle" font="10px &quot;Arial&quot;" stroke="none" fill="#000000" style="" font-size="8px" class="sig8"><tspan dy="2.5" style="">Area A3</tspan></text></svg>